<svg xmlns="http://www.w3.org/2000/svg" width="88.129" height="47.65" viewBox="0 0 88.129 47.65">
  <g id="svg_ikoner_logo_121x65" transform="translate(0 0.003)">
    <rect id="Rectangle_70" data-name="Rectangle 70" width="5.148" height="26.361" transform="translate(46.917 7.034)" fill="#a5afba"/>
    <path id="Path_40" data-name="Path 40" d="M16.649,12.18A9.606,9.606,0,0,0,9.687,9.66H.17V36.021H9.687a9.606,9.606,0,0,0,6.962-2.52c2.964-2.964,2.665-6.809,2.665-10.77S19.605,15.136,16.649,12.18ZM13.059,29.8a4.6,4.6,0,0,1-3.852,1.631H5.318V14.277H9.207a4.6,4.6,0,0,1,3.852,1.631c.961,1.187,1.114,2.847,1.114,6.852s-.153,5.855-1.121,7.042Z" transform="translate(-0.046 -2.626)" fill="#a5afba"/>
    <path id="Path_41" data-name="Path 41" d="M47.724,22.505A6.1,6.1,0,0,0,51,17.066c0-4.515-3-7.406-8.148-7.406H32.25V36.021H43.282c4.7,0,8.068-2.665,8.068-7.588A6.124,6.124,0,0,0,47.724,22.505ZM37.4,14.277H42.43c2.185,0,3.408,1.223,3.408,3.037S44.615,20.35,42.43,20.35H37.4Zm5.367,17.178H37.4V24.974h5.367a3.233,3.233,0,1,1,0,6.452Z" transform="translate(-8.766 -2.626)" fill="#a5afba"/>
    <path id="Path_42" data-name="Path 42" d="M2.978,62.674H0V55.56H2.862a1.932,1.932,0,0,1,2.185,2,1.646,1.646,0,0,1-.881,1.456,1.653,1.653,0,0,1,.983,1.6,1.966,1.966,0,0,1-2.17,2.054ZM2.745,56.8H1.391v1.638H2.753a.823.823,0,1,0,0-1.638Zm.087,2.913H1.376v1.748H2.833a.874.874,0,1,0,0-1.748Z" transform="translate(0 -15.102)" fill="#a5afba"/>
    <path id="Path_43" data-name="Path 43" d="M12.8,62.673l-1.391-2.84h-1v2.84H9V55.559h2.789A2.185,2.185,0,0,1,14.1,57.743a1.915,1.915,0,0,1-1.3,1.871l1.587,3.073ZM11.723,56.8H10.413v1.879h1.311a.939.939,0,1,0,0-1.879Z" transform="translate(-2.446 -15.101)" fill="#a5afba"/>
    <path id="Path_44" data-name="Path 44" d="M21.765,62.674l-.415-1.252H18.816l-.43,1.26H16.93l2.592-7.122h1.1l2.6,7.122ZM20.1,57.657l-.9,2.592h1.77Z" transform="translate(-4.602 -15.102)" fill="#a5afba"/>
    <path id="Path_45" data-name="Path 45" d="M30.979,62.674l-2.818-4.369v4.369H26.77V55.56h1.238l2.818,4.369V55.56h1.391v7.122Z" transform="translate(-7.276 -15.102)" fill="#a5afba"/>
    <path id="Path_46" data-name="Path 46" d="M40.979,62a2.592,2.592,0,0,1-1.879.677H36.53V55.559H39.1a2.592,2.592,0,0,1,1.879.677c.8.8.728,1.777.728,2.847S41.78,61.2,40.979,62Zm-.968-4.755a1.238,1.238,0,0,0-1.041-.437H37.921v4.639h1.049a1.238,1.238,0,0,0,1.041-.437c.262-.32.3-.83.3-1.908s-.044-1.536-.3-1.857Z" transform="translate(-9.929 -15.101)" fill="#a5afba"/>
    <path id="Path_47" data-name="Path 47" d="M52.97,61.939a2.767,2.767,0,0,1-3.852,0c-.728-.728-.728-1.609-.728-2.84s0-2.119.728-2.84a2.767,2.767,0,0,1,3.852,0c.728.728.728,1.609.728,2.84S53.691,61.218,52.97,61.939ZM51.936,57.1a1.158,1.158,0,0,0-.918-.379,1.18,1.18,0,0,0-.9.379c-.269.3-.342.626-.342,2s.073,1.7.342,2a1.18,1.18,0,0,0,.9.379,1.158,1.158,0,0,0,.888-.379c.269-.3.35-.626.35-2S52.213,57.395,51.936,57.1Z" transform="translate(-13.153 -15.08)" fill="#a5afba"/>
    <path id="Path_48" data-name="Path 48" d="M61.89,61.9a2.825,2.825,0,0,1-3.932,0c-.728-.728-.728-1.609-.728-2.84s0-2.119.728-2.84a2.592,2.592,0,0,1,1.922-.779,2.556,2.556,0,0,1,2.68,2.279h-1.4a1.209,1.209,0,0,0-1.282-1.041,1.158,1.158,0,0,0-.888.379c-.269.3-.342.626-.342,2s.073,1.711.342,2.01a1.151,1.151,0,0,0,.888.371,1.311,1.311,0,0,0,.99-.4,1.369,1.369,0,0,0,.32-.947v-.269H59.881V58.686h2.687v1.041A2.825,2.825,0,0,1,61.89,61.9Z" transform="translate(-15.556 -15.068)" fill="#a5afba"/>
    <path id="Path_49" data-name="Path 49" d="M71.4,62.708a3.342,3.342,0,0,1-2.6-.939l.874-.9a2.33,2.33,0,0,0,1.719.6c.823,0,1.26-.313,1.26-.881a.794.794,0,0,0-.218-.6,1.063,1.063,0,0,0-.626-.248l-.859-.117a2.41,2.41,0,0,1-1.376-.59,1.879,1.879,0,0,1-.51-1.4,2.21,2.21,0,0,1,2.476-2.185,3.051,3.051,0,0,1,2.3.83l-.881.867a1.981,1.981,0,0,0-1.456-.488c-.728,0-1.1.408-1.1.9a.684.684,0,0,0,.211.51,1.223,1.223,0,0,0,.663.277l.837.117a2.352,2.352,0,0,1,1.362.546,2,2,0,0,1,.568,1.536C74.043,61.928,72.892,62.708,71.4,62.708Z" transform="translate(-18.7 -15.07)" fill="#a5afba"/>
    <path id="Path_50" data-name="Path 50" d="M77.8,62.674V55.56h1.384v7.122Z" transform="translate(-21.147 -15.102)" fill="#a5afba"/>
    <path id="Path_51" data-name="Path 51" d="M86.129,62.674,84.3,59.434l-.925,1.107v2.141H82V55.56h1.391v3.1l2.512-3.1h1.689l-2.359,2.833,2.527,4.289Z" transform="translate(-22.288 -15.102)" fill="#a5afba"/>
    <path id="Path_52" data-name="Path 52" d="M94.889,62.673,93.5,59.833H92.486v2.84H91.11V55.559H93.9a2.185,2.185,0,0,1,2.308,2.185,1.915,1.915,0,0,1-1.3,1.871L96.5,62.688ZM93.812,56.8H92.486v1.879H93.8a.939.939,0,1,0,0-1.879Z" transform="translate(-24.764 -15.101)" fill="#a5afba"/>
    <path id="Path_53" data-name="Path 53" d="M100.09,62.674V55.56h1.391v7.122Z" transform="translate(-27.205 -15.102)" fill="#a5afba"/>
    <path id="Path_54" data-name="Path 54" d="M108.489,62.674l-2.818-4.369v4.369H104.28V55.56h1.252l2.818,4.369V55.56h1.391v7.122Z" transform="translate(-28.344 -15.102)" fill="#a5afba"/>
    <path id="Path_55" data-name="Path 55" d="M118.33,61.9a2.825,2.825,0,0,1-3.932,0c-.728-.728-.728-1.609-.728-2.84s0-2.119.728-2.84a2.592,2.592,0,0,1,1.922-.779,2.556,2.556,0,0,1,2.687,2.308h-1.4a1.209,1.209,0,0,0-1.282-1.041,1.158,1.158,0,0,0-.888.379c-.269.3-.342.626-.342,2s.073,1.711.342,2.01a1.151,1.151,0,0,0,.888.371,1.311,1.311,0,0,0,.99-.4,1.369,1.369,0,0,0,.32-.947v-.269h-1.311V58.686h2.68v1.041A2.825,2.825,0,0,1,118.33,61.9Z" transform="translate(-30.896 -15.068)" fill="#a5afba"/>
    <path id="Exclusion_2" data-name="Exclusion 2" d="M1112-6988.6h-19.56l1.042-7.486H1085v-.263a31.942,31.942,0,0,0,3.711-1.742c1.693-.947,3.71-2.364,3.71-3.74,0-.66-.644-1.8-3.711-3.482a36.619,36.619,0,0,0-3.71-1.746v-.233h7.567v-1.3a3.245,3.245,0,0,1,.093-.771c.4-1.672,1.838-3.211,3.229-4.7,1.538-1.646,3.129-3.348,3.361-5.255v-.421a.364.364,0,0,1,.363-.365.365.365,0,0,1,.365.365v8.781a1.133,1.133,0,0,1,.027-.124.745.745,0,0,0,.031-.183c.4-1.67,1.837-3.209,3.229-4.7,1.539-1.646,3.13-3.348,3.362-5.255v-.423a.356.356,0,0,1,.16-.3.366.366,0,0,1,.2-.057.354.354,0,0,1,.146.031.358.358,0,0,1,.226.335v10.69c.006-.035.016-.069.025-.1l0-.013a.815.815,0,0,0,.037-.205c.4-1.67,1.837-3.21,3.229-4.7,1.538-1.646,3.129-3.347,3.362-5.254v-.423a.356.356,0,0,1,.16-.3.367.367,0,0,1,.2-.057.354.354,0,0,1,.146.031.358.358,0,0,1,.225.335v10.56q0,.48,0,.949a38.319,38.319,0,0,1-.569,8.609,7.656,7.656,0,0,1-4.07,5.442l1.9,7.478Zm-10.245-18.007a8.63,8.63,0,0,0-4.26,1.127,8.628,8.628,0,0,0-3.146,3.087,8.48,8.48,0,0,0,7.37,4.3c.148,0,.3,0,.444-.012a9.343,9.343,0,0,0,4.11-1.135,6.823,6.823,0,0,0,2.909-3.1v-.014a8.625,8.625,0,0,0-3.14-3.108,8.623,8.623,0,0,0-4.267-1.143Z" transform="translate(-1026.628 7022)" fill="#a5afba"/>
    <circle id="Ellipse_3" data-name="Ellipse 3" cx="3.808" cy="3.808" r="3.808" transform="translate(71.326 15.881)" fill="#909ba7"/>
  </g>
</svg>
