<svg xmlns="http://www.w3.org/2000/svg" width="88.13" height="47.65" viewBox="0 0 88.13 47.65">
  <g id="svg_ikoner_logo_121x65" transform="translate(0 0.003)">
    <rect id="Rectangle_232" data-name="Rectangle 232" width="5.125" height="26.243" transform="translate(46.931 7.002)" fill="#1d1d1d"/>
    <path id="Path_637" data-name="Path 637" d="M16.575,12.168A9.563,9.563,0,0,0,9.645,9.66H.17V35.9H9.645a9.563,9.563,0,0,0,6.93-2.508c2.95-2.95,2.653-6.778,2.653-10.722S19.519,15.112,16.575,12.168ZM13,29.712a4.574,4.574,0,0,1-3.835,1.624H5.3V14.256H9.166A4.574,4.574,0,0,1,13,15.88c.957,1.182,1.109,2.834,1.109,6.822s-.152,5.828-1.116,7.01Z" transform="translate(-0.047 -2.658)" fill="#1d1d1d"/>
    <path id="Path_638" data-name="Path 638" d="M47.655,22.448a6.068,6.068,0,0,0,3.262-5.415c0-4.495-2.987-7.373-8.112-7.373H32.25V35.9H43.233c4.683,0,8.032-2.653,8.032-7.554A6.1,6.1,0,0,0,47.655,22.448Zm-10.28-8.192h5.009c2.175,0,3.393,1.218,3.393,3.023S44.559,20.3,42.385,20.3H37.375Zm5.343,17.1H37.375V24.905h5.343a3.218,3.218,0,1,1,0,6.423Z" transform="translate(-8.736 -2.658)" fill="#1d1d1d"/>
    <path id="Path_639" data-name="Path 639" d="M2.965,62.643H0V55.56H2.849a1.924,1.924,0,0,1,2.175,1.994A1.638,1.638,0,0,1,4.147,59,1.646,1.646,0,0,1,5.125,60.6a1.957,1.957,0,0,1-2.16,2.044Zm-.232-5.85H1.385v1.631H2.74a.819.819,0,1,0,0-1.631Zm.087,2.9H1.37v1.74H2.82a.87.87,0,1,0,0-1.74Z" transform="translate(0 -15.071)" fill="#1d1d1d"/>
    <path id="Path_640" data-name="Path 640" d="M12.784,62.641,11.4,59.814h-.993v2.827H9V55.559h2.777a2.175,2.175,0,0,1,2.3,2.175,1.907,1.907,0,0,1-1.29,1.863l1.58,3.059Zm-1.073-5.85h-1.3v1.87h1.3a.935.935,0,1,0,0-1.87Z" transform="translate(-2.476 -15.07)" fill="#1d1d1d"/>
    <path id="Path_641" data-name="Path 641" d="M21.744,62.643,21.33,61.4H18.808L18.38,62.65H16.93l2.581-7.09h1.095l2.588,7.09Zm-1.653-4.995L19.2,60.229h1.762Z" transform="translate(-4.657 -15.071)" fill="#1d1d1d"/>
    <path id="Path_642" data-name="Path 642" d="M30.96,62.643l-2.806-4.35v4.35H26.77V55.56H28l2.805,4.35V55.56h1.385v7.09Z" transform="translate(-7.27 -15.071)" fill="#1d1d1d"/>
    <path id="Path_643" data-name="Path 643" d="M40.959,61.967a2.581,2.581,0,0,1-1.87.674H36.53V55.559h2.559a2.581,2.581,0,0,1,1.87.674c.8.8.725,1.769.725,2.834S41.757,61.17,40.959,61.967ZM40,57.233a1.232,1.232,0,0,0-1.037-.435H37.915v4.618h1.044A1.232,1.232,0,0,0,40,60.981c.261-.319.3-.826.3-1.9s-.043-1.53-.3-1.849Z" transform="translate(-9.921 -15.07)" fill="#1d1d1d"/>
    <path id="Path_644" data-name="Path 644" d="M52.95,61.91a2.755,2.755,0,0,1-3.835,0c-.725-.725-.725-1.6-.725-2.827s0-2.11.725-2.827a2.755,2.755,0,0,1,3.835,0c.725.725.725,1.6.725,2.827S53.668,61.192,52.95,61.91ZM51.92,57.089a1.153,1.153,0,0,0-.913-.377,1.174,1.174,0,0,0-.9.377c-.268.3-.341.623-.341,1.994s.072,1.689.341,1.994a1.174,1.174,0,0,0,.9.377,1.153,1.153,0,0,0,.884-.377c.268-.3.348-.623.348-1.994S52.2,57.386,51.92,57.089Z" transform="translate(-13.142 -15.049)" fill="#1d1d1d"/>
    <path id="Path_645" data-name="Path 645" d="M61.87,61.869a2.813,2.813,0,0,1-3.915,0c-.725-.725-.725-1.6-.725-2.827s0-2.11.725-2.827a2.581,2.581,0,0,1,1.914-.776,2.545,2.545,0,0,1,2.668,2.269H61.145a1.2,1.2,0,0,0-1.276-1.037,1.153,1.153,0,0,0-.884.377c-.268.3-.341.623-.341,1.994s.072,1.7.341,2a1.145,1.145,0,0,0,.884.37,1.3,1.3,0,0,0,.986-.4,1.363,1.363,0,0,0,.319-.942V59.8h-1.3V58.672h2.675v1.037A2.813,2.813,0,0,1,61.87,61.869Z" transform="translate(-15.543 -15.037)" fill="#1d1d1d"/>
    <path id="Path_646" data-name="Path 646" d="M71.388,62.675A3.327,3.327,0,0,1,68.8,61.74l.87-.9a2.32,2.32,0,0,0,1.711.594c.819,0,1.254-.312,1.254-.877a.79.79,0,0,0-.217-.594,1.058,1.058,0,0,0-.623-.246l-.855-.116a2.4,2.4,0,0,1-1.37-.587,1.87,1.87,0,0,1-.507-1.392,2.2,2.2,0,0,1,2.465-2.175,3.037,3.037,0,0,1,2.291.826l-.877.863a1.972,1.972,0,0,0-1.45-.486c-.725,0-1.095.406-1.095.9a.681.681,0,0,0,.21.507,1.218,1.218,0,0,0,.66.275l.834.116a2.342,2.342,0,0,1,1.356.544,1.986,1.986,0,0,1,.565,1.53C74.02,61.9,72.874,62.675,71.388,62.675Z" transform="translate(-18.685 -15.038)" fill="#1d1d1d"/>
    <path id="Path_647" data-name="Path 647" d="M77.8,62.643V55.56h1.377v7.09Z" transform="translate(-21.142 -15.071)" fill="#1d1d1d"/>
    <path id="Path_648" data-name="Path 648" d="M86.11,62.643l-1.82-3.226-.921,1.1V62.65H82V55.56h1.385v3.088l2.5-3.088h1.682l-2.349,2.82,2.516,4.27Z" transform="translate(-22.269 -15.071)" fill="#1d1d1d"/>
    <path id="Path_649" data-name="Path 649" d="M94.872,62.641l-1.385-2.827H92.48v2.827H91.11V55.559h2.777a2.175,2.175,0,0,1,2.3,2.175,1.907,1.907,0,0,1-1.29,1.863l1.58,3.059ZM93.8,56.791H92.48v1.87h1.3a.935.935,0,1,0,0-1.87Z" transform="translate(-24.744 -15.07)" fill="#1d1d1d"/>
    <path id="Path_650" data-name="Path 650" d="M100.09,62.643V55.56h1.385v7.09Z" transform="translate(-27.136 -15.071)" fill="#1d1d1d"/>
    <path id="Path_651" data-name="Path 651" d="M108.47,62.643l-2.805-4.35v4.35H104.28V55.56h1.247l2.806,4.35V55.56h1.385v7.09Z" transform="translate(-28.288 -15.071)" fill="#1d1d1d"/>
    <path id="Path_652" data-name="Path 652" d="M118.31,61.869a2.813,2.813,0,0,1-3.915,0c-.725-.725-.725-1.6-.725-2.827s0-2.11.725-2.827a2.581,2.581,0,0,1,1.914-.776,2.545,2.545,0,0,1,2.675,2.3h-1.392a1.2,1.2,0,0,0-1.276-1.037,1.153,1.153,0,0,0-.884.377c-.268.3-.341.623-.341,1.994s.072,1.7.341,2a1.145,1.145,0,0,0,.884.37,1.3,1.3,0,0,0,.986-.4,1.363,1.363,0,0,0,.319-.942v-.268h-1.3v-1.16h2.668v1.037A2.813,2.813,0,0,1,118.31,61.869Z" transform="translate(-30.871 -15.037)" fill="#1d1d1d"/>
    <path id="Path_653" data-name="Path 653" d="M109.766,10.873V.362a.355.355,0,0,0-.225-.333.355.355,0,0,0-.5.326v.42c-.442,3.625-5.727,6.416-6.561,9.91a1.781,1.781,0,0,1-.065.319h0V.362a.355.355,0,0,0-.225-.333.355.355,0,0,0-.5.326c0,.145,0,.283,0,.42-.442,3.625-5.727,6.416-6.561,9.91a2.249,2.249,0,0,1-.058.3h0V2.9h0V2.247a.362.362,0,1,0-.725,0v.42c-.442,3.625-5.727,6.416-6.561,9.91a3.206,3.206,0,0,0-.094.768h0v1.3H80.16v.232s7.387,2.9,7.387,5.205c0,2.653-7.387,5.459-7.387,5.459V25.8h8.445l-1.037,7.452h19.472l-1.892-7.445C110.006,23.32,109.766,17.912,109.766,10.873Z" transform="translate(-21.654 0)" fill="#e73137"/>
    <path id="Path_654" data-name="Path 654" d="M107.767,25.389a7.836,7.836,0,0,1-6.988,4.219A8.431,8.431,0,0,1,93,25.338a8.576,8.576,0,0,1,14.767.036" transform="translate(-25.186 -5.733)" fill="#fff"/>
    <circle id="Ellipse_7" data-name="Ellipse 7" cx="3.791" cy="3.791" r="3.791" transform="translate(71.403 15.894)" fill="#1d1d1d"/>
  </g>
</svg>
