<svg xmlns="http://www.w3.org/2000/svg" width="137.81" height="47.65" viewBox="0 0 137.81 47.65">
  <g id="logo" transform="translate(-0.02 -0.399)">
    <path id="Path_634" data-name="Path 634" d="M74.532,36.493c-.355,0-.532-.089-.532-.532V15.2c0-.355.089-.532.532-.532H84.559c3.9,0,6.122,2.129,6.122,5.767v10.2c0,3.638-2.218,5.767-6.122,5.767H74.532Zm9.405-4.436c1.508,0,2.041-.621,2.041-2.218V21.232c0-1.6-.621-2.218-2.041-2.218H78.7V31.968h5.235Zm14.552,3.9c0,.355-.089.532-.532.532H94.23c-.355,0-.532-.089-.532-.532V15.2c0-.355.089-.532.532-.532h13.4c.355,0,.532.089.532.532V18.57c0,.355-.089.532-.532.532H98.489v4.7h7.986c.355,0,.532.089.532.532v3.372c0,.355-.089.532-.532.532H98.489Zm12.688.532c-.355,0-.532-.089-.532-.532V15.2c0-.355.089-.532.532-.532H121.2c3.9,0,6.122,2.129,6.122,5.767v10.2c0,3.638-2.218,5.767-6.122,5.767H111.177Zm9.405-4.436c1.508,0,2.041-.621,2.041-2.218V21.232c0-1.6-.621-2.218-2.041-2.218h-5.235V31.968h5.235Zm9.849,4.436c-.355,0-.532-.089-.532-.532V32.589c0-.355.089-.532.532-.532,0,0,4.436.089,7.808.089,1.508,0,2.041-.089,2.041-1.686v-.532c0-1.153-.266-1.508-1.331-1.775l-4.791-1.6c-2.129-.621-4.259-1.331-4.259-5.235V19.635c0-3.638,2.218-5.235,6.122-5.235,3.372,0,7.276.089,7.276.089.355,0,.532.089.532.532v3.372c0,.355-.089.532-.532.532,0,0-3.549-.089-6.655-.089-1.508,0-2.041,0-2.041,1.6v.444c0,1.153.266,1.331,1.331,1.686l4.791,1.6c2.041.621,4.259,1.331,4.259,5.235v1.686c0,3.638-2.218,5.412-6.122,5.412C134.957,36.582,130.431,36.493,130.431,36.493Z" transform="translate(-7.153 -1.375)" fill="#002b45"/>
    <path id="Exclusion_4" data-name="Exclusion 4" d="M38.361,47.65a.3.3,0,0,1-.136-.037H.336a.336.336,0,0,1-.3-.172.351.351,0,0,1,.038-.363L27.135.178c0-.089.181-.178.264-.178H65.374a.336.336,0,0,1,.3.171.354.354,0,0,1-.035.366L38.579,47.525A.314.314,0,0,1,38.361,47.65Zm-7.355-22c.031,0,.031.065.031.127l-5.323,8.859c0,.092,0,.179.09.179H39.82c.09,0,.09-.088.09-.179l-5.236-8.859c-.029-.031-.041-.053-.034-.067s.068-.025.124-.025l8.784,5.282a.117.117,0,0,0,.083.04c.025,0,.043-.012.043-.024s-.013-.017-.036-.017V16.737c0-.091-.091-.091-.18-.091l-8.694,5.282c-.024.025-.044.037-.058.037s-.023-.013-.028-.04a.616.616,0,0,1,0-.088l5.236-8.86c0-.088,0-.179-.09-.179H25.8c-.09,0-.09.091-.09.179l5.236,8.86c.029.03.041.052.034.066s-.068.025-.125.025l-8.694-5.282h-.009c-.095,0-.168.007-.168.091V30.879c0,.087.086.087.177.087l8.784-5.282C30.974,25.66,30.992,25.648,31.006,25.648Z" transform="translate(0.02 0.399)" fill="#002b45"/>
  </g>
</svg>
