<svg xmlns="http://www.w3.org/2000/svg" width="88.13" height="25.029" viewBox="0 0 88.13 25.029">
  <g id="logo-ixblue" transform="translate(-5.4 -6.4)">
    <path id="Path_632" data-name="Path 632" d="M5.9,13.937h4.737V31.648H5.9ZM25.947,9.7h5.921L25.016,20.293l7.443,11.44H26.454L21.8,24.445,17.15,31.733H11.229l7.443-11.271L11.736,9.7h5.921L21.8,16.225Zm16.917,4.83A7.073,7.073,0,0,1,48.192,16.9a8.594,8.594,0,0,1,2.284,6.186,8.843,8.843,0,0,1-2.368,6.356,7.231,7.231,0,0,1-5.329,2.542,6.242,6.242,0,0,1-4.991-2.458v2.2H33.052V9.7h4.737v6.949a6.515,6.515,0,0,1,5.075-2.119m-5.075,8.729a5.163,5.163,0,0,0,1.184,3.39,3.611,3.611,0,0,0,2.791,1.271,3.917,3.917,0,0,0,2.876-1.271,4.5,4.5,0,0,0,1.184-3.39,4.854,4.854,0,0,0-1.184-3.39,3.6,3.6,0,0,0-2.876-1.356,3.438,3.438,0,0,0-2.791,1.356,4.622,4.622,0,0,0-1.184,3.39M52.083,9.7H56.82V31.648H52.083ZM70.269,23.937V14.785h4.737V31.733H70.269V29.445A5.282,5.282,0,0,1,65.7,31.9a6.512,6.512,0,0,1-4.652-1.78,6.675,6.675,0,0,1-1.861-5.169V14.785h4.737v9.237c0,2.627.93,3.9,2.876,3.9A3.384,3.384,0,0,0,69.254,26.9a4.068,4.068,0,0,0,1.015-2.966m21.992,5.339a9.612,9.612,0,0,1-6.682,2.712,8.808,8.808,0,0,1-6.344-2.373A8.37,8.37,0,0,1,76.7,23.259a8.394,8.394,0,0,1,8.543-8.729,8.614,8.614,0,0,1,5.921,2.119,7.309,7.309,0,0,1,2.453,5.763v2.542H81.265A3.372,3.372,0,0,0,82.7,27.242a4.715,4.715,0,0,0,2.791.847,5.286,5.286,0,0,0,4.06-1.695l2.707,2.881ZM87.694,19.191a3.842,3.842,0,0,0-2.368-.847,3.987,3.987,0,0,0-2.538.847,3.581,3.581,0,0,0-1.353,2.288h7.443a3.76,3.76,0,0,0-1.184-2.288" transform="translate(-0.084 -0.557)" fill="#fff"/>
    <path id="Path_633" data-name="Path 633" d="M10.885,9.143A2.743,2.743,0,1,1,8.143,6.4a2.767,2.767,0,0,1,2.743,2.743" fill="#00b6ed"/>
  </g>
</svg>
