<svg xmlns="http://www.w3.org/2000/svg" width="88.129" height="25.034" viewBox="0 0 88.129 25.034">
  <g id="logo-ixblue" transform="translate(-5.4 -6.4)">
    <path id="Path_577" data-name="Path 577" d="M5.9,13.929h4.736V31.605H5.9ZM25.945,9.7h5.92L25.014,20.272,32.457,31.69h-6L21.8,24.416,17.149,31.69h-5.92l7.443-11.249L11.736,9.7h5.92L21.8,16.212ZM42.86,14.521a7.078,7.078,0,0,1,5.328,2.368,8.568,8.568,0,0,1,2.284,6.174A8.816,8.816,0,0,1,48.1,29.406a7.236,7.236,0,0,1-5.328,2.537,6.246,6.246,0,0,1-4.99-2.453v2.2H33.049V9.7h4.736v6.935a6.52,6.52,0,0,1,5.075-2.114m-5.075,8.711a5.147,5.147,0,0,0,1.184,3.383,3.613,3.613,0,0,0,2.791,1.269,3.92,3.92,0,0,0,2.876-1.269,4.482,4.482,0,0,0,1.184-3.383,4.839,4.839,0,0,0-1.184-3.383A3.6,3.6,0,0,0,41.761,18.5a3.44,3.44,0,0,0-2.791,1.353,4.607,4.607,0,0,0-1.184,3.383M52.079,9.7h4.736V31.605H52.079ZM70.263,23.909V14.775H75V31.69H70.263V29.406A5.284,5.284,0,0,1,65.7,31.859a6.518,6.518,0,0,1-4.652-1.776,6.655,6.655,0,0,1-1.861-5.159V14.775H63.92v9.219c0,2.622.93,3.891,2.876,3.891a3.387,3.387,0,0,0,2.453-1.015,4.055,4.055,0,0,0,1.015-2.96m21.99,5.328a9.62,9.62,0,0,1-6.682,2.706,8.816,8.816,0,0,1-6.343-2.368,8.345,8.345,0,0,1-2.537-6.343,8.345,8.345,0,0,1,2.537-6.343,8.433,8.433,0,0,1,6-2.368,8.623,8.623,0,0,1,5.92,2.114,7.288,7.288,0,0,1,2.453,5.751v2.537H81.258A3.364,3.364,0,0,0,82.7,27.207a4.72,4.72,0,0,0,2.791.846,5.29,5.29,0,0,0,4.06-1.692l2.706,2.876ZM87.686,19.173a3.846,3.846,0,0,0-2.368-.846,3.991,3.991,0,0,0-2.537.846,3.573,3.573,0,0,0-1.353,2.284H88.87a3.75,3.75,0,0,0-1.184-2.284" transform="translate(-0.077 -0.509)" fill="#a5afba"/>
    <path id="Path_578" data-name="Path 578" d="M10.982,9.191A2.791,2.791,0,1,1,8.191,6.4a2.816,2.816,0,0,1,2.791,2.791" fill="#909ba7"/>
  </g>
</svg>
