<svg xmlns="http://www.w3.org/2000/svg" width="154.653" height="30.734" viewBox="0 0 154.653 30.734">
  <g id="MAN_Logo_Short_Dark" transform="translate(-41.528 -25)">
    <path id="Path_19" data-name="Path 19" d="M14.207,45.827H10.386v7.909h4.1V50.611l2.438,2.438,2.407-2.438v3.125h4.1V45.827H19.616l-2.7,2.735Zm18.44,4.928H30.332l1.188-1.834Zm1.024-4.928H29.338l-5.122,7.909h4.221l.574-.881h5.061l.574.881h4.149ZM31.51,25A25.99,25.99,0,0,0,5.673,53.735H8.388a23.562,23.562,0,0,1-.164-2.766,23.275,23.275,0,1,1,46.386,2.766h2.725A25.98,25.98,0,0,0,31.51,25m12.1,20.827h-4.1v7.909h4.1V50.17l4.825,3.565h4.1V45.827h-4.1v3.606Z" transform="translate(36 0)" fill="#a5afba"/>
    <path id="Path_23" data-name="Path 23" d="M97.77,45.33H104.1v2.018h-3.975v.994h3.606v1.875h-3.606v.994h4.1v2.018H97.77Z" transform="translate(1.374 0.497)" fill="#a5afba"/>
    <path id="Path_24" data-name="Path 24" d="M105.391,47.444h2.11v.727h0a2.31,2.31,0,0,1,3.206-.4,1.854,1.854,0,0,1,.563,1.465v3.9h-2.121V50.169a2.049,2.049,0,0,0-.123-.82c-.092-.2-.3-.307-.635-.307a.922.922,0,0,0-.594.2.85.85,0,0,0-.236.328,1.619,1.619,0,0,0-.092.574v3.073H105.35Z" transform="translate(1.559 0.545)" fill="#a5afba"/>
    <path id="Path_25" data-name="Path 25" d="M114.048,50.8a1.4,1.4,0,0,0,.328.8.953.953,0,0,0,.789.328,1.311,1.311,0,0,0,.533-.113.758.758,0,0,0,.379-.3h2.049a2.52,2.52,0,0,1-1.137,1.373,3.575,3.575,0,0,1-1.783.441,3.309,3.309,0,0,1-2.264-.789,2.766,2.766,0,0,1-.922-2.213,3.073,3.073,0,0,1,.83-2.162,2.93,2.93,0,0,1,2.223-.871q3.258,0,3.227,3.5Zm2.172-1.137a1.024,1.024,0,0,0-.277-.686.953.953,0,0,0-.717-.277,1.024,1.024,0,0,0-1.168.963Z" transform="translate(1.722 0.545)" fill="#a5afba"/>
    <path id="Path_26" data-name="Path 26" d="M119.19,47.443h2.049v.922h0a2.11,2.11,0,0,1,.635-.8,1.537,1.537,0,0,1,.932-.266,2.264,2.264,0,0,1,.625.082v1.936a2.049,2.049,0,0,0-.338-.113,2.99,2.99,0,0,0-.5,0q-1.281,0-1.291,1.731v2.2H119.18Z" transform="translate(1.897 0.545)" fill="#a5afba"/>
    <path id="Path_27" data-name="Path 27" d="M129.967,52.453a5.966,5.966,0,0,1-.072.891,2.264,2.264,0,0,1-.389.891,1.946,1.946,0,0,1-.871.656,3.8,3.8,0,0,1-1.557.3,4.21,4.21,0,0,1-1.864-.389,1.854,1.854,0,0,1-1.024-1.526h2.049l.123.195a1.086,1.086,0,0,0,.266.277.594.594,0,0,0,.359.143.727.727,0,0,0,.43-.143,1.107,1.107,0,0,0,.256-.338,2.632,2.632,0,0,0,.143-.83v-.533h0a1.793,1.793,0,0,1-1.537.8,2.172,2.172,0,0,1-1.844-.83,3.155,3.155,0,0,1-.615-1.967,2.93,2.93,0,0,1,.645-1.936,2.274,2.274,0,0,1,1.844-.809,2.2,2.2,0,0,1,.912.184,1.25,1.25,0,0,1,.594.656h0v-.7h2.121Zm-4.016-2.387a2.316,2.316,0,0,0,.051.492,1.362,1.362,0,0,0,.154.451.83.83,0,0,0,.809.471.82.82,0,0,0,.5-.143.666.666,0,0,0,.277-.338,2.52,2.52,0,0,0,.154-.942,1.27,1.27,0,0,0-.246-.809.912.912,0,0,0-.748-.328.871.871,0,0,0-.727.338,1.332,1.332,0,0,0-.246.809" transform="translate(2.011 0.545)" fill="#a5afba"/>
    <path id="Path_28" data-name="Path 28" d="M134.827,52.735c-.072.256-.174.533-.277.82a3.7,3.7,0,0,1-.42.768,1.742,1.742,0,0,1-1.024.625,6.71,6.71,0,0,1-1.219.082h-.963V53.288h.871a.952.952,0,0,0,.307,0,.369.369,0,0,0,.164-.154.666.666,0,0,0,0-.277,2.119,2.119,0,0,0-.123-.512l-.307-.84q-.379-1.024-.533-1.373l-.953-2.643h2.274l.891,3.288h0l.9-3.288h2.192Z" transform="translate(2.17 0.55)" fill="#a5afba"/>
    <path id="Path_29" data-name="Path 29" d="M142.637,50.581a1.465,1.465,0,0,0,.082.522.789.789,0,0,0,.512.451,2.11,2.11,0,0,0,.7.123,1.608,1.608,0,0,0,.676-.143.594.594,0,0,0,.359-.574.512.512,0,0,0-.338-.471,9.6,9.6,0,0,0-1.373-.43q-.471-.133-.932-.287a3.821,3.821,0,0,1-.861-.4,1.926,1.926,0,0,1-.635-.645,1.66,1.66,0,0,1-.256-.963,2.264,2.264,0,0,1,.963-2.049,3.688,3.688,0,0,1,2.121-.615,4.1,4.1,0,0,1,2.213.553,2.428,2.428,0,0,1,1.024,2.049h-2.233a.594.594,0,0,0-.277-.625,1.3,1.3,0,0,0-.7-.195,1.629,1.629,0,0,0-.543.092.584.584,0,0,0-.215.154.41.41,0,0,0-.092.277.441.441,0,0,0,.225.328,1.834,1.834,0,0,0,.5.256q.656.195,1.5.41a6.946,6.946,0,0,1,.85.277,2.756,2.756,0,0,1,.727.42,1.957,1.957,0,0,1,.533.645,2.3,2.3,0,0,1,.174.942,2.274,2.274,0,0,1-1.2,2.141,4.876,4.876,0,0,1-2.469.594,5.122,5.122,0,0,1-.9-.1,4.149,4.149,0,0,1-1.137-.389,2.612,2.612,0,0,1-.963-.861,2.643,2.643,0,0,1-.43-1.5Z" transform="translate(2.412 0.491)" fill="#a5afba"/>
    <path id="Path_30" data-name="Path 30" d="M154,50.313a3.073,3.073,0,0,1-.748,2.049,3.452,3.452,0,0,1-4.692,0,3.309,3.309,0,0,1,0-4.21,3.5,3.5,0,0,1,4.692,0,3.073,3.073,0,0,1,.748,2.11m-2.121,0V49.77a1.352,1.352,0,0,0-.143-.451.891.891,0,0,0-.287-.348,1.024,1.024,0,0,0-.533-.123.871.871,0,0,0-.492.123.83.83,0,0,0-.307.348,2.325,2.325,0,0,0-.174.953,2.572,2.572,0,0,0,0,.461,1.823,1.823,0,0,0,.133.471.778.778,0,0,0,.307.348.768.768,0,0,0,.492.143.891.891,0,0,0,.533-.143.83.83,0,0,0,.287-.348,2.427,2.427,0,0,0,.164-.932" transform="translate(2.597 0.544)" fill="#a5afba"/>
    <rect id="Rectangle_69" data-name="Rectangle 69" width="2.121" height="7.898" transform="translate(157.721 45.827)" fill="#a5afba"/>
    <path id="Path_31" data-name="Path 31" d="M164.219,53.137H162.17v-.727h0a2.269,2.269,0,0,1-3.186.389,1.834,1.834,0,0,1-.594-1.465V47.441h2.121v3.012a1.915,1.915,0,0,0,.133.809.6.6,0,0,0,.625.318.953.953,0,0,0,.615-.225.83.83,0,0,0,.236-.338,1.824,1.824,0,0,0,.072-.543V47.4h2.121Z" transform="translate(2.855 0.547)" fill="#a5afba"/>
    <path id="Path_32" data-name="Path 32" d="M167.933,47.482H169.1v1.352h-1.137v2.049a.871.871,0,0,0,.133.574.6.6,0,0,0,.522.195,3.617,3.617,0,0,0,.482,0v1.526l-1.363.061a4.1,4.1,0,0,1-.666-.051,2.05,2.05,0,0,1-.615-.225,1.219,1.219,0,0,1-.44-.512,1.947,1.947,0,0,1-.184-.912V48.824h-.953V47.482h.953V45.74h2.121Z" transform="translate(3.014 0.507)" fill="#a5afba"/>
    <path id="Path_33" data-name="Path 33" d="M172.131,46.867H170V45.33h2.121Zm-2.121.625h2.121v5.7H170Z" transform="translate(3.139 0.497)" fill="#a5afba"/>
    <path id="Path_34" data-name="Path 34" d="M179.268,50.313a3.073,3.073,0,0,1-.748,2.049,3.452,3.452,0,0,1-4.692,0,3.319,3.319,0,0,1,0-4.21,3.5,3.5,0,0,1,4.692,0,3.073,3.073,0,0,1,.748,2.11m-2.121,0V49.77a1.332,1.332,0,0,0-.143-.451.891.891,0,0,0-.287-.348,1.024,1.024,0,0,0-.533-.123.881.881,0,0,0-.492.123.84.84,0,0,0-.307.348,2.305,2.305,0,0,0-.174.953,2.489,2.489,0,0,0,0,.461,1.792,1.792,0,0,0,.133.471.789.789,0,0,0,.307.348.779.779,0,0,0,.492.143.891.891,0,0,0,.533-.143.83.83,0,0,0,.287-.348,2.428,2.428,0,0,0,.164-.932" transform="translate(3.214 0.544)" fill="#a5afba"/>
    <path id="Path_35" data-name="Path 35" d="M180.191,47.444h2.11v.727h0a2.31,2.31,0,0,1,3.206-.4,1.865,1.865,0,0,1,.563,1.465v3.9h-2.121V50.169a2.048,2.048,0,0,0-.123-.82c-.092-.2-.3-.307-.635-.307a.922.922,0,0,0-.594.2.84.84,0,0,0-.236.328,1.619,1.619,0,0,0-.092.574v3.073H180.15Z" transform="translate(3.387 0.545)" fill="#a5afba"/>
    <path id="Path_36" data-name="Path 36" d="M190.536,49.113a.533.533,0,0,0-.246-.43.84.84,0,0,0-.522-.174,1.414,1.414,0,0,0-.471.072.359.359,0,0,0-.236.369.2.2,0,0,0,.092.174.717.717,0,0,0,.174.123,2.264,2.264,0,0,0,.379.082l.471.092a7.991,7.991,0,0,1,1.117.266,2.151,2.151,0,0,1,.932.533,1.229,1.229,0,0,1,.307.441,1.906,1.906,0,0,1,.092.635,1.721,1.721,0,0,1-.246.973,1.834,1.834,0,0,1-.666.635,4.333,4.333,0,0,1-1.967.42,3.924,3.924,0,0,1-1.905-.461,1.793,1.793,0,0,1-.932-1.557h2.049a.717.717,0,0,0,.266.5.85.85,0,0,0,.584.164,1.291,1.291,0,0,0,.481-.1.369.369,0,0,0,.256-.338.379.379,0,0,0-.215-.369,4.2,4.2,0,0,0-1.024-.246,4.026,4.026,0,0,1-1.793-.656,1.383,1.383,0,0,1-.553-1.147,1.5,1.5,0,0,1,.256-.9,1.6,1.6,0,0,1,.656-.553,2.869,2.869,0,0,1,.871-.287,5.317,5.317,0,0,1,.881-.072,4.446,4.446,0,0,1,1.823.338,1.619,1.619,0,0,1,.656.553,1.711,1.711,0,0,1,.277.922Z" transform="translate(3.552 0.545)" fill="#a5afba"/>
  </g>
</svg>
