<svg xmlns="http://www.w3.org/2000/svg" width="154.65" height="30.729" viewBox="0 0 154.65 30.729">
  <g id="MAN_Logo_Full_White" transform="translate(-35.06 1)">
    <path id="Path_597" data-name="Path 597" d="M11.739,23.814H7.923v7.938h4.086V28.6l2.444,2.445L16.9,28.6v3.128h4.086V23.791h-3.84l-2.7,2.7Zm18.477,4.93h-2.38l1.182-1.834Zm.984-4.93H26.876l-5.149,7.938h4.221l.571-.889h5.054l.571.889h4.189ZM29.042,3A26,26,0,0,0,3.2,31.729H5.924a23.631,23.631,0,0,1-.167-2.77,23.277,23.277,0,1,1,46.395,2.771h2.721A25.992,25.992,0,0,0,29.042,3m12.1,20.814H37.126v7.938h4.086V28.181l4.824,3.572h4.086V23.814H46v3.6Z" transform="translate(32 -4)" fill="#fff"/>
    <g id="Group_232" data-name="Group 232" transform="translate(92.222 19.595)">
      <path id="Path_601" data-name="Path 601" d="M44.07,49.18h6.363v2.031h-4V52.2H50.06v1.888H46.434v.992h4.117v2.031H44.07Z" transform="translate(-44.07 -48.987)" fill="#e40045"/>
      <path id="Path_602" data-name="Path 602" d="M54,51.872h2.118v.73h0a2.094,2.094,0,0,1,1.849-.873,2.007,2.007,0,0,1,1.341.476,1.864,1.864,0,0,1,.563,1.476v3.967H57.76V54.616a2.1,2.1,0,0,0-.119-.793c-.1-.206-.3-.309-.635-.309a.928.928,0,0,0-.6.2.857.857,0,0,0-.23.333,1.626,1.626,0,0,0-.087.579v3.046H54Z" transform="translate(-46.122 -49.513)" fill="#e40045"/>
      <path id="Path_603" data-name="Path 603" d="M64.666,55.25a1.412,1.412,0,0,0,.333.793.96.96,0,0,0,.793.325,1.317,1.317,0,0,0,.539-.111.793.793,0,0,0,.389-.3h2.063a2.531,2.531,0,0,1-1.142,1.38,3.594,3.594,0,0,1-1.793.444,3.332,3.332,0,0,1-2.269-.793,2.785,2.785,0,0,1-.92-2.221,3.078,3.078,0,0,1,.793-2.174,2.951,2.951,0,0,1,2.182-.873q3.277.04,3.245,3.522Zm2.182-1.142a1.016,1.016,0,0,0-.278-.69.96.96,0,0,0-.722-.278,1.063,1.063,0,0,0-1.174.968Z" transform="translate(-47.911 -49.512)" fill="#e40045"/>
      <path id="Path_604" data-name="Path 604" d="M71.86,51.873h2.047v.92h0A2.126,2.126,0,0,1,74.542,52a1.587,1.587,0,0,1,.936-.27,2.269,2.269,0,0,1,.627.087v1.944a2.088,2.088,0,0,0-.333-.111,3,3,0,0,0-.508,0q-1.285,0-1.293,1.737v2.277H71.86Z" transform="translate(-49.813 -49.514)" fill="#e40045"/>
      <path id="Path_605" data-name="Path 605" d="M84.058,56.9a6,6,0,0,1-.071.9,2.269,2.269,0,0,1-.389.9,1.96,1.96,0,0,1-.873.658,3.816,3.816,0,0,1-1.587.294,4.229,4.229,0,0,1-1.872-.389,1.864,1.864,0,0,1-1.047-1.531h2.15a2.166,2.166,0,0,0,.119.2,1.1,1.1,0,0,0,.27.278.6.6,0,0,0,.357.143.73.73,0,0,0,.428-.151,1.111,1.111,0,0,0,.254-.341,2.65,2.65,0,0,0,.159-.825V56.5h0a1.8,1.8,0,0,1-1.539.793,2.174,2.174,0,0,1-1.856-.833,3.173,3.173,0,0,1-.611-1.983,2.943,2.943,0,0,1,.643-1.944,2.285,2.285,0,0,1,1.856-.793,2.213,2.213,0,0,1,.912.182,1.253,1.253,0,0,1,.6.658h0v-.7h2.126ZM80.02,54.476a2.324,2.324,0,0,0,.056.492,1.373,1.373,0,0,0,.159.46.841.841,0,0,0,.793.468.793.793,0,0,0,.508-.143.674.674,0,0,0,.278-.341,2.531,2.531,0,0,0,.143-.944,1.277,1.277,0,0,0-.246-.793.912.912,0,0,0-.754-.325.881.881,0,0,0-.73.333,1.341,1.341,0,0,0-.246.793" transform="translate(-51.071 -49.515)" fill="#e40045"/>
      <path id="Path_606" data-name="Path 606" d="M90.837,57.237a7.868,7.868,0,0,1-.278.793,3.713,3.713,0,0,1-.42.793,1.745,1.745,0,0,1-1.023.627,6.735,6.735,0,0,1-1.222.087h-.968V57.793H87.8a.96.96,0,0,0,.3-.04.373.373,0,0,0,.159-.151.667.667,0,0,0,.048-.286,2.134,2.134,0,0,0-.127-.508q-.135-.373-.309-.841-.381-1.015-.539-1.38l-.96-2.658h2.285l.9,3.308h0l.912-3.308h2.205Z" transform="translate(-52.811 -49.555)" fill="#e40045"/>
      <path id="Path_607" data-name="Path 607" d="M101.6,54.4a1.468,1.468,0,0,0,.087.524.793.793,0,0,0,.508.46,2.118,2.118,0,0,0,.7.119,1.587,1.587,0,0,0,.682-.143.6.6,0,0,0,.357-.579.516.516,0,0,0-.333-.476,9.648,9.648,0,0,0-1.38-.436q-.476-.127-.936-.286a3.84,3.84,0,0,1-.865-.4,1.936,1.936,0,0,1-.635-.651,1.674,1.674,0,0,1-.254-.968,2.277,2.277,0,0,1,.968-2.007,3.7,3.7,0,0,1,2.134-.611,4.141,4.141,0,0,1,2.221.555,2.443,2.443,0,0,1,.992,2.031H103.6a.6.6,0,0,0-.278-.635,1.309,1.309,0,0,0-.7-.2,1.642,1.642,0,0,0-.539.1.587.587,0,0,0-.214.159.4.4,0,0,0-.1.278.436.436,0,0,0,.23.333,1.848,1.848,0,0,0,.508.254q.658.2,1.5.413a6.982,6.982,0,0,1,.857.278,2.777,2.777,0,0,1,.73.42,1.968,1.968,0,0,1,.532.643,2.316,2.316,0,0,1,.182.944,2.285,2.285,0,0,1-1.142,2.134,4.895,4.895,0,0,1-2.475.6,5.188,5.188,0,0,1-.9-.1,4.173,4.173,0,0,1-1.142-.389,2.626,2.626,0,0,1-.968-.865,2.658,2.658,0,0,1-.436-1.5Z" transform="translate(-55.471 -48.937)" fill="#e40045"/>
      <path id="Path_608" data-name="Path 608" d="M115.208,54.762a3.173,3.173,0,0,1-.754,2.11,3.475,3.475,0,0,1-4.712,0,3.324,3.324,0,0,1,0-4.229,3.515,3.515,0,0,1,4.712,0,3.173,3.173,0,0,1,.754,2.118m-2.126,0V54.27a1.357,1.357,0,0,0-.143-.46.9.9,0,0,0-.286-.357,1.023,1.023,0,0,0-.532-.127.881.881,0,0,0-.5.127.833.833,0,0,0-.309.357,2.332,2.332,0,0,0-.175.952,2.578,2.578,0,0,0,.048.468,1.841,1.841,0,0,0,.127.468.906.906,0,0,0,.809.5.9.9,0,0,0,.532-.151.841.841,0,0,0,.286-.349,2.444,2.444,0,0,0,.167-.936" transform="translate(-57.485 -49.515)" fill="#e40045"/>
      <rect id="Rectangle_231" data-name="Rectangle 231" width="2.126" height="7.933" transform="translate(58.858 0.193)" fill="#e40045"/>
      <path id="Path_609" data-name="Path 609" d="M128.562,57.678h-2.094v-.73h0a2.087,2.087,0,0,1-1.856.881,2.015,2.015,0,0,1-1.349-.484,1.841,1.841,0,0,1-.6-1.468V51.91h2.126v3.031a1.92,1.92,0,0,0,.127.793.6.6,0,0,0,.627.317.952.952,0,0,0,.619-.222.793.793,0,0,0,.23-.341,1.833,1.833,0,0,0,.071-.547V51.91h2.126Z" transform="translate(-60.31 -49.551)" fill="#e40045"/>
      <path id="Path_610" data-name="Path 610" d="M134.2,51.453h1.142V52.81H134.2v2.023a.88.88,0,0,0,.135.579.611.611,0,0,0,.524.19,3.633,3.633,0,0,0,.484,0v1.658l-1.365.063a4.15,4.15,0,0,1-.666-.056,2.094,2.094,0,0,1-.611-.222,1.222,1.222,0,0,1-.444-.516,1.96,1.96,0,0,1-.182-.92v-2.8h-.952V51.453h.952V49.7H134.2Z" transform="translate(-62.059 -49.095)" fill="#e40045"/>
      <path id="Path_611" data-name="Path 611" d="M139.936,50.719H137.81V49.18h2.126Zm-2.126.627h2.126v5.768H137.81Z" transform="translate(-63.442 -48.987)" fill="#e40045"/>
      <path id="Path_612" data-name="Path 612" d="M148,54.762a3.173,3.173,0,0,1-.754,2.11,3.475,3.475,0,0,1-4.712,0,3.332,3.332,0,0,1,0-4.229,3.515,3.515,0,0,1,4.712,0A3.126,3.126,0,0,1,148,54.762m-2.126,0V54.27a1.333,1.333,0,0,0-.143-.46.9.9,0,0,0-.286-.357,1.023,1.023,0,0,0-.532-.127.889.889,0,0,0-.5.127.841.841,0,0,0-.309.357,2.317,2.317,0,0,0-.175.952,2.5,2.5,0,0,0,.048.468,1.8,1.8,0,0,0,.127.468.906.906,0,0,0,.809.5.9.9,0,0,0,.532-.151.841.841,0,0,0,.286-.349,2.444,2.444,0,0,0,.167-.936" transform="translate(-64.261 -49.515)" fill="#e40045"/>
      <path id="Path_613" data-name="Path 613" d="M151,51.871h2.118v.73h0a2.094,2.094,0,0,1,1.872-.873,2.015,2.015,0,0,1,1.349.476,1.872,1.872,0,0,1,.563,1.476v3.967h-2.126V54.616a2.086,2.086,0,0,0-.119-.793c-.087-.206-.3-.309-.635-.309a.928.928,0,0,0-.6.2.841.841,0,0,0-.23.333,1.587,1.587,0,0,0-.087.579V57.67H151Z" transform="translate(-66.167 -49.512)" fill="#e40045"/>
      <path id="Path_614" data-name="Path 614" d="M163.369,53.518a.532.532,0,0,0-.246-.436.841.841,0,0,0-.524-.175,1.412,1.412,0,0,0-.476.079.357.357,0,0,0-.238.373.206.206,0,0,0,.087.175.714.714,0,0,0,.175.127,2.277,2.277,0,0,0,.381.087l.476.1a8.028,8.028,0,0,1,1.119.27,2.158,2.158,0,0,1,.936.532,1.238,1.238,0,0,1,.3.444,1.92,1.92,0,0,1,.1.635,1.729,1.729,0,0,1-.254.976,1.848,1.848,0,0,1-.666.635,4.348,4.348,0,0,1-1.975.42,3.967,3.967,0,0,1-1.912-.468,1.8,1.8,0,0,1-.928-1.587h2.094a.722.722,0,0,0,.262.508.857.857,0,0,0,.6.167,1.3,1.3,0,0,0,.484-.1.365.365,0,0,0,.254-.341.381.381,0,0,0-.214-.365,4.221,4.221,0,0,0-1-.246,4.046,4.046,0,0,1-1.8-.658,1.388,1.388,0,0,1-.555-1.158,1.5,1.5,0,0,1,.262-.9,1.586,1.586,0,0,1,.658-.563,2.88,2.88,0,0,1,.881-.286,5.347,5.347,0,0,1,.889-.079,4.467,4.467,0,0,1,1.833.341,1.587,1.587,0,0,1,.658.555,1.714,1.714,0,0,1,.278.928Z" transform="translate(-67.969 -49.501)" fill="#e40045"/>
    </g>
  </g>
</svg>
