<svg xmlns="http://www.w3.org/2000/svg" width="154.65" height="36.44" viewBox="0 0 154.65 36.44">
  <g id="svgexport-0" transform="translate(-0.056 0.004)">
    <path id="Path_669" data-name="Path 669" d="M209.788,66.723V57.536l1.865,4.776h1.978l1.887-4.753v9.164h2.843V51.1h-3.07l-2.683,6.5-2.683-6.5H206.9V66.723Z" transform="translate(-159.474 -39.349)"/>
    <g id="Group_229" data-name="Group 229" transform="translate(61.412 11.638)">
      <path id="Path_670" data-name="Path 670" d="M274.527,61.993a1.825,1.825,0,0,1-.2.887,1.24,1.24,0,0,1-.5.523,2.681,2.681,0,0,1-.569.227,2.2,2.2,0,0,1-.523.068,2.752,2.752,0,0,1-.432-.023,2.8,2.8,0,0,1-.5-.136,1.635,1.635,0,0,1-.478-.273,1.213,1.213,0,0,1-.341-.5,1.844,1.844,0,0,1-.136-.75V55.057a1.735,1.735,0,0,1,.2-.864,1.111,1.111,0,0,1,.523-.5,1.835,1.835,0,0,1,.591-.2,2.291,2.291,0,0,1,.569-.068,2.471,2.471,0,0,1,.409.023,2.619,2.619,0,0,1,.478.136,1.514,1.514,0,0,1,.455.273,1.29,1.29,0,0,1,.341.478,1.807,1.807,0,0,1,.136.728v6.936Zm2.888.023V55.034a4.23,4.23,0,0,0-.136-1.023,4.821,4.821,0,0,0-.478-1.16,5.059,5.059,0,0,0-.864-1.114,4.344,4.344,0,0,0-1.364-.819,5.437,5.437,0,0,0-1.865-.318,5.741,5.741,0,0,0-1.933.318,3.638,3.638,0,0,0-1.364.819,4.11,4.11,0,0,0-.841,1.114,4.692,4.692,0,0,0-.455,1.16A4.148,4.148,0,0,0,268,55.034v6.981a4.409,4.409,0,0,0,.136,1.046,4.957,4.957,0,0,0,.478,1.183,5.264,5.264,0,0,0,.841,1.137,4.1,4.1,0,0,0,1.342.841,4.984,4.984,0,0,0,1.887.341,5.1,5.1,0,0,0,1.91-.341,4.344,4.344,0,0,0,1.364-.819,4.493,4.493,0,0,0,.841-1.114,4.313,4.313,0,0,0,.455-1.183,4.078,4.078,0,0,0,.159-1.092" transform="translate(-268 -50.6)"/>
    </g>
    <path id="Path_671" data-name="Path 671" d="M328.21,66.723V63.9h-5.867V51.1H319.5V66.723Z" transform="translate(-246.297 -39.349)"/>
    <path id="Path_672" data-name="Path 672" d="M424.71,66.123V63.3h-5.867V50.5H416V66.123Z" transform="translate(-320.701 -38.887)"/>
    <g id="Group_230" data-name="Group 230" transform="translate(82.889 11.638)">
      <path id="Path_673" data-name="Path 673" d="M363.062,65.131a4.574,4.574,0,0,0,3.479,1.387,5.066,5.066,0,0,0,3.5-1.273,4.306,4.306,0,0,0,1.5-3.229,4.8,4.8,0,0,0-.728-2.479,4.856,4.856,0,0,0-1.887-1.751c-.023,0-1.069-.546-3.184-1.637a1.427,1.427,0,0,1-.91-1.273,1.318,1.318,0,0,1,.5-1.092,1.911,1.911,0,0,1,1.251-.387,1.765,1.765,0,0,1,1.342.546,2.055,2.055,0,0,1,.523,1.478h2.865A4.716,4.716,0,0,0,370,51.964a4.557,4.557,0,0,0-3.411-1.364,4.62,4.62,0,0,0-3.3,1.183,3.967,3.967,0,0,0-1.273,3.07,4.093,4.093,0,0,0,.637,2.229,3.789,3.789,0,0,0,1.615,1.5c1.956.978,3.07,1.569,3.388,1.751a1.857,1.857,0,0,1,1.069,1.637,1.542,1.542,0,0,1-.591,1.251,2.371,2.371,0,0,1-1.546.478,1.92,1.92,0,0,1-1.41-.546,2.1,2.1,0,0,1-.546-1.546h-2.843a4.7,4.7,0,0,0,1.273,3.525" transform="translate(-361.786 -50.6)"/>
    </g>
    <rect id="Rectangle_233" data-name="Rectangle 233" width="2.865" height="15.623" transform="translate(105.827 11.751)"/>
    <path id="Path_674" data-name="Path 674" d="M488.965,66.723V58.081l3.684,8.641h2.934V51.1h-2.82v8.823L488.988,51.1H486.1V66.723Z" transform="translate(-374.745 -39.349)"/>
    <path id="Path_675" data-name="Path 675" d="M85.39,52.611A18.93,18.93,0,0,0,87.3,38.148,18.582,18.582,0,0,0,85.435,33.6a.137.137,0,0,1,.023.091c.023.091.068.182.091.25.023.045.023.091.045.136.023.068.045.136.068.227.023.045.023.114.045.159l.068.2c.023.045.023.114.045.159a.664.664,0,0,1,.045.2c.023.045.023.114.045.159.023.068.023.136.045.2.023.045.023.114.045.159.023.068.023.136.045.227,0,.045.023.114.023.159.023.068.023.159.045.25,0,.045.023.091.023.136.023.114.045.25.068.364a.2.2,0,0,0,.023.114c.023.091.023.182.045.273a.387.387,0,0,0,.023.159c0,.068.023.159.023.227a.5.5,0,0,0,.023.182.63.63,0,0,0,.023.2v1.728c0,.136-.023.25-.023.387v.114c0,.091-.023.182-.023.273,0,.045-.023.114-.023.159,0,.068-.023.159-.023.227,0,.045-.023.114-.023.159,0,.068-.023.136-.023.227,0,.068-.023.114-.023.182-.023.068-.023.136-.045.2,0,.068-.023.114-.023.182-.023.068-.023.136-.045.227-.023.045-.023.114-.045.159-.023.068-.023.159-.045.227-.023.045-.023.114-.045.159-.023.091-.045.159-.068.25-.023.045-.023.091-.045.136-.045.136-.068.25-.114.387,0,.023-.023.045-.023.068-.023.114-.068.2-.091.318-.023.045-.023.091-.045.136a1.108,1.108,0,0,1-.091.25c-.023.045-.045.114-.068.159a.951.951,0,0,1-.091.227c-.023.045-.045.114-.068.159a2.358,2.358,0,0,0-.091.227c-.023.045-.045.114-.068.159a2.36,2.36,0,0,0-.091.227c-.023.045-.045.114-.068.159-.045.068-.068.159-.114.227l-.068.136c-.045.091-.091.159-.136.25a.5.5,0,0,1-.068.114c-.068.114-.136.25-.2.364-.136.227-.273.432-.409.659-.023.045-.068.091-.091.136-.023.023-.045.068-.068.091l-.045.068a3.859,3.859,0,0,1-.227.318c-.045.068-.091.114-.136.182l-.136.182a1.735,1.735,0,0,0-.182.25,1.139,1.139,0,0,1-.159.182l-.159.182c-.045.045-.068.091-.114.136l-.068.068c-.068.068-.114.136-.182.2l-.136.159a1.372,1.372,0,0,1-.182.182l-.2.2-.136.136-.159.159c-.091.068-.159.159-.25.227l-.136.114c-.045.045-.114.091-.159.136a3.343,3.343,0,0,1-.3.227l-.114.091a.408.408,0,0,1-.159.114,3.856,3.856,0,0,1-.318.227l-.136.091c-.045.023-.091.068-.136.091a2.963,2.963,0,0,1-.341.227l-.136.091a.476.476,0,0,0-.136.091c-.136.091-.273.159-.432.25l-.068.045-.136.068c-.159.091-.3.159-.455.25l-.068.045c-.045.023-.068.045-.114.045-.159.068-.318.159-.478.227l-.068.023c-.023.023-.068.023-.091.045-.045.023-.068.023-.114.045s-.068.023-.114.045h0c-.045.023-.068.023-.114.045h-.023a.323.323,0,0,1-.136.045l-.045.023c-.023.023-.068.023-.091.045-.159.068-.318.114-.546.2l-.045.023c-.023,0-.068.023-.091.023-.159.045-.341.114-.569.182h-.045c-.023,0-.045.023-.068.023-.182.045-.364.091-.591.159l-.091.023c-.091.023-.2.045-.318.068h0c-.091.023-.182.045-.3.068h0l-.068.023a1.331,1.331,0,0,1-.3.045H73.61c-.091.023-.182.023-.3.045h-.045l-.682.068h-.045c-.227.023-.455.045-.682.045H70.585c-.136,0-.25-.023-.387-.023h-.091c-.114,0-.227-.023-.341-.023a.205.205,0,0,1-.114-.023c-.114-.023-.227-.023-.341-.045a.985.985,0,0,1-.114-.023c-.114-.023-.2-.023-.318-.045-.045,0-.091-.023-.136-.023a1.536,1.536,0,0,0-.318-.045c-.045,0-.091-.023-.136-.023-.091-.023-.2-.045-.3-.068a.578.578,0,0,1-.159-.045c-.091-.023-.182-.045-.3-.068-.045-.023-.114-.023-.159-.045l-.273-.068c-.045-.023-.114-.023-.159-.045a1.282,1.282,0,0,1-.273-.091.535.535,0,0,0-.182-.045,1.109,1.109,0,0,1-.25-.091c-.068-.023-.114-.045-.182-.068-.091-.023-.159-.068-.25-.091-.068-.023-.114-.045-.182-.068s-.159-.068-.227-.091-.114-.045-.182-.068-.159-.068-.227-.091a.681.681,0,0,1-.182-.091c-.068-.045-.159-.068-.227-.114-.068-.023-.114-.068-.182-.091a9.292,9.292,0,0,0,9.437,8.55,9.045,9.045,0,0,0,4.389-1.205l.227-.136a18.186,18.186,0,0,0,6.936-6.89" transform="translate(-49.712 -25.726)"/>
    <path id="Path_676" data-name="Path 676" d="M69.194,36.8h0l-.182-.068A9.325,9.325,0,0,0,64.6,44.416l.091.045a14.41,14.41,0,0,0,6.64,1.706h.682a5.993,5.993,0,0,0,.637-.045h.023l.637-.068h.045c.2-.023.409-.068.614-.091l.068-.023c.2-.045.387-.068.591-.114h.023a.084.084,0,0,0,.068-.023c.2-.045.387-.091.569-.136l.091-.023c.2-.068.387-.114.546-.159.023,0,.045-.023.068-.023l.045-.023c.2-.068.364-.136.523-.182.023,0,.045-.023.068-.023l.068-.023.478-.2c.023,0,.045-.023.068-.045l.068-.023c.159-.068.3-.136.455-.2.023-.023.068-.023.091-.045l.068-.045a3.952,3.952,0,0,0,.432-.227c.045-.023.068-.045.114-.068l.068-.045c.136-.068.273-.159.409-.227.045-.023.068-.045.114-.068l.136-.091c.114-.068.227-.136.318-.2a.4.4,0,0,0,.114-.091l.136-.114c.091-.068.2-.136.3-.2.045-.045.091-.068.136-.114l.136-.114a2.408,2.408,0,0,0,.273-.227l.136-.136.136-.114c.068-.068.159-.136.227-.2a.989.989,0,0,1,.159-.136l.159-.136a1.471,1.471,0,0,1,.2-.182l.159-.159.159-.159c.045-.068.114-.114.159-.182s.114-.114.159-.182l.159-.2c.045-.045.091-.114.136-.159.068-.068.114-.159.182-.227l.136-.182A.963.963,0,0,0,83,40.323c.068-.091.136-.2.2-.3l.045-.068c.023-.023.045-.068.068-.091.023-.045.045-.068.068-.114.136-.2.25-.409.387-.614h0a14.262,14.262,0,0,0-.136-14.44,10.173,10.173,0,0,1-.887,8.209A10.337,10.337,0,0,1,69.194,36.8" transform="translate(-49.867 -18.996)"/>
    <path id="Path_677" data-name="Path 677" d="M18.258,36.3h-.023c-.136-.023-.273-.069-.409-.092-.045-.023-.091-.023-.136-.046a1.464,1.464,0,0,1-.3-.092c-.045-.023-.114-.023-.159-.046-.091-.023-.182-.069-.3-.092a1.441,1.441,0,0,0-.159-.046c-.091-.046-.2-.069-.3-.114-.045-.023-.091-.023-.114-.046-.3-.114-.569-.229-.841-.343-.045-.023-.068-.046-.114-.046-.091-.046-.2-.092-.3-.137l-.136-.069-.273-.137-.136-.069c-.091-.046-.2-.114-.3-.16-.045-.023-.068-.046-.114-.069-.273-.16-.523-.32-.8-.481-.045-.023-.068-.046-.114-.069-.091-.069-.182-.114-.273-.183a.5.5,0,0,1-.114-.092,2.383,2.383,0,0,1-.25-.183A.5.5,0,0,1,12.5,33.6l-.273-.206c-.023-.023-.068-.046-.091-.069a9.1,9.1,0,0,1-.7-.618l-.091-.092c-.091-.069-.159-.16-.25-.229l-.114-.114-.227-.229-.114-.114c-.068-.092-.159-.16-.227-.252-.023-.046-.068-.069-.091-.114-.2-.229-.409-.481-.614-.732-.023-.046-.068-.069-.091-.114l-.2-.275c-.023-.046-.068-.092-.091-.137-.068-.092-.114-.16-.182-.252-.023-.046-.068-.092-.091-.137-.068-.092-.114-.183-.182-.275a.479.479,0,0,0-.091-.137c-.091-.137-.159-.275-.25-.412a2.507,2.507,0,0,1-.182-.343c-.023-.023-.023-.046-.045-.069L8.161,28.4c0-.023-.023-.023-.023-.046a15.325,15.325,0,0,1-1.183-10.62,15.107,15.107,0,0,1,3.479-6.523c.091-.114.2-.206.3-.32a1.054,1.054,0,0,1,.159-.16c.136-.137.273-.275.432-.412l.045-.046a14.89,14.89,0,0,1,2.411-1.831.92.92,0,0,1,.2-.114c.023,0,.023-.023.045-.023a4.417,4.417,0,0,0,2.024-2.7A4.322,4.322,0,0,0,15.6,2.217,4.412,4.412,0,0,0,12.891.157,4.246,4.246,0,0,0,9.526.615L9.389.684A18.984,18.984,0,0,0,.7,12.266a19.265,19.265,0,0,0,1.91,14.557,18.987,18.987,0,0,0,11.575,8.95,18.74,18.74,0,0,0,4.866.664c-.068-.023-.136-.023-.2-.046-.045,0-.091-.023-.159-.023a2.827,2.827,0,0,1-.432-.069" transform="translate(0)"/>
    <path id="Path_678" data-name="Path 678" d="M45.385,39.429A4.436,4.436,0,0,0,41.519,37.2a4.286,4.286,0,0,0-2.206.591h0c-.068.045-.159.091-.25.159H39.04a14.213,14.213,0,0,0,7.5,26.311h.227a10.133,10.133,0,0,1-6.663-4.866A10.27,10.27,0,0,1,43.452,45.66h0l.318-.182a4.421,4.421,0,0,0,1.615-6.049" transform="translate(-24.898 -28.507)"/>
    <path id="Path_679" data-name="Path 679" d="M592.351,66.723V63.9h-6.208v-3.98H591.9V57.081h-5.753V53.92h6.208V51.1H583.3V66.723Z" transform="translate(-449.607 -39.349)"/>
    <path id="Path_680" data-name="Path 680" d="M640.763,51.1v8.823L636.988,51.1H634.1V66.723h2.843V58.081l3.684,8.641h2.934V51.1Z" transform="translate(-488.854 -39.349)"/>
    <path id="Path_681" data-name="Path 681" d="M543.019,51.1H535.9v2.843h4.275v8.664a1.344,1.344,0,0,1-1.455,1.524c-.773,0-1.455-.318-1.455-2.092H534.4c0,2.934,1.569,4.935,4.275,4.935,2.752,0,4.321-1.66,4.321-4.5V51.1Z" transform="translate(-411.99 -39.347)"/>
  </g>
</svg>
