<svg xmlns="http://www.w3.org/2000/svg" width="154.653" height="36.441" viewBox="0 0 154.653 36.441">
  <g id="svgexport-0_1_" data-name="svgexport-0 (1)" transform="translate(-0.056 0.004)">
    <path id="Path_564" data-name="Path 564" d="M209.807,66.825V57.578l1.877,4.807h1.991l1.9-4.784v9.225h2.861V51.1h-3.09l-2.7,6.546-2.7-6.546H206.9V66.825Z" transform="translate(-159.498 -39.406)" fill="#a5afba"/>
    <g id="Group_70" data-name="Group 70" transform="translate(61.387 11.579)">
      <path id="Path_565" data-name="Path 565" d="M274.569,62.068a1.837,1.837,0,0,1-.206.893,1.248,1.248,0,0,1-.5.526,2.7,2.7,0,0,1-.572.229,2.219,2.219,0,0,1-.526.069,2.77,2.77,0,0,1-.435-.023,2.814,2.814,0,0,1-.5-.137,1.647,1.647,0,0,1-.481-.275,1.221,1.221,0,0,1-.343-.5,1.856,1.856,0,0,1-.137-.755v-7a1.746,1.746,0,0,1,.206-.87,1.118,1.118,0,0,1,.526-.5,1.848,1.848,0,0,1,.6-.206,2.306,2.306,0,0,1,.572-.069,2.488,2.488,0,0,1,.412.023,2.636,2.636,0,0,1,.481.137,1.523,1.523,0,0,1,.458.275,1.3,1.3,0,0,1,.343.481,1.818,1.818,0,0,1,.137.732v6.981Zm2.907.023V55.063a4.258,4.258,0,0,0-.137-1.03,4.855,4.855,0,0,0-.481-1.167,5.091,5.091,0,0,0-.87-1.122,4.372,4.372,0,0,0-1.373-.824,5.473,5.473,0,0,0-1.877-.32,5.779,5.779,0,0,0-1.946.32,3.662,3.662,0,0,0-1.373.824,4.138,4.138,0,0,0-.847,1.122,4.724,4.724,0,0,0-.458,1.167,4.175,4.175,0,0,0-.114,1.03v7.027a4.436,4.436,0,0,0,.137,1.053,4.99,4.99,0,0,0,.481,1.19,5.3,5.3,0,0,0,.847,1.144,4.131,4.131,0,0,0,1.35.847,5.016,5.016,0,0,0,1.9.343,5.137,5.137,0,0,0,1.923-.343,4.372,4.372,0,0,0,1.373-.824,4.521,4.521,0,0,0,.847-1.122,4.342,4.342,0,0,0,.458-1.19,4.1,4.1,0,0,0,.16-1.1" transform="translate(-268 -50.6)" fill="#a5afba"/>
    </g>
    <path id="Path_566" data-name="Path 566" d="M328.267,66.825V63.987h-5.906V51.1H319.5V66.825Z" transform="translate(-246.325 -39.406)" fill="#a5afba"/>
    <path id="Path_567" data-name="Path 567" d="M424.767,66.225V63.387h-5.906V50.5H416V66.225Z" transform="translate(-320.736 -38.944)" fill="#a5afba"/>
    <g id="Group_71" data-name="Group 71" transform="translate(82.854 11.579)">
      <path id="Path_568" data-name="Path 568" d="M363.071,65.227a4.6,4.6,0,0,0,3.5,1.4,5.1,5.1,0,0,0,3.525-1.282,4.334,4.334,0,0,0,1.511-3.25,4.829,4.829,0,0,0-.732-2.495,4.888,4.888,0,0,0-1.9-1.763c-.023,0-1.076-.549-3.2-1.648a1.436,1.436,0,0,1-.916-1.282,1.326,1.326,0,0,1,.5-1.1,1.924,1.924,0,0,1,1.259-.389,1.777,1.777,0,0,1,1.35.549,2.068,2.068,0,0,1,.526,1.488h2.884a4.747,4.747,0,0,0-1.328-3.479,4.587,4.587,0,0,0-3.433-1.373,4.65,4.65,0,0,0-3.319,1.19,3.993,3.993,0,0,0-1.282,3.09,4.119,4.119,0,0,0,.641,2.243,3.814,3.814,0,0,0,1.625,1.511c1.969.984,3.09,1.579,3.411,1.763a1.869,1.869,0,0,1,1.076,1.648,1.552,1.552,0,0,1-.6,1.259,2.386,2.386,0,0,1-1.556.481,1.933,1.933,0,0,1-1.419-.549,2.117,2.117,0,0,1-.549-1.556h-2.861a4.728,4.728,0,0,0,1.282,3.548" transform="translate(-361.786 -50.6)" fill="#a5afba"/>
    </g>
    <rect id="Rectangle_95" data-name="Rectangle 95" width="2.884" height="15.725" transform="translate(105.816 11.694)" fill="#a5afba"/>
    <path id="Path_569" data-name="Path 569" d="M488.984,66.825v-8.7l3.708,8.7h2.953V51.1h-2.838v8.881l-3.8-8.881H486.1V66.825Z" transform="translate(-374.79 -39.406)" fill="#a5afba"/>
    <path id="Path_570" data-name="Path 570" d="M85.527,52.736A19.054,19.054,0,0,0,87.45,38.178,18.7,18.7,0,0,0,85.573,33.6a.138.138,0,0,1,.023.092c.023.092.069.183.092.252.023.046.023.092.046.137.023.069.046.137.069.229.023.046.023.114.046.16l.069.206c.023.046.023.114.046.16a.668.668,0,0,1,.046.206c.023.046.023.114.046.16.023.069.023.137.046.206.023.046.023.114.046.16.023.069.023.137.046.229,0,.046.023.114.023.16.023.069.023.16.046.252,0,.046.023.092.023.137.023.114.046.252.069.366a.206.206,0,0,0,.023.114c.023.092.023.183.046.275a.389.389,0,0,0,.023.16c0,.069.023.16.023.229a.5.5,0,0,0,.023.183.634.634,0,0,0,.023.206v1.74c0,.137-.023.252-.023.389v.114c0,.092-.023.183-.023.275,0,.046-.023.114-.023.16,0,.069-.023.16-.023.229,0,.046-.023.114-.023.16,0,.069-.023.137-.023.229,0,.069-.023.114-.023.183-.023.069-.023.137-.046.206,0,.069-.023.114-.023.183-.023.069-.023.137-.046.229-.023.046-.023.114-.046.16-.023.069-.023.16-.046.229-.023.046-.023.114-.046.16-.023.092-.046.16-.069.252-.023.046-.023.092-.046.137-.046.137-.069.252-.114.389,0,.023-.023.046-.023.069-.023.114-.069.206-.092.32-.023.046-.023.092-.046.137a1.116,1.116,0,0,1-.092.252c-.023.046-.046.114-.069.16a.957.957,0,0,1-.092.229c-.023.046-.046.114-.069.16a2.375,2.375,0,0,0-.092.229c-.023.046-.046.114-.069.16a2.373,2.373,0,0,0-.092.229c-.023.046-.046.114-.069.16-.046.069-.069.16-.114.229l-.069.137c-.046.092-.092.16-.137.252a.5.5,0,0,1-.069.114c-.069.114-.137.252-.206.366-.137.229-.275.435-.412.664-.023.046-.069.092-.092.137-.023.023-.046.069-.069.092l-.046.069a3.883,3.883,0,0,1-.229.32c-.046.069-.092.114-.137.183l-.137.183a1.747,1.747,0,0,0-.183.252,1.147,1.147,0,0,1-.16.183l-.16.183c-.046.046-.069.092-.114.137l-.069.069c-.069.069-.114.137-.183.206l-.137.16a1.381,1.381,0,0,1-.183.183l-.206.206-.137.137-.16.16c-.092.069-.16.16-.252.229l-.137.114c-.046.046-.114.092-.16.137a3.365,3.365,0,0,1-.3.229l-.114.092a.411.411,0,0,1-.16.114,3.883,3.883,0,0,1-.32.229l-.137.092c-.046.023-.092.069-.137.092a2.982,2.982,0,0,1-.343.229l-.137.092a.479.479,0,0,0-.137.092c-.137.092-.275.16-.435.252l-.069.046-.137.069c-.16.092-.3.16-.458.252l-.069.046c-.046.023-.069.046-.114.046-.16.069-.32.16-.481.229l-.069.023c-.023.023-.069.023-.092.046-.046.023-.069.023-.114.046s-.069.023-.114.046h0c-.046.023-.069.023-.114.046h-.023a.325.325,0,0,1-.137.046l-.046.023c-.023.023-.069.023-.092.046-.16.069-.32.114-.549.206l-.046.023c-.023,0-.069.023-.092.023-.16.046-.343.114-.572.183h-.046c-.023,0-.046.023-.069.023-.183.046-.366.092-.6.16l-.092.023c-.092.023-.206.046-.32.069h0c-.092.023-.183.046-.3.069h0l-.069.023a1.34,1.34,0,0,1-.3.046H73.67c-.092.023-.183.023-.3.046h-.046l-.687.069h-.046c-.229.023-.458.046-.687.046H70.626c-.137,0-.252-.023-.389-.023h-.092c-.114,0-.229-.023-.343-.023a.206.206,0,0,1-.114-.023c-.114-.023-.229-.023-.343-.046a.991.991,0,0,1-.114-.023c-.114-.023-.206-.023-.32-.046-.046,0-.092-.023-.137-.023a1.546,1.546,0,0,0-.32-.046c-.046,0-.092-.023-.137-.023-.092-.023-.206-.046-.3-.069a.582.582,0,0,1-.16-.046c-.092-.023-.183-.046-.3-.069-.046-.023-.114-.023-.16-.046l-.275-.069c-.046-.023-.114-.023-.16-.046a1.29,1.29,0,0,1-.275-.092.539.539,0,0,0-.183-.046,1.116,1.116,0,0,1-.252-.092c-.069-.023-.114-.046-.183-.069-.092-.023-.16-.069-.252-.092-.069-.023-.114-.046-.183-.069s-.16-.069-.229-.092-.114-.046-.183-.069-.16-.069-.229-.092a.685.685,0,0,1-.183-.092c-.069-.046-.16-.069-.229-.114-.069-.023-.114-.069-.183-.092a9.353,9.353,0,0,0,9.5,8.607,9.1,9.1,0,0,0,4.418-1.213l.229-.137a18.305,18.305,0,0,0,6.981-6.936" transform="translate(-49.616 -25.912)" fill="#909ba7"/>
    <path id="Path_571" data-name="Path 571" d="M69.224,36.877h0l-.183-.069A9.386,9.386,0,0,0,64.6,44.545l.092.046a14.5,14.5,0,0,0,6.684,1.717h.687a6.032,6.032,0,0,0,.641-.046h.023l.641-.069h.046c.206-.023.412-.069.618-.092l.069-.023c.206-.046.389-.069.6-.114h.023a.084.084,0,0,0,.069-.023c.206-.046.389-.092.572-.137l.092-.023c.206-.069.389-.114.549-.16.023,0,.046-.023.069-.023l.046-.023c.206-.069.366-.137.526-.183.023,0,.046-.023.069-.023l.069-.023.481-.206c.023,0,.046-.023.069-.046l.069-.023c.16-.069.3-.137.458-.206.023-.023.069-.023.092-.046l.069-.046a3.977,3.977,0,0,0,.435-.229c.046-.023.069-.046.114-.069l.069-.046c.137-.069.275-.16.412-.229.046-.023.069-.046.114-.069l.137-.092c.114-.069.229-.137.32-.206a.4.4,0,0,0,.114-.092l.137-.114c.092-.069.206-.137.3-.206.046-.046.092-.069.137-.114l.137-.114a2.425,2.425,0,0,0,.275-.229l.137-.137.137-.114c.069-.069.16-.137.229-.206a1,1,0,0,1,.16-.137l.16-.137a1.481,1.481,0,0,1,.206-.183l.16-.16.16-.16c.046-.069.114-.114.16-.183s.114-.114.16-.183l.16-.206c.046-.046.092-.114.137-.16.069-.069.114-.16.183-.229L83,40.585a.969.969,0,0,0,.114-.16c.069-.092.137-.206.206-.3l.046-.069c.023-.023.046-.069.069-.092.023-.046.046-.069.069-.114.137-.206.252-.412.389-.618h0A14.356,14.356,0,0,0,83.759,24.7a10.24,10.24,0,0,1-.893,8.263,10.4,10.4,0,0,1-13.642,3.914" transform="translate(-49.77 -19.049)" fill="#909ba7"/>
    <path id="Path_572" data-name="Path 572" d="M18.377,36.3h-.023c-.137-.023-.275-.069-.412-.092-.046-.023-.092-.023-.137-.046a1.481,1.481,0,0,1-.3-.092c-.046-.023-.114-.023-.16-.046-.092-.023-.183-.069-.3-.092a1.457,1.457,0,0,0-.16-.046c-.092-.046-.206-.069-.3-.114-.046-.023-.092-.023-.114-.046-.3-.114-.572-.229-.847-.343-.046-.023-.069-.046-.114-.046-.092-.046-.206-.092-.3-.137l-.137-.069L14.807,35l-.137-.069c-.092-.046-.206-.114-.3-.16-.046-.023-.069-.046-.114-.069-.275-.16-.526-.32-.8-.481-.046-.023-.069-.046-.114-.069-.092-.069-.183-.114-.275-.183a.5.5,0,0,1-.114-.092,2.4,2.4,0,0,1-.252-.183.5.5,0,0,1-.114-.092l-.275-.206c-.023-.023-.069-.046-.092-.069a9.145,9.145,0,0,1-.71-.618l-.092-.092c-.092-.069-.16-.16-.252-.229l-.114-.114-.229-.229-.114-.114c-.069-.092-.16-.16-.229-.252-.023-.046-.069-.069-.092-.114-.206-.229-.412-.481-.618-.732-.023-.046-.069-.069-.092-.114l-.206-.275c-.023-.046-.069-.092-.092-.137-.069-.092-.114-.16-.183-.252-.023-.046-.069-.092-.092-.137-.069-.092-.114-.183-.183-.275a.479.479,0,0,0-.092-.137c-.092-.137-.16-.275-.252-.412a2.5,2.5,0,0,1-.183-.343c-.023-.023-.023-.046-.046-.069L8.214,28.4c0-.023-.023-.023-.023-.046A15.236,15.236,0,0,1,7,17.737a15.077,15.077,0,0,1,3.5-6.524c.092-.114.206-.206.3-.32a1.058,1.058,0,0,1,.16-.16c.137-.137.275-.275.435-.412l.046-.046a14.978,14.978,0,0,1,2.426-1.831.928.928,0,0,1,.206-.114c.023,0,.023-.023.046-.023a4.42,4.42,0,0,0,2.037-2.7A4.3,4.3,0,0,0,15.7,2.217,4.438,4.438,0,0,0,12.976.157,4.3,4.3,0,0,0,9.588.615L9.45.684A19,19,0,0,0,.707,12.266,19.213,19.213,0,0,0,14.28,35.774a18.979,18.979,0,0,0,4.9.664c-.069-.023-.137-.023-.206-.046-.046,0-.092-.023-.16-.023a2.862,2.862,0,0,1-.435-.069" transform="translate(0 0)" fill="#909ba7"/>
    <path id="Path_573" data-name="Path 573" d="M45.471,39.443A4.466,4.466,0,0,0,41.58,37.2a4.314,4.314,0,0,0-2.22.6h0c-.069.046-.16.092-.252.16h-.023a14.306,14.306,0,0,0,7.554,26.483h.229a10.2,10.2,0,0,1-6.707-4.9,10.338,10.338,0,0,1,3.365-13.825h0l.32-.183a4.45,4.45,0,0,0,1.625-6.089" transform="translate(-24.85 -28.688)" fill="#909ba7"/>
    <path id="Path_574" data-name="Path 574" d="M592.41,66.825V63.987h-6.249V59.981h5.791V57.12h-5.791V53.938h6.249V51.1H583.3V66.825Z" transform="translate(-449.742 -39.406)" fill="#a5afba"/>
    <path id="Path_575" data-name="Path 575" d="M640.807,51.1v8.881l-3.8-8.881H634.1V66.825h2.861v-8.7l3.708,8.7h2.953V51.1Z" transform="translate(-488.914 -39.406)" fill="#a5afba"/>
    <path id="Path_576" data-name="Path 576" d="M543.075,51.1h-7.164v2.861h4.3v8.721a1.353,1.353,0,0,1-1.465,1.534c-.778,0-1.465-.32-1.465-2.106H534.4c0,2.953,1.579,4.967,4.3,4.967,2.77,0,4.349-1.671,4.349-4.532V51.1Z" transform="translate(-412.035 -39.406)" fill="#a5afba"/>
  </g>
</svg>
