<svg id="scandlines-logo" xmlns="http://www.w3.org/2000/svg" width="154.65" height="21.52" viewBox="0 0 154.65 21.52">
  <g id="Group_231" data-name="Group 231">
    <path id="Path_682" data-name="Path 682" d="M58.484,5.511A13.914,13.914,0,0,0,54.512,4.8c-1.217,0-2.755.516-2.755,2.451,0,3.224,7.753,1.87,7.753,7.8,0,4-3.46,5.481-7.176,5.481a15.488,15.488,0,0,1-4.934-.709l.32-3.224a10.734,10.734,0,0,0,4.421,1.161c1.41,0,3.2-.709,3.2-2.386,0-3.418-7.753-1.935-7.753-7.932,0-4,3.46-5.546,6.663-5.546a13.693,13.693,0,0,1,4.677.709Z" transform="translate(-16.842 -0.683)" fill="#1d2f58" fill-rule="evenodd"/>
    <path id="Path_683" data-name="Path 683" d="M78.783,12.3a5,5,0,0,0-2.371-.513c-2.243,0-3.588,1.73-3.588,4.293,0,2.435,1.153,4.293,3.588,4.293a5.931,5.931,0,0,0,2.691-.641l.192,2.883a10.94,10.94,0,0,1-3.46.513c-4.421,0-6.535-3.075-6.535-7.048,0-3.908,2.243-6.984,6.471-6.984a13.393,13.393,0,0,1,3.4.384Z" transform="translate(-24.627 -3.149)" fill="#1d2f58" fill-rule="evenodd"/>
    <path id="Path_684" data-name="Path 684" d="M88.974,10.125A11.761,11.761,0,0,1,93.587,9.1c4.1,0,5.831,1.666,5.831,5.638v5c0,1.025.128,1.922.192,3.075l-2.883-.128c-.128-.7-.384-1.538-.384-1.922a5.093,5.093,0,0,1-4.229,2.371c-2.371,0-4.613-1.41-4.613-3.972a4.008,4.008,0,0,1,2.243-3.908,10.807,10.807,0,0,1,4.485-.7H96.15c0-2.178-1.025-2.883-3.075-2.883a6.9,6.9,0,0,0-4.1,1.41Zm4.1,10.444a2.907,2.907,0,0,0,2.371-1.217,4.04,4.04,0,0,0,.833-2.755H94.74c-1.538,0-3.908.32-3.908,2.371,0,1.089.9,1.6,2.243,1.6" transform="translate(-31.09 -3.149)" fill="#1d2f58" fill-rule="evenodd"/>
    <path id="Path_685" data-name="Path 685" d="M110.4,9.42h2.883l.384,1.858h.128A4.961,4.961,0,0,1,118.217,9.1c3.2,0,4.485,2.243,4.485,5.19v8.393l-3.46.128V15.635c0-1.666,0-3.908-2.243-3.908-2.563,0-3.075,2.755-3.075,4.485v6.535h-3.46V9.42Z" transform="translate(-39.226 -3.149)" fill="#1d2f58" fill-rule="evenodd"/>
    <path id="Path_686" data-name="Path 686" d="M143.039,18.113h0a5.163,5.163,0,0,1-4.1,1.869c-4.1,0-5.638-3.416-5.638-7.09,0-3.739,1.538-7.026,5.638-7.026a4.825,4.825,0,0,1,3.972,1.869V0h3.46V19.6h-2.883Zm-3.2-.9c2.371,0,3.075-2.449,3.075-4.319,0-1.934-.833-4.319-3.075-4.319s-2.883,2.449-2.883,4.319.641,4.319,2.883,4.319" transform="translate(-47.36)" fill="#1d2f58" fill-rule="evenodd"/>
    <rect id="Rectangle_234" data-name="Rectangle 234" width="3.46" height="19.598" transform="translate(102.276)" fill="#1d2f58"/>
    <rect id="Rectangle_235" data-name="Rectangle 235" width="3.46" height="13.327" transform="translate(108.978 6.271)" fill="#1d2f58"/>
    <path id="Path_687" data-name="Path 687" d="M179.6,9.42h2.883l.384,1.858H183A4.961,4.961,0,0,1,187.417,9.1c3.2,0,4.485,2.178,4.485,5.19v8.393h-3.46V15.635c0-1.666,0-3.908-2.243-3.908-2.563,0-3.075,2.755-3.075,4.421v6.535h-3.46V9.42Z" transform="translate(-63.813 -3.149)" fill="#1d2f58" fill-rule="evenodd"/>
    <path id="Path_688" data-name="Path 688" d="M213.9,22.078a9.108,9.108,0,0,1-4.613,1.025c-4.421,0-6.984-2.435-6.984-6.856,0-3.908,2.05-7.048,6.215-7.048,4.934,0,6.343,3.4,6.343,8.073h-9.29a3.584,3.584,0,0,0,3.908,3.4,9.478,9.478,0,0,0,4.421-1.41Zm-2.371-7.3c-.128-1.666-.833-3.075-2.755-3.075s-2.947,1.346-3.2,3.075Z" transform="translate(-71.805 -3.185)" fill="#1d2f58" fill-rule="evenodd"/>
    <path id="Path_689" data-name="Path 689" d="M233.642,12.14a9.377,9.377,0,0,0-3.075-.513c-1.025,0-2.178.32-2.178,1.41,0,2.178,6.151.833,6.151,5.638,0,3.075-2.883,4.293-5.638,4.293a16.468,16.468,0,0,1-3.972-.513l.192-2.883a8.408,8.408,0,0,0,3.46.9c.833,0,2.243-.384,2.243-1.666,0-2.691-6.023-.9-6.023-5.7,0-2.883,2.563-4.1,5.19-4.1a18.565,18.565,0,0,1,3.78.384Z" transform="translate(-79.889 -3.114)" fill="#1d2f58" fill-rule="evenodd"/>
    <path id="Path_690" data-name="Path 690" d="M170.722.7a1.85,1.85,0,0,1,1.922,1.922,1.928,1.928,0,0,1-1.922,1.922A1.887,1.887,0,0,1,168.8,2.622,1.816,1.816,0,0,1,170.722.7" transform="translate(-60.014 -0.251)" fill="#1d2f58" fill-rule="evenodd"/>
    <path id="Path_691" data-name="Path 691" d="M8.522.2h8.906c.192,0,.32.192.128.384L15.121,5.005H2.5L0,.584V.2H8.522Z" transform="translate(0 -0.072)" fill="#e22030" fill-rule="evenodd"/>
    <path id="Path_692" data-name="Path 692" d="M9.65,17.673,5.165,9.92c-.128-.192-.064-.32.256-.32h5l6.343,10.828L14.2,24.721c0,.064,0,.064-.064.128h-.384Z" transform="translate(-1.834 -3.329)" fill="#fcbc00" fill-rule="evenodd"/>
    <path id="Path_693" data-name="Path 693" d="M27.568,7.725l-4.421,7.753c-.192.192-.32.128-.513-.128L20.2,11.056,26.415.1h5c.32,0,.384.192.32.384Z" transform="translate(-7.257 -0.036)" fill="#1d2f58" fill-rule="evenodd"/>
  </g>
</svg>
