<svg id="scandlines-logo" xmlns="http://www.w3.org/2000/svg" width="154.653" height="21.522" viewBox="0 0 154.653 21.522">
  <g id="Group_65" data-name="Group 65">
    <path id="Path_70" data-name="Path 70" d="M58.548,5.509a14.075,14.075,0,0,0-4-.709c-1.224,0-2.771.516-2.771,2.449,0,3.222,7.8,1.869,7.8,7.8,0,4-3.48,5.477-7.217,5.477a15.67,15.67,0,0,1-4.962-.709l.322-3.222a10.851,10.851,0,0,0,4.446,1.16c1.418,0,3.222-.709,3.222-2.384,0-3.415-7.8-1.933-7.8-7.926,0-4,3.48-5.542,6.7-5.542a13.853,13.853,0,0,1,4.7.709Z" transform="translate(-16.856 -0.676)" fill="#a5afba" fill-rule="evenodd"/>
    <path id="Path_71" data-name="Path 71" d="M78.837,12.322a5.031,5.031,0,0,0-2.384-.516c-2.255,0-3.609,1.74-3.609,4.317,0,2.449,1.16,4.317,3.609,4.317a5.965,5.965,0,0,0,2.706-.644l.193,2.9a11,11,0,0,1-3.48.516c-4.446,0-6.573-3.093-6.573-7.088,0-3.931,2.255-7.024,6.508-7.024a13.47,13.47,0,0,1,3.415.387Z" transform="translate(-24.644 -3.236)" fill="#a5afba" fill-rule="evenodd"/>
    <path id="Path_72" data-name="Path 72" d="M88.982,10.131A11.829,11.829,0,0,1,93.622,9.1c4.124,0,5.864,1.675,5.864,5.671V19.8c0,1.031.129,1.933.193,3.093l-2.9-.129c-.129-.709-.387-1.547-.387-1.933a5.122,5.122,0,0,1-4.253,2.384c-2.384,0-4.64-1.418-4.64-4a4.031,4.031,0,0,1,2.255-3.931,10.869,10.869,0,0,1,4.511-.709H96.2c0-2.191-1.031-2.9-3.093-2.9A6.941,6.941,0,0,0,88.982,13.1Zm4.124,10.5A2.924,2.924,0,0,0,95.49,19.41a4.063,4.063,0,0,0,.838-2.771H94.782c-1.547,0-3.931.322-3.931,2.384,0,1.1.9,1.611,2.255,1.611" transform="translate(-31.116 -3.236)" fill="#a5afba" fill-rule="evenodd"/>
    <path id="Path_73" data-name="Path 73" d="M110.4,9.422h2.9l.387,1.869h.129A4.989,4.989,0,0,1,118.262,9.1c3.222,0,4.511,2.255,4.511,5.22v8.441l-3.48.129V15.673c0-1.675,0-3.931-2.255-3.931-2.578,0-3.093,2.771-3.093,4.511v6.573h-3.48V9.422Z" transform="translate(-39.26 -3.236)" fill="#a5afba" fill-rule="evenodd"/>
    <path id="Path_74" data-name="Path 74" d="M143.095,18.107h0a5.206,5.206,0,0,1-4.124,1.869c-4.124,0-5.671-3.415-5.671-7.088,0-3.737,1.547-7.024,5.671-7.024a4.864,4.864,0,0,1,4,1.869V0h3.48V19.589h-2.9Zm-3.222-.9c2.384,0,3.093-2.449,3.093-4.317,0-1.933-.838-4.317-3.093-4.317s-2.9,2.449-2.9,4.317.644,4.317,2.9,4.317" transform="translate(-47.403)" fill="#a5afba" fill-rule="evenodd"/>
    <rect id="Rectangle_73" data-name="Rectangle 73" width="3.48" height="19.589" transform="translate(102.264)" fill="#a5afba"/>
    <rect id="Rectangle_74" data-name="Rectangle 74" width="3.48" height="13.403" transform="translate(108.966 6.186)" fill="#a5afba"/>
    <path id="Path_75" data-name="Path 75" d="M179.6,9.422h2.9l.387,1.869h.129A4.989,4.989,0,0,1,187.462,9.1c3.222,0,4.511,2.191,4.511,5.22v8.441h-3.48V15.673c0-1.675,0-3.931-2.255-3.931-2.578,0-3.093,2.771-3.093,4.446v6.573h-3.48V9.422Z" transform="translate(-63.868 -3.236)" fill="#a5afba" fill-rule="evenodd"/>
    <path id="Path_76" data-name="Path 76" d="M213.963,22.152a9.16,9.16,0,0,1-4.64,1.031c-4.446,0-7.024-2.449-7.024-6.895,0-3.931,2.062-7.088,6.251-7.088,4.962,0,6.379,3.415,6.379,8.119h-9.344a3.6,3.6,0,0,0,3.931,3.415,9.532,9.532,0,0,0,4.446-1.418Zm-2.384-7.346c-.129-1.675-.838-3.093-2.771-3.093s-2.964,1.353-3.222,3.093Z" transform="translate(-71.941 -3.272)" fill="#a5afba" fill-rule="evenodd"/>
    <path id="Path_77" data-name="Path 77" d="M233.693,12.157a9.431,9.431,0,0,0-3.093-.516c-1.031,0-2.191.322-2.191,1.418,0,2.191,6.186.838,6.186,5.671,0,3.093-2.9,4.317-5.671,4.317a16.563,16.563,0,0,1-4-.516l.193-2.9a8.456,8.456,0,0,0,3.48.9c.838,0,2.255-.387,2.255-1.675,0-2.706-6.057-.9-6.057-5.735,0-2.9,2.578-4.124,5.22-4.124a18.672,18.672,0,0,1,3.8.387Z" transform="translate(-79.942 -3.201)" fill="#a5afba" fill-rule="evenodd"/>
    <path id="Path_78" data-name="Path 78" d="M170.733.7a1.861,1.861,0,0,1,1.933,1.933,1.939,1.939,0,0,1-1.933,1.933A1.9,1.9,0,0,1,168.8,2.633,1.826,1.826,0,0,1,170.733.7" transform="translate(-60.028 -0.249)" fill="#a5afba" fill-rule="evenodd"/>
    <path id="Path_79" data-name="Path 79" d="M8.57.2h8.957c.193,0,.322.193.129.387L15.208,5.033H2.513L0,.587V.2H8.57Z" transform="translate(0 -0.071)" fill="#909ba7" fill-rule="evenodd"/>
    <path id="Path_80" data-name="Path 80" d="M9.676,17.719l-4.511-7.8C5.037,9.729,5.1,9.6,5.423,9.6H10.45l6.379,10.89-2.578,4.317c0,.064,0,.064-.064.129H13.8Z" transform="translate(-1.815 -3.414)" fill="#a5afba" fill-rule="evenodd"/>
    <path id="Path_81" data-name="Path 81" d="M27.61,7.768l-4.446,7.8c-.193.193-.322.129-.516-.129L20.2,11.119,26.451.1h5.026c.322,0,.387.193.322.387Z" transform="translate(-7.183 -0.036)" fill="#88919b" fill-rule="evenodd"/>
  </g>
</svg>
