<svg id="svgexport-0_1_" data-name="svgexport-0 (1)" xmlns="http://www.w3.org/2000/svg" width="154.65" height="28.75" viewBox="0 0 154.65 28.75">
  <path id="Path_655" data-name="Path 655" d="M15.883,26.8a.2.2,0,0,0,.177-.107h.265v.277a.2.2,0,1,0,.284.177.2.2,0,0,0-.095-.177v-.277h.277a.2.2,0,1,0,0-.177h-.277v-.29a.2.2,0,1,0-.177,0V26.5h-.277a.2.2,0,1,0-.177.3Zm.53-1.891a.555.555,0,0,0-.24.548h.5a.5.5,0,0,0-.258-.548Zm3.562,2.118h.485v.454h-.485Zm1.311-1.04c-.151.107-.315.221-.46.34l.473.334c.151-.107.315-.221.454-.34Z" transform="translate(-5.796 -9.355)" fill="#7c0040"/>
  <path id="Path_656" data-name="Path 656" d="M8.09,12.7c-.057,6.216,3.726,9.009,9,11.676,5.283-2.679,9.028-5.466,9-11.682V1.13H8.09Zm6.834,8.4H12.3V19.627H14.93V21.1Zm-2.717-1.772.183-.322h2.452l.177.322Zm1.154-4.47V14.59h.63v.29h.4v-.29h.492V15.4l-.24.309H12.812l-.252-.315v-.8h.479v.29H13.4Zm2.522,1.463c0-.12.038-.24.038-.366a1.892,1.892,0,0,1,.277,0v.366h.775v-.366h.265v.366H18v-.366h.227v.366h.8l-.044-.366h.4l-.063.725h-4.47l-.069-.725h.334l-.038.366h.794Zm.769-5.125h.315V10.82c0-.164-.139-.088-.17-.076a.208.208,0,0,1,.17-.208.149.149,0,1,1,.277,0,.208.208,0,0,1,.17.208s-.17-.088-.17.076V11.2h.315c.164,0,.088-.139.082-.17a.208.208,0,0,1,.208.17.221.221,0,0,1,.2.139.214.214,0,0,1-.2.139.208.208,0,0,1-.208.17s.088-.17-.076-.17H17.25v.693a1.891,1.891,0,0,1,.5.214H16.4a1.6,1.6,0,0,1,.548-.214v-.681h-.315c-.164,0-.088.139-.082.17a.208.208,0,0,1-.208-.17.221.221,0,0,1-.2-.139.221.221,0,0,1,.2-.139.208.208,0,0,1,.208-.17c-.006.032-.082.17.088.17Zm1.374,1.4a3.379,3.379,0,0,1,.832,2.415H15.289a3.354,3.354,0,0,1,.838-2.415h1.891Zm.851,2.629.063.46h-.221a1.271,1.271,0,0,0,.05.366h-.233v-.366h-.794a2.925,2.925,0,0,1,0,.359,1.3,1.3,0,0,1-.214,0v-.34h-.845v.366h-.221v-.366h-.826a3.152,3.152,0,0,0-.032.366h-.221l.038-.366h-.214l.057-.46h3.6Zm1.33-.359V14.59h.63v.29H21.2v-.29h.479v.8l-.252.315H19.57l-.246-.309V14.59h.492v.29h.4Zm1.513,3.9H19.381l.271-2.812h1.62Zm-8.826-2.812h1.6l.265,2.812H12.446Zm5.132,4.155-.265.258-.271-.246h.164V19.64h-.485v.473h.164l-.265.258-.271-.258h.164V19.64h-.473v.473a.593.593,0,0,0,.164,0l-.271.258c-.088-.082-.177-.183-.265-.258h.164V19.64h-.252a1.777,1.777,0,0,1,0-.2h.24V18.9h-.158l.05-.2h.12v-.284a1.116,1.116,0,0,1,.334-.385h.347v-.12a.819.819,0,0,1,.208,0v.12h.366a.939.939,0,0,1,.322.378v.29h.126l.05.2h-.17v.542h.258v.2h-.258v.473h.164Zm.82-.492h.095v1.04h-.63V19.394a1.891,1.891,0,0,0-.75-1.563,1.147,1.147,0,0,0-1.147.1,1.891,1.891,0,0,0-.536,1.053,4.791,4.791,0,0,0-.063.933v.738h-.63V19.621a.359.359,0,0,0,.208-.076c.05-.044,0-.132,0-.132-.113-.2-.24-.385-.34-.593l-.177-1.828h4.413l-.2,1.835c-.113.208-.227.41-.359.63.019.069.019.158.107.164Zm3,1.475H19.223V19.627H21.84V21.1Zm-2.724-1.759.183-.322h2.452l.183.322ZM8.336,1.37H25.849V12.888a12.142,12.142,0,0,1-.725,4.041L17.13,9.307l-2.579,2.459-3.367,3.152L9.042,16.935A11.348,11.348,0,0,1,8.329,12.9V1.37Z" transform="translate(-2.989 -0.418)" fill="#7c0040"/>
  <path id="Path_657" data-name="Path 657" d="M25.216,26.41a.2.2,0,0,0-.177.107h-.277v-.29a.2.2,0,1,0-.177,0V26.5H24.32a.2.2,0,1,0-.183.284.2.2,0,0,0,.177-.107h.271v.277a.2.2,0,1,0,.284.177.2.2,0,0,0-.107-.177v-.258h.277a.2.2,0,1,0,.177-.284Zm-4.571,1.273h.479v.542h-.479Zm0-.656h.479v.454h-.479Zm.681.656h.485v.542h-.485ZM19.34,26.328l.473.334.454-.34-.473-.334C19.649,26.1,19.485,26.228,19.34,26.328Zm5.327-1.418a.555.555,0,0,0-.24.548h.5a.5.5,0,0,0-.258-.548Z" transform="translate(-7.147 -9.359)" fill="#7c0040"/>
  <path id="Path_658" data-name="Path 658" d="M26.405,12.337V0H7V12.337c0,4.125,1.57,8.525,9.7,12.156,5.434-2.453,7.956-5.248,9.028-8.075a2.268,2.268,0,0,1,.113-.325,11.709,11.709,0,0,0,.567-3.757ZM16.677,24.12C13.834,22.7,7.29,19.97,7.328,12.331V.349H26.052V12.331C26.058,19.97,19.521,22.7,16.677,24.12Z" transform="translate(-2.587)" fill="#7c0040"/>
  <path id="Path_659" data-name="Path 659" d="M19.409,9.413h3.026c-.63-1.141-.832-2.263-.826-4.621a8.2,8.2,0,0,1,1.835.542V2.85a6.481,6.481,0,0,1-2.522.548A6.853,6.853,0,0,1,18.4,2.85V5.334a8.24,8.24,0,0,1,1.835-.542C20.253,7.15,20.039,8.272,19.409,9.413Zm-.725-6.122a7.49,7.49,0,0,0,2.251.366,7.092,7.092,0,0,0,2.257-.366v1.62a11.165,11.165,0,0,0-1.822-.422c0,2.446.139,3.53.63,4.634H19.888a10.827,10.827,0,0,0,.63-4.634,11.19,11.19,0,0,0-1.822.422V3.291Zm5.245.744c.088.05.17.113.258.164a3.512,3.512,0,0,0-.353.126,2.169,2.169,0,0,0,.523.3,1.3,1.3,0,0,0-.29.233,3.612,3.612,0,0,0,.574,0,.927.927,0,0,0-.158.322.675.675,0,0,0,.448-.17.214.214,0,0,1,0,.1,1.891,1.891,0,0,1-.095.227c.151,0,.246-.17.4-.17a2.831,2.831,0,0,1,.693,0,.479.479,0,0,0-.34.359v.095a.492.492,0,0,1,.164-.113,1.185,1.185,0,0,1,.366,0,.826.826,0,0,0,.069.479,1.1,1.1,0,0,1,.069-.183l.183.3a.366.366,0,0,1,0-.095A1.582,1.582,0,0,0,27.3,6.1a2.181,2.181,0,0,1,.542.258.063.063,0,0,0,.069,0V6.311a4.772,4.772,0,0,1-.441-.284.435.435,0,0,1,.3.107l.158.12c.126,0,.315.032.353-.132a1.582,1.582,0,0,0-.561-.656,1.519,1.519,0,0,0-.523-.315l.252-.076a.548.548,0,0,1,.473.17h.088c0-.107-.069-.2-.05-.3a.567.567,0,0,0,.4.151c.038,0,0-.076,0-.107a.416.416,0,0,1-.126-.214,1.318,1.318,0,0,0,.5,0s.05-.038,0-.069a.9.9,0,0,1-.258-.151,1.79,1.79,0,0,0,.5-.309V4.193a.952.952,0,0,1-.3-.044,1.507,1.507,0,0,0,.435-.4,1.538,1.538,0,0,1-.4.095,1.059,1.059,0,0,0,.164-.719s0-.057-.05-.05a.927.927,0,0,1-.233.309.63.63,0,0,0-.246-.517.87.87,0,0,1-.132.523,1.261,1.261,0,0,0-.523-.5H27.6a2.96,2.96,0,0,1,.158.252,1.261,1.261,0,0,1,.063,1.16,1.1,1.1,0,0,1-.63.492,1,1,0,0,0-.214-.315.328.328,0,0,0-.145-.044.517.517,0,0,1,.032.366.221.221,0,0,1-.164.158c-.107,0-.05-.113-.076-.177a.485.485,0,0,0-.277-.334.069.069,0,0,0-.044,0,.473.473,0,0,1,.044.385.347.347,0,0,1-.366.076,1.1,1.1,0,0,1-.9-.706,1.305,1.305,0,0,1,0-.63,5.5,5.5,0,0,1,.252-.63c0-.044-.05,0-.088,0a1.425,1.425,0,0,0-.561.561.952.952,0,0,1-.145-.63.177.177,0,0,0-.12.095,1.349,1.349,0,0,0-.151.479.965.965,0,0,1-.258-.391.328.328,0,0,0-.032.265,1.955,1.955,0,0,0,.158.517,2.925,2.925,0,0,1-.422-.107.63.63,0,0,0,.214.3ZM27.9,5.977a.151.151,0,0,1,.126.113h-.05a.2.2,0,0,1-.076-.1Zm-1.072-.63a.63.63,0,0,1,.46.2h-.221a.448.448,0,0,1-.315-.221h.069Z" transform="translate(-6.8 -1.053)" fill="#7c0040"/>
  <path id="Path_660" data-name="Path 660" d="M30.044,13.608a.1.1,0,0,0,0,.069.1.1,0,0,0,.1,0,1.765,1.765,0,0,0,.517-1.816,3.152,3.152,0,0,0-.7-1.053,6.248,6.248,0,0,1-.63-1.532l.069.044.214.271v-.34c-.183-.214-.454-.567-.454-.567l.454.322c0-.17.069-.3-.082-.378l-.454-.4c.12.05.366.208.492.252a1.633,1.633,0,0,0-.366-.574,1.582,1.582,0,0,1-.548-.044.63.63,0,0,1,0,.2,1.122,1.122,0,0,1-.3-.252.454.454,0,0,1-.05.126A1.021,1.021,0,0,1,28,7.19a5.276,5.276,0,0,0-.63.315.492.492,0,0,0-.088.2.693.693,0,0,1,.208,0l-.284.227a2.106,2.106,0,0,0-.095.309,1.608,1.608,0,0,1,.334-.126,2.01,2.01,0,0,0-.353.34,1.128,1.128,0,0,0,0,.372,3.782,3.782,0,0,1,.359-.271,6.564,6.564,0,0,0-.385.63.719.719,0,0,1-.63,0L25.41,8.735a3.953,3.953,0,0,0-.838-.3.467.467,0,0,0,.17.416,1.69,1.69,0,0,1,.851.378,1.683,1.683,0,0,0,.467.189h-.233l.3.214a2.352,2.352,0,0,1,.517.038l-.372.076.29.2a4.236,4.236,0,0,1,.473-.063c-.069.044-.233.139-.309.177a2.812,2.812,0,0,0,.309.233.284.284,0,0,0,.189-.05,4.949,4.949,0,0,1,.807-.5,5.006,5.006,0,0,0-.429.523l.05.069a8.6,8.6,0,0,0,.864,1.04.845.845,0,0,1,.34.63,1.437,1.437,0,0,0-.914-.63,1.513,1.513,0,0,0-1.091.177.7.7,0,0,0-.183.693,3.007,3.007,0,0,0,.63,1.059.088.088,0,0,1,0,.095c0,.063-.076,0-.113,0a1.519,1.519,0,0,0-1.122-.347.41.41,0,0,0-.227.233.4.4,0,0,0,.328.113h.063a1.261,1.261,0,0,1,.485.208,2.276,2.276,0,0,0,.914.41.284.284,0,0,0,.233-.107.63.63,0,0,0,0-.3,2.263,2.263,0,0,1-.132-.763.511.511,0,0,1,.429-.29c.145-.038.3-.05.448-.088a2.3,2.3,0,0,0-.5,1.166,1.337,1.337,0,0,0,.958.876.725.725,0,0,1,.555.46,1.412,1.412,0,0,1-.1.92,1.664,1.664,0,0,0-.473.63.511.511,0,0,0,.5.069.479.479,0,0,1,.422-.258.309.309,0,0,0,.063-.3c-.164-.5.347-1,.271-1.475a1.324,1.324,0,0,0-.58-.34.46.46,0,0,1-.151-.46c.107-.353.561-.548.687-.9a1.418,1.418,0,0,0,.076-.517,1.261,1.261,0,0,1,0,.757,1.072,1.072,0,0,1-.284.511ZM24,7.575l-.132.05a.788.788,0,0,0,.378.252,1.261,1.261,0,0,1,.2-.05L24.382,7.7c-.1-.076,0-.328-.183-.29a1.21,1.21,0,0,0-.359,0c.069.038.158.05.24.088A.164.164,0,0,1,24,7.575Z" transform="translate(-8.81 -2.715)" fill="#7c0040"/>
  <path id="Path_661" data-name="Path 661" d="M19.378,6.248a3.3,3.3,0,0,1,1.425.681l.681.5a.29.29,0,0,1,.069.044,6.783,6.783,0,0,1-.032-.813,3.316,3.316,0,0,1-.5-.113L20.166,6.2a6.115,6.115,0,0,0-1.009-.3.542.542,0,0,0,.221.347Zm-.561,1.028a2.207,2.207,0,0,1,.353,0,.555.555,0,0,1-.107-.435,1.185,1.185,0,0,0-.523,0,2,2,0,0,0,.265.1,1.406,1.406,0,0,0-.258.107A1.047,1.047,0,0,0,18.817,7.275Zm2,4.735a.63.63,0,0,1-.366-.088.58.58,0,0,0-.252.473,1.828,1.828,0,0,1,.177-.139,1.544,1.544,0,0,0,0,.252.731.731,0,0,0,.479-.227.5.5,0,0,0,0-.29Zm2.843,3.127a1.179,1.179,0,0,0-.12.435.467.467,0,0,0,.183-.177v.252a.5.5,0,0,0,.385-.189.662.662,0,0,0,.063-.252.763.763,0,0,1-.511-.069ZM9.569,4.224v.057a1.778,1.778,0,0,0,.492.309.889.889,0,0,1-.258.151V4.81a1.318,1.318,0,0,0,.5,0,.41.41,0,0,1-.1.2c0,.032-.044.082,0,.107a.567.567,0,0,0,.4-.151c0,.107-.076.2-.05.3h.088a.548.548,0,0,1,.473-.17l.252.076a1.519,1.519,0,0,0-.523.315,1.582,1.582,0,0,0-.567.63c.038.164.227.107.353.132l.158-.12a.441.441,0,0,1,.271-.088,4.854,4.854,0,0,1-.441.284v.044a.063.063,0,0,0,.069,0,2.162,2.162,0,0,1,.58-.252,1.582,1.582,0,0,0,.857-.132.4.4,0,0,1,0,.095l.158-.29a1.1,1.1,0,0,1,.069.183.838.838,0,0,0,.076-.485,1.185,1.185,0,0,0,.366,0,.5.5,0,0,1,.164.113V5.592a.479.479,0,0,0-.34-.359,2.837,2.837,0,0,1,.7,0c.158,0,.246.158.4.17a1.633,1.633,0,0,1-.095-.227.214.214,0,0,1,0-.1.675.675,0,0,0,.441.17.914.914,0,0,0-.158-.322,3.619,3.619,0,0,0,.574,0,1.261,1.261,0,0,0-.271-.271,2.144,2.144,0,0,0,.523-.3,3.4,3.4,0,0,0-.359-.132c.088-.05.17-.113.258-.164a.63.63,0,0,0,.24-.271,2.95,2.95,0,0,1-.422.107,2.024,2.024,0,0,0,.158-.517.328.328,0,0,0-.038-.265.939.939,0,0,1-.258.391,1.362,1.362,0,0,0-.151-.479.177.177,0,0,0-.12-.095.952.952,0,0,1-.145.63,1.425,1.425,0,0,0-.574-.6h-.088a5.617,5.617,0,0,1,.221.586,1.305,1.305,0,0,1,0,.63,1.1,1.1,0,0,1-.864.738.347.347,0,0,1-.359-.063.473.473,0,0,1,0-.391.069.069,0,0,0-.044,0A.485.485,0,0,0,11.9,4.8c0,.057.032.183-.076.177a.221.221,0,0,1-.145-.12.517.517,0,0,1,.032-.366.334.334,0,0,0-.145.044,1,1,0,0,0-.2.34,1.1,1.1,0,0,1-.63-.492,1.223,1.223,0,0,1,.063-1.16c.038-.088.12-.164.158-.252s-.05,0-.082,0a1.261,1.261,0,0,0-.523.5.87.87,0,0,1-.12-.567.63.63,0,0,0-.246.517A.939.939,0,0,1,9.726,3.1c-.038,0-.038,0-.05.05a1.059,1.059,0,0,0,.158.687,1.538,1.538,0,0,1-.4-.095,1.494,1.494,0,0,0,.435.4.952.952,0,0,1-.3.088Zm1.015,1.891h-.05A.151.151,0,0,1,10.659,6,.2.2,0,0,1,10.584,6.115Zm1.141-.775h.069a.448.448,0,0,1-.315.221h-.221a.63.63,0,0,1,.467-.214Z" transform="translate(-3.485 -1.072)" fill="#7c0040"/>
  <path id="Path_662" data-name="Path 662" d="M15.417,8.693,14.4,9.141a.725.725,0,0,1-.63,0c-.088-.183-.385-.63-.385-.63a3.713,3.713,0,0,1,.359.271,1.11,1.11,0,0,0,0-.372c-.082-.082-.271-.208-.366-.315a1.582,1.582,0,0,1,.334.126,2.188,2.188,0,0,0-.095-.309L13.33,7.7a.7.7,0,0,1,.208,0,.5.5,0,0,0-.095-.2,5.264,5.264,0,0,0-.63-.315,1.034,1.034,0,0,1-.3.738.435.435,0,0,1-.05-.126,1.11,1.11,0,0,1-.328.24.681.681,0,0,1,0-.2,1.576,1.576,0,0,1-.548.044,1.627,1.627,0,0,0-.359.574c.126-.044.372-.2.492-.252l-.416.422c-.151.082-.057.214-.082.378l.46-.334s-.271.347-.454.567v.34l.221-.258.069-.044a6.248,6.248,0,0,1-.63,1.532,3.114,3.114,0,0,0-.7,1.053,1.759,1.759,0,0,0,.485,1.809.1.1,0,0,0,.1,0,.1.1,0,0,0,0-.069,1.059,1.059,0,0,1-.3-.517,1.261,1.261,0,0,1,0-.757,1.393,1.393,0,0,0,.076.517c.126.353.574.548.681.9a.46.46,0,0,1-.151.46,1.324,1.324,0,0,0-.58.34c-.076.479.429.977.271,1.475a.309.309,0,0,0,.063.3.479.479,0,0,1,.422.258.511.511,0,0,0,.5-.069,1.664,1.664,0,0,0-.454-.618,1.406,1.406,0,0,1-.132-.9.725.725,0,0,1,.555-.46,1.33,1.33,0,0,0,.958-.876,2.289,2.289,0,0,0-.5-1.166c.145.032.3.044.448.088a.511.511,0,0,1,.429.29,2.251,2.251,0,0,1-.113.75.63.63,0,0,0,0,.3.284.284,0,0,0,.252.082,2.282,2.282,0,0,0,.914-.41,1.261,1.261,0,0,1,.5-.221h.063A.4.4,0,0,0,15,13.257a.41.41,0,0,0-.227-.233,1.519,1.519,0,0,0-1.122.347c-.038,0-.082.063-.113,0a.1.1,0,0,1,0-.095,3.007,3.007,0,0,0,.63-1.059.7.7,0,0,0-.183-.693,1.513,1.513,0,0,0-1.091-.177,1.444,1.444,0,0,0-.914.63.845.845,0,0,1,.34-.63,8.593,8.593,0,0,0,.87-.99l.05-.069a4.911,4.911,0,0,0-.429-.523,4.98,4.98,0,0,1,.807.5.284.284,0,0,0,.189.05,2.862,2.862,0,0,0,.309-.233c-.069-.038-.24-.132-.309-.177.126,0,.34.069.473.063l.29-.2L14.2,9.7a2.41,2.41,0,0,0,.517-.038l.3-.214H14.78a1.671,1.671,0,0,0,.467-.189,1.7,1.7,0,0,1,.851-.378.473.473,0,0,0,.17-.416,3.947,3.947,0,0,0-.851.233Zm1.2-1.255c-.189-.038-.076.208-.183.29l-.095.1a1.261,1.261,0,0,1,.2.05.782.782,0,0,0,.429-.252l-.151-.057a.164.164,0,0,1-.076,0c.076-.032.17-.05.24-.088a1.21,1.21,0,0,0-.366-.044Z" transform="translate(-3.735 -2.711)" fill="#7c0040"/>
  <path id="Path_663" data-name="Path 663" d="M10.232,8.413a7.055,7.055,0,0,1-.032.813.277.277,0,0,1,.069-.044l.687-.5A3.31,3.31,0,0,1,12.382,8a.542.542,0,0,0,.227-.347,6.115,6.115,0,0,0-1.009.3l-.883.353a3.316,3.316,0,0,1-.485.113Zm2.711.618a1.034,1.034,0,0,0,.3-.214,1.4,1.4,0,0,0-.258-.107,2.036,2.036,0,0,0,.258-.1,1.179,1.179,0,0,0-.523,0,.542.542,0,0,1-.107.429A2.276,2.276,0,0,1,12.943,9.031ZM11.562,14.175Zm-.252-.492a.63.63,0,0,1-.366.088.511.511,0,0,0,0,.29.731.731,0,0,0,.479.227,1.545,1.545,0,0,0,0-.252,2.017,2.017,0,0,1,.17.132A.586.586,0,0,0,11.31,13.683ZM8.2,17.327ZM7.6,16.974a.63.63,0,0,0,.063.252.511.511,0,0,0,.385.189v-.252a.567.567,0,0,0,.145.164,1.223,1.223,0,0,0-.12-.41A.763.763,0,0,1,7.6,16.974Zm20.578,6.512c0-.864-.92-1.21-1.482-1.57a3.53,3.53,0,0,0,.448-2.068,1.891,1.891,0,0,0-.145-.63,4.508,4.508,0,0,1-1.444-1.608l-.076-.2a2.862,2.862,0,0,0-.63.126,2.818,2.818,0,0,0-1.627,1.519l-.113.328a2.156,2.156,0,0,0-.076.46,1.608,1.608,0,0,1,1.122.277l-.3.359-.99,1.116a6.263,6.263,0,0,0-1.6,2.932,1.652,1.652,0,0,0,.057.63,2.276,2.276,0,0,1,1.053.214,15.673,15.673,0,0,1-3.732,2.181,12.136,12.136,0,0,1-4.558.8,12.193,12.193,0,0,1-4.558-.8A15.679,15.679,0,0,1,5.8,25.372a2.276,2.276,0,0,1,1.053-.214,1.677,1.677,0,0,0,.057-.63,6.263,6.263,0,0,0-1.6-2.932l-.983-1.116L4,20.145a1.608,1.608,0,0,1,1.122-.3,2.736,2.736,0,0,0-1.822-2.3,2.843,2.843,0,0,0-.63-.126l-.076.2a4.514,4.514,0,0,1-1.418,1.6,1.841,1.841,0,0,0-.145.63A3.53,3.53,0,0,0,1.482,21.9C.927,22.283,0,22.629,0,23.487a1.563,1.563,0,0,0,.246.807,13.038,13.038,0,0,0,3.026,3.543l1.305.977a16.391,16.391,0,0,0,9.513,3.014,16.045,16.045,0,0,0,9.507-3.02L24.9,27.83a13.044,13.044,0,0,0,3.026-3.543,1.576,1.576,0,0,0,.252-.8ZM24.31,18.1a.561.561,0,0,1,.681.246.719.719,0,0,1,0,.58,3.883,3.883,0,0,1-.63-.63,2.005,2.005,0,0,1-.2.107c.17.807-.3.75-.422.706A.467.467,0,0,1,23.6,18.9a2.471,2.471,0,0,1,.712-.794Zm-.9,1.557c0-.038-.044-.063,0-.088a.914.914,0,0,0,.87-.5,2.244,2.244,0,0,0,.145-.366,2.673,2.673,0,0,0,.448.422,2.068,2.068,0,0,1-.448.725,2.181,2.181,0,0,0-1.015-.189Zm-1.047,2.976.681-.9,1.179-1.362a3.19,3.19,0,0,0,1.166-1.891.668.668,0,0,0-.3-.63l-.132-.044a1.059,1.059,0,0,1,.347-.107,3.316,3.316,0,0,0,1.488,1.721,2.932,2.932,0,0,1-.366,2.257,1.116,1.116,0,0,1-.467-.63.2.2,0,0,0-.113-.177c-.712,0-1.192.6-1.715,1.084a20.533,20.533,0,0,0-1.677,2.106.675.675,0,0,1-.6.29.372.372,0,0,1-.158-.29,3.581,3.581,0,0,1,.662-1.431Zm-.82,2.32v-.17c.883.4,1.166-.63,1.513-1.053a11.411,11.411,0,0,1,1.683-2.049.422.422,0,0,1,.3.322.757.757,0,0,1-.057.334,8.3,8.3,0,0,1-2.225,2.78,4.489,4.489,0,0,0-1.217-.164Zm-14.91,0a4.482,4.482,0,0,0-1.21.164A8.284,8.284,0,0,1,3.2,22.371a.757.757,0,0,1-.05-.359.422.422,0,0,1,.3-.322,11.386,11.386,0,0,1,1.683,2.049c.347.41.63,1.45,1.513,1.053Zm-1.891-5.39c.044,0,0,.05,0,.088a2.181,2.181,0,0,0-.965.2,2.08,2.08,0,0,1-.479-.706,2.679,2.679,0,0,0,.448-.422h.032a2.188,2.188,0,0,0,.145.366.914.914,0,0,0,.845.485ZM3.871,18.1A2.465,2.465,0,0,1,4.6,18.9a.46.46,0,0,1-.132.214c-.126.044-.593.107-.422-.706a1.929,1.929,0,0,1-.2-.107,3.9,3.9,0,0,1-.63.63.719.719,0,0,1,0-.58.561.561,0,0,1,.656-.246ZM1.4,19.433a3.322,3.322,0,0,0,1.482-1.727,1.059,1.059,0,0,1,.347.107l-.132.044a.668.668,0,0,0-.3.63,3.2,3.2,0,0,0,1.166,1.891L5.138,21.74l.687.914a3.587,3.587,0,0,1,.668,1.437.372.372,0,0,1-.158.29.675.675,0,0,1-.6-.29A20.622,20.622,0,0,0,4.06,21.986c-.523-.492-1-1.078-1.715-1.084a.2.2,0,0,0-.12.17,1.116,1.116,0,0,1-.467.63,2.932,2.932,0,0,1-.359-2.27Zm26.422,4.413a15.926,15.926,0,0,1-7.4,6.38,15.4,15.4,0,0,1-6,1.261H13.75a15.408,15.408,0,0,1-6-1.261A15.744,15.744,0,0,1,.366,23.859,1.053,1.053,0,0,1,.479,23,4.646,4.646,0,0,1,1.8,22.068,5.264,5.264,0,0,1,.99,23.14a.057.057,0,0,0,.057.032A3.9,3.9,0,0,0,2.49,21.186a3.108,3.108,0,0,1,.467.2.63.63,0,0,0-.29.258.889.889,0,0,0,.113.92,13.872,13.872,0,0,0,9.866,6.059c.5.038.983.057,1.45.057a12.717,12.717,0,0,0,1.45-.057,13.872,13.872,0,0,0,9.866-6.059.889.889,0,0,0,.113-.92.63.63,0,0,0-.309-.29,3.108,3.108,0,0,1,.467-.2,3.9,3.9,0,0,0,1.425,1.986.057.057,0,0,0,.057-.032,5.308,5.308,0,0,1-.813-1.072A4.653,4.653,0,0,1,27.7,23a1.053,1.053,0,0,1,.12.857Z" transform="translate(0 -3.078)" fill="#7c0040"/>
  <path id="Path_664" data-name="Path 664" d="M23.935,22.112l.113-.328a2.308,2.308,0,0,0-.113.328ZM12.291,31.871a1.891,1.891,0,0,0-.41-.158,1.009,1.009,0,0,0-.63,0,.731.731,0,0,0-.467.523.712.712,0,0,0,.265.719,1.2,1.2,0,0,0,.435.2,1.1,1.1,0,0,0,.593,0l.069-.044a.99.99,0,0,1-.5,0,.757.757,0,0,1-.574-.908.586.586,0,0,1,.738-.435.574.574,0,0,1,.429.353,1.475,1.475,0,0,1,0,.17h.044a5.163,5.163,0,0,1,.2-.63h-.095a2.23,2.23,0,0,1-.088.208Zm1.45.132v.044l.2.05a4.76,4.76,0,0,1-.038.479v.095c-.082,0-.807-.076-.857-.082v-.1a1.989,1.989,0,0,1,.069-.473h.2v-.044h-.34l-.359-.044v.044l.24.032c0,.069-.038.46-.044.523v.2a5.961,5.961,0,0,1-.076.63h-.233V33.4h.366l.334.044V33.4l-.2-.05a3.516,3.516,0,0,1,.038-.555v-.069l.864.044v.12a2.6,2.6,0,0,1-.069.548H13.6v.044h.353l.347.044v-.006l-.208-.05a3.38,3.38,0,0,1,.05-.63V32.7c0-.057.057-.479.069-.523h.214V32.13h-.347Zm1.967.057V32.1h.227c0,.069.032.448.038.511V32.8a.693.693,0,0,1-.095.542.46.46,0,0,1-.315.113.473.473,0,0,1-.473-.574v-.277a3.613,3.613,0,0,1,0-.473L15.3,32.1v-.019h-.637v.044h.164a2.213,2.213,0,0,0,0,.467v.322a.63.63,0,0,0,.706.63.7.7,0,0,0,.46-.164.668.668,0,0,0,.164-.58v-.681l.145-.032v-.044h-.6Zm2.358-.258.151-.057V31.7l-.258.057-.3.05v.044h.208a8.1,8.1,0,0,1,.233,1.04c-.076-.044-.473-.378-.536-.422s-.548-.467-.63-.53l-.41.063v.038h.227c0,.069.2,1.217.183,1.305a1.432,1.432,0,0,1-.164.057v.044l.277-.057.3-.044V33.3H17.12c-.038-.069-.258-1.135-.258-1.179l.586.511a8.292,8.292,0,0,0,.813.63c0-.082-.145-.946-.158-1.04a3.228,3.228,0,0,1-.038-.422ZM3.055,27.622l-.17.076a1.2,1.2,0,0,1-.366-.347L3,26.96h.032a1.166,1.166,0,0,1,.214.34l-.113.082v.044l.334-.2v-.032l-.082.038a2.137,2.137,0,0,1-.3-.315h.032c.095-.076.41-.322.441-.334A1.028,1.028,0,0,1,3.787,27l-.113.095v.044l.359-.233H3.995l-.044-.05c-.044-.032-.353-.416-.391-.467l-.24-.3v.032c0,.044.095.151.113.189s-.3.258-.441.372l-.076.063c-.227.145-.53.378-.561.4A1.569,1.569,0,0,1,2.2,27H2.16l.2.24c.082.1.366.467.391.523l-.095.082v.038c.088-.057.359-.221.416-.246Zm1.627.17.132.095h.038l-.271-.3-.183-.2v.032a1.438,1.438,0,0,1,.095.139c-.095.025-1.173.536-1.324.574l-.145-.107H2.986l.177.189.214.227V28.41a1.261,1.261,0,0,1-.057-.139,5.125,5.125,0,0,1,.517-.3c.063.044.3.271.353.322s-.24.479-.3.561a1.608,1.608,0,0,1-.17-.126H3.679l.271.284.233.252v-.038l-.107-.151a7.03,7.03,0,0,1,.3-.687c.107-.2.258-.511.309-.593Zm-.782.126.593-.271c-.057.107-.227.46-.29.574Zm2.181,2.074-.24-.2-.258-.221v.044l.151.151a1.173,1.173,0,0,1-.095.132l-.069.088-.177.126a.63.63,0,0,1-.24-.126.782.782,0,0,1-.088-1.065.586.586,0,0,1,.845-.069.63.63,0,0,1,.3.5,1.816,1.816,0,0,1-.1.164v.05a5.384,5.384,0,0,1,.422-.479H6.485l-.151.126a1.891,1.891,0,0,0-.309-.359,1.047,1.047,0,0,0-.58-.252.738.738,0,0,0-.63.284.7.7,0,0,0-.069.744,1.318,1.318,0,0,0,.366.422,2.6,2.6,0,0,0,.454.284c.032-.05.1-.132.151-.2l.025-.025c.038-.044.126-.151.151-.17l.158.095Zm1.992.366.151.057v-.032L8,30.251l-.233-.139H7.733l.164.132a8.2,8.2,0,0,1-.523.933c0-.082-.1-.6-.113-.675s-.095-.712-.095-.794l-.391-.227v.044l.164.145c-.038.057-.662,1.04-.738,1.1a1.154,1.154,0,0,1-.164-.063v.032l.246.139.258.17v-.038c-.032,0-.158-.12-.177-.145a11.912,11.912,0,0,1,.593-1.053c0,.1.1.719.113.763s.151.939.177,1.028c.057-.063.523-.8.58-.876a3.266,3.266,0,0,1,.246-.366Zm.687.258v.038a1.342,1.342,0,0,1,.139.095c-.057.057-.9.9-1.028.99l-.177-.05v.038l.221.095.284.139v-.044a1.21,1.21,0,0,1-.151-.1,5.087,5.087,0,0,1,.378-.467,2.445,2.445,0,0,1,.448.177c.069.032-.044.53-.057.63l-.2-.063v.038l.322.139.309.151v-.044l-.151-.1a7.08,7.08,0,0,1,.032-.744,4.444,4.444,0,0,1,.069-.668l.158.044v-.038l-.359-.126Zm.095.845-.391-.189.454-.46C8.912,30.932,8.874,31.323,8.855,31.461Zm12.584.24a1.387,1.387,0,0,0-.082-.214l.158-.113-.3.132-.315.126v.038l.2-.063a1.185,1.185,0,0,1,.069.151l.044.1c.038.095.069.164.076.189a.63.63,0,0,1-.221.151.782.782,0,0,1-.977-.422.58.58,0,0,1,.322-.788.662.662,0,0,1,.574,0,1.664,1.664,0,0,1,.095.164h.057a5.8,5.8,0,0,1-.227-.63h-.038a1.4,1.4,0,0,0,.044.189,1.891,1.891,0,0,0-.448.132,1.047,1.047,0,0,0-.5.391.738.738,0,0,0-.057.706.7.7,0,0,0,.63.416,1.343,1.343,0,0,0,.542-.12A2.585,2.585,0,0,0,21.565,32a1.1,1.1,0,0,0-.1-.227Zm2.024-.612c0-.076-.46-.838-.5-.927a3.266,3.266,0,0,1-.189-.4l.095-.1v-.038l-.221.139-.271.151.2-.082a8.1,8.1,0,0,1,.624.908,4.348,4.348,0,0,1-.63-.214c-.057-.025-.675-.252-.75-.29l-.4.252v.032a1.67,1.67,0,0,1,.189-.076,11.439,11.439,0,0,1,.63,1.166,1.2,1.2,0,0,1-.132.113v.044l.24-.151.271-.151v-.032l-.208.088a10.148,10.148,0,0,1-.63-1.015l.7.233c.069.044.908.328.99.347Zm2.761-2.434c-.113-.076-.908-.63-1.091-.794l.107-.139v-.038l-.208.2-.214.183h.038a.989.989,0,0,1,.126-.076c0,.038.34.914.378,1.04-.151-.076-.794-.4-.971-.5a1.488,1.488,0,0,1,.095-.126v-.038l-.227.214-.227.2h.038l.17-.12c.088.145.63,1.059.668,1.185a1.261,1.261,0,0,1-.088.12V30l.164-.158.233-.2h-.038l-.158.1a8.562,8.562,0,0,1-.63-.971c.069.044,1.059.542,1.185.63-.032-.126-.4-1.141-.448-1.261.088.076.851.63.889.706l-.151.17v.038l.277-.265.221-.189h-.038Zm1.393-1.639c-.063-.057-.34-.246-.517-.4l-.113-.095c-.044-.032-.372-.309-.4-.34L26.7,26v-.038l-.214.271-.233.271h.038l.151-.139a4.678,4.678,0,0,1,.378.29l.076.063c-.038.076-.5.63-.542.668l-.076-.063c-.139-.113-.322-.277-.359-.315q.044-.078.095-.151v-.038l-.208.265-.24.277h.038l.158-.151c.057.038.359.284.41.328l.151.12c.12.1.391.322.46.391a2.043,2.043,0,0,1-.113.183v.038l.227-.29.221-.258h-.038l-.151.139c-.063-.044-.277-.2-.441-.34l-.057-.044s.448-.63.511-.693l.095.076c.17.139.372.309.422.359s-.088.151-.107.177v.038l.221-.277.227-.265h-.038Zm-3.335,3.291a4.547,4.547,0,0,1-.4-.523l-.076-.1a3.771,3.771,0,0,1-.315-.448l.158-.151V29.04l-.252.2-.334.246H23.1l.2-.107c.05.05.277.366.315.422l.069.1c.12.164.347.479.391.548l-.158.151v.038l.258-.2.322-.221h-.032Zm-.788-1.582-.189-.095c-.032.095-.2.536-.208.555l.076.044a4.356,4.356,0,0,1,.322-.5Zm19.43-13.466v-.221a.076.076,0,0,0-.1-.057H40.371a.1.1,0,0,0-.095.107v.233a.145.145,0,0,0,.164.126c.63,0,.838.107.838.845v3.858c0,1.715-.914,2.345-2.446,2.345-1.173,0-1.929-.485-1.929-1.891V16.242c0-.706.227-.826.864-.826.095,0,.151,0,.151-.095v-.265c0-.082,0-.107-.095-.107-.5,0-.82.057-1.349.057s-1.381-.025-1.879-.025a.113.113,0,0,0-.139.12v.265a.107.107,0,0,0,.132.082c.63,0,.87.038.87.687v4.52c0,2.156,1.475,2.692,3.266,2.692a3.587,3.587,0,0,0,2.364-.883,3.1,3.1,0,0,0,.832-2.522v-3.48c0-.763.044-1.047.851-1.047.139,0,.151-.019.151-.158Z" transform="translate(-0.798 -5.776)" fill="#7c0040"/>
  <path id="Path_665" data-name="Path 665" d="M73.587,16.556c-.233,0-.46.044-.82.044s-.681-.044-1.122-.044c-.076,0-.132,0-.132.1v.158a.132.132,0,0,0,.164.113c.63,0,.63.214.63.813V20.61a3.152,3.152,0,0,1-.044.63.259.259,0,0,1-.113-.12L70.259,18.8q-.482-.586-.927-1.173l-.675-.864a.359.359,0,0,0-.214-.214c-.378,0-.719.044-1.1.044s-.586-.044-.9-.044a.088.088,0,0,0-.095.095v.227a.082.082,0,0,0,.088.082c.876,0,.99.082.99,1.6v3.234c0,.933-.3.965-.807.965a.088.088,0,0,0-.088.1v.158c0,.076.038.113.158.113.4,0,.813-.044,1.141-.044s.467.044.832.044c.095,0,.132,0,.132-.082v-.2c0-.082-.069-.082-.158-.082-.53,0-.693-.057-.693-1.04V18.346a.908.908,0,0,1,.076-.422.63.63,0,0,1,.233.24L71.8,22.545c.139.17.271.334.517.63a.53.53,0,0,0,.473.12c.082,0,.088,0,.088-.076V18.075c0-.939.113-1.128.542-1.147.233,0,.3,0,.3-.095v-.189a.126.126,0,0,0-.139-.088Zm3.152,6.569a.088.088,0,0,0,.107-.1v-.183a.076.076,0,0,0-.095-.082c-.435,0-.719-.063-.719-.586V17.5a.511.511,0,0,1,.63-.561c.095,0,.17,0,.17-.057v-.271c0-.044-.044-.057-.113-.057-.214,0-.725.044-1.318.044s-1.078-.044-1.217-.044-.069.038-.069.095v.221c0,.044.063.063.132.063.416,0,.63.057.63.561v4.672c0,.5-.258.586-.668.586-.088,0-.12,0-.12.076v.24a.057.057,0,0,0,.063.057c.448,0,.908-.044,1.355-.044s.826.044,1.229.044Zm6.954-6.569c-.214,0-.53.044-.744.044-.63,0-.864-.044-1.078-.044a.1.1,0,0,0-.12.095v.189a.076.076,0,0,0,.069.095c.416,0,.693,0,.693.315a2.465,2.465,0,0,1-.183.725L81.19,21.127a.946.946,0,0,1-.158.328c-.044,0-.063-.038-.12-.2L79.8,18.3a5.673,5.673,0,0,1-.372-1.135c0-.233.322-.24.63-.24a.076.076,0,0,0,.088-.095v-.164a.088.088,0,0,0-.095-.113c-.63,0-1.047.044-1.513.044s-.832-.044-1.166-.044a.082.082,0,0,0-.1.095v.177a.095.095,0,0,0,.1.1.744.744,0,0,1,.813.473c.233.416,1.929,5.176,2.213,5.787.044.082,0,.069.2.082h.164c.095,0,.113,0,.158-.12.693-1.891,1.393-3.751,2.112-5.611a.7.7,0,0,1,.63-.63.1.1,0,0,0,.113-.1v-.132C83.782,16.613,83.782,16.556,83.693,16.556Zm5.2,5.113a.2.2,0,0,0-.158.139l-.265.435a.63.63,0,0,1-.63.467h-1.2c-.58,0-.681-.233-.681-.744V19.822H86.8c.366,0,.63,0,.712.252a1.6,1.6,0,0,1,.069.542.063.063,0,0,0,.076.076h.2c.044,0,.069-.057.069-.139V18.681c0-.038,0-.063-.095-.063h-.145a.063.063,0,0,0-.069.063c-.145.763-.429.712-1.065.712h-.593V17.779c0-.757.107-.8.574-.8h.82c.567,0,.794.113.851.826,0,.139,0,.183.057.183h.177a.1.1,0,0,0,.113-.1V16.663c0-.05,0-.113-.076-.113-.927,0-1.891.044-2.787.044-.441,0-1.122-.044-1.469-.044-.088,0-.164,0-.164.095v.189c0,.095.063.095.145.095.271,0,.63,0,.63.485v4.615c0,.63-.252.706-.5.725s-.3.038-.3.132v.17a.069.069,0,0,0,.069.076c.517,0,1.028-.044,1.551-.044,1.065,0,2.137.044,3.2.044.139-.467.252-.82.353-1.179a.4.4,0,0,0,0-.139A.353.353,0,0,0,88.894,21.669Zm7.13,1.084a1.078,1.078,0,0,1-.971-.681l-.876-1.507a3.581,3.581,0,0,0-.851-1.078,1.456,1.456,0,0,0,1.387-1.362,1.639,1.639,0,0,0-1.734-1.57c-.725,0-.422,0-1.393.044-.63,0-1.261-.044-1.677-.044-.044,0-.063,0-.063.082v.233a.057.057,0,0,0,.05.063h.277c.4,0,.473.258.473,1.2v3.594c0,.864-.069.99-.719,1.034a.12.12,0,0,0-.107.132v.177c0,.057,0,.063.113.063.3,0,1.1-.044,1.463-.044s.693.044,1.04.044c.05,0,.095,0,.095-.076v-.233a.063.063,0,0,0-.069-.076c-.391,0-.668-.145-.668-.933v-2a.832.832,0,0,1,.965.555L93.894,22.5c.252.467.328.63.517.63s.4-.044.63-.044c.347,0,.693.038,1.04.044v-.315a.057.057,0,0,0-.057-.063Zm-3.871-3.36h-.347V17.735c0-.416,0-.763.574-.763A1.065,1.065,0,0,1,93.465,18.2a1.166,1.166,0,0,1-1.311,1.192Zm4.924-1.551a.971.971,0,0,1,1.059-1.015c.7,0,1.047.5,1.16,1.261h.391V16.922a2.314,2.314,0,0,0-1.469-.511,1.891,1.891,0,0,0-2.043,1.973c0,2.181,2.976,1.784,2.976,3.4a1.11,1.11,0,0,1-1.261,1.072c-.876,0-1.185-.63-1.4-1.217h-.353c.044.416.095.838.126,1.261a3.272,3.272,0,0,0,1.608.385,2.036,2.036,0,0,0,2.181-2.036c.006-2.295-2.976-1.822-2.976-3.411Zm6.33,5.182v-.183a.076.076,0,0,0-.095-.082c-.435,0-.719-.063-.719-.586V17.5a.511.511,0,0,1,.63-.561c.095,0,.17,0,.17-.057v-.271c0-.044-.044-.057-.113-.057-.214,0-.725.044-1.318.044s-1.1-.044-1.223-.044-.069.038-.069.095v.221c0,.044.063.063.132.063.416,0,.63.057.63.561v4.672c0,.5-.258.586-.668.586-.088,0-.12,0-.12.076v.24a.057.057,0,0,0,.063.057c.448,0,.908-.044,1.362-.044s.813.044,1.223.044a.088.088,0,0,0,.113-.1Zm12.842-6.468c-.139,0-.435.044-.933.044-.34,0-.63-.044-.832-.044a.082.082,0,0,0-.076.1v.151a.1.1,0,0,0,.1.12c.277,0,.555,0,.555.17a1.816,1.816,0,0,1-.309.687l-.99,1.608-1.141-1.809a1.633,1.633,0,0,1-.284-.548c0-.12.24-.139.58-.139.082,0,.113,0,.113-.095v-.183c0-.044-.032-.063-.132-.063-.233,0-.63.044-1.047.044-.574,0-.983-.044-1.463-.044a.107.107,0,0,0-.132.095v.158a.107.107,0,0,0,.113.12c.416,0,.63.271.908.738l1.419,2.289a.467.467,0,0,1,.069.252v2a.58.58,0,0,1-.712.548.082.082,0,0,0-.095.095v.208a.069.069,0,0,0,.088.076c.4,0,.75-.044,1.261-.044s.946.044,1.374.044a.076.076,0,0,0,.088-.082v-.183c0-.063,0-.113-.069-.113a.63.63,0,0,1-.763-.523V20.124a.9.9,0,0,1,.183-.385L115,18.271c.12-.2.24-.391.366-.574a1.387,1.387,0,0,1,.857-.763c.088,0,.12,0,.12-.095V16.65c-.025-.082-.05-.095-.095-.095Zm22.381,5.4a4.848,4.848,0,0,0,.113-.58.63.63,0,0,0-.4-.139.177.177,0,0,0-.151.113c-.675,1.2-.788,1.261-2.213,1.261-1.173,0-1.33-.29-1.33-1.009V16.134c0-.63.429-.719.971-.719a.107.107,0,0,0,.113-.126v-.246a.076.076,0,0,0-.082-.095c-.5,0-1.009.057-1.519.057-1.122,0-1.8-.057-1.986-.057a.113.113,0,0,0-.139.12v.24a.095.095,0,0,0,.113.107c.719,0,.977.3.977,1.2v4.867c0,.971-.177,1.179-.965,1.179a.113.113,0,0,0-.126.126v.258a.082.082,0,0,0,.095.082c.889,0,2.352-.057,3.121-.057s2.049.057,3.1.057a7.961,7.961,0,0,0,.315-1.173Zm3.152.794c-.467,0-.775-.063-.775-.586V17.5a.536.536,0,0,1,.668-.561c.1,0,.189,0,.189-.057v-.271c0-.044-.044-.057-.12-.057-.233,0-.782.044-1.412.044s-1.179-.044-1.311-.044-.076.038-.076.095v.221c0,.044.063.063.139.063.448,0,.687.057.687.561v4.672c0,.5-.277.586-.719.586-.095,0-.132,0-.132.076v.24a.063.063,0,0,0,.063.057c.485,0,.977-.044,1.463-.044s.876.044,1.311.044c.076,0,.12,0,.12-.1v-.183C141.883,22.785,141.858,22.753,141.782,22.753Zm9.041.3v-.208c0-.057-.044-.082-.132-.095a1.753,1.753,0,0,1-.422-.082c-.29-.126-.29-.561-.29-1.311v-3.9c0-.385.05-.53.586-.53.113,0,.183,0,.183-.082v-.214c0-.063-.063-.076-.177-.076-.24,0-.63.044-.977.044s-.7-.044-1.053-.044c-.044.139-.095.309-.158.454-.58,1.305-1.1,2.642-1.677,3.947l-1.961-4.413c-.41,0-.838.044-1.078.044s-.92-.044-1.034-.044-.057,0-.057.095v.17c0,.082,0,.12.057.12.586,0,.914.139.914.8V18.2l-.095,2.522c0,.53-.076,1.053-.1,1.582,0,.385-.095.41-.511.454h-.214c-.076,0-.095.038-.095.082v.221c0,.057.057.063.17.063.353,0,.63-.044.971-.044s.687.044.933.044c.1,0,.158,0,.158-.076V22.86a.095.095,0,0,0-.076-.113c-.523-.076-.857-.145-.857-.738a10.7,10.7,0,0,1,.05-1.261l.151-2.85c.731,1.753,1.582,3.455,2.15,5.277a.126.126,0,0,0,.151.076.132.132,0,0,0,.139-.063,41.3,41.3,0,0,1,2.263-5.674c.038.63.038,1.173.038,4.224,0,.845-.044.983-.864.983-.05,0-.057.038-.057.1v.158c0,.076,0,.113.12.113.5,0,.7-.044,1.519-.044.416,0,.807.044,1.173.044.082.032.158.032.158-.038Zm6.147-1.141a.378.378,0,0,0,0-.139.4.4,0,0,0-.347-.139.214.214,0,0,0-.17.139l-.29.435a.687.687,0,0,1-.687.467h-1.261a.63.63,0,0,1-.738-.744V19.822h.914c.391,0,.63,0,.763.252a1.463,1.463,0,0,1,.076.542.069.069,0,0,0,.082.076h.214c.044,0,.076-.057.076-.139V18.681c0-.038,0-.063-.1-.063h-.158a.069.069,0,0,0-.076.063c-.139.763-.448.725-1.135.725h-.63V17.779c0-.757.113-.8.63-.8h.889c.63,0,.857.113.914.826,0,.139,0,.183.063.183h.183a.1.1,0,0,0,.12-.1V16.663c0-.05,0-.113-.082-.113-1,0-2,.044-2.995.044-.473,0-1.21-.044-1.582-.044-.095,0-.177,0-.177.095v.189c0,.095.063.095.158.095.29,0,.63,0,.63.485v4.615c0,.63-.271.706-.542.725s-.315.038-.315.132v.17a.069.069,0,0,0,.076.076c.561,0,1.11-.044,1.664-.044,1.147,0,2.3.044,3.442.044C156.736,22.659,156.856,22.306,156.97,21.915ZM163.961,23.125Zm-.113-.057v-.24a.069.069,0,0,1,.069-.069,1.16,1.16,0,0,1-1.04-.681l-.939-1.507a3.625,3.625,0,0,0-.914-1.078c.763-.132,1.488-.542,1.488-1.362,0-1.261-1.261-1.57-1.891-1.57-.782,0-.454,0-1.5.044-.706,0-1.387-.044-1.8-.044-.044,0-.063,0-.063.082v.227a.057.057,0,0,0,.057.063h.3c.429,0,.511.258.511,1.2v3.594c0,.864-.076.99-.769,1.034a.12.12,0,0,0-.113.132v.177c0,.057,0,.063.12.063.328,0,1.185-.044,1.576-.044s.744.044,1.116.044c.057,0,.1,0,.1-.076v-.233a.063.063,0,0,0-.076-.076c-.416,0-.719-.145-.719-.933v-2a.9.9,0,0,1,1.034.555L161.6,22.5c.271.467.353.63.555.63s.429-.044.63-.044c.353,0,.7.032,1.053.044A.057.057,0,0,1,163.848,23.068Zm-4.1-3.675h-.372V17.735c0-.416,0-.763.63-.763a1.1,1.1,0,0,1,1.16,1.229,1.223,1.223,0,0,1-1.418,1.192Zm6.96,3.36c-.467,0-.775-.063-.775-.586V17.5a.536.536,0,0,1,.668-.561c.1,0,.189,0,.189-.057v-.271c0-.044-.05-.057-.12-.057-.233,0-.782.044-1.412.044s-1.179-.044-1.311-.044-.076.038-.076.095v.221c0,.044.063.063.139.063.448,0,.687.057.687.561v4.672c0,.5-.277.586-.719.586h-.057a.057.057,0,0,1,.044.05v.315c.467,0,.946-.044,1.412-.044s.876.044,1.311.044c.076,0,.12,0,.12-.1v-.177c.006-.057-.025-.088-.1-.088ZM163.911,23.125Z" transform="translate(-25.851 -5.638)" fill="#7c0040"/>
  <path id="Path_666" data-name="Path 666" d="M195.091,23.626a.069.069,0,0,0-.069.069v.24a.057.057,0,0,0,.05.05h.063V23.67a.057.057,0,0,0-.044-.044Zm9.217-1.437a.4.4,0,0,0-.151.24,1.816,1.816,0,0,1-1.954,1.261,2.827,2.827,0,0,1-2.642-3.014,2.654,2.654,0,0,1,2.522-2.919c1.11,0,1.5.63,2,1.507l.29-.076a.05.05,0,0,0,.057-.057c0-.063-.1-.8-.158-1.192a.366.366,0,0,0-.189-.158,4.457,4.457,0,0,0-2.068-.492c-1.891,0-3.884,1.261-3.884,3.316,0,2.326,1.74,3.556,3.934,3.556a5.479,5.479,0,0,0,2.244-.473l.277-1.1a1.362,1.362,0,0,0,.044-.221.5.5,0,0,0-.322-.183Zm7.307,1.431a.971.971,0,0,1-.9-.561c-.385-.63-.788-1.192-1.173-1.784l-1.078-1.645,1.507-1.582a1.122,1.122,0,0,1,.845-.221.082.082,0,0,0,.1-.095V17.5c0-.063-.05-.082-.132-.082-.29,0-.807.044-1.292.044s-.725-.044-.9-.044a.088.088,0,0,0-.1.095v.177c0,.063,0,.1.082.1.416,0,.63,0,.63.233,0,.41-1.784,2.017-2.169,2.364V18.456c0-.63.183-.63.681-.63.095,0,.139,0,.139-.082v-.227a.082.082,0,0,0-.1-.095c-.416,0-.883.044-1.343.044s-.9-.044-1.324-.044c-.076,0-.12,0-.12.095v.17c0,.076,0,.113.095.113.53,0,.738.05.738.775v4.457c0,.523-.252.593-.7.593-.113,0-.139.044-.139.095V23.9a.095.095,0,0,0,.1.1c.29,0,.63-.044,1.261-.044.448,0,.883.044,1.431.044.076,0,.1,0,.1-.057v-.233a.069.069,0,0,0-.082-.082c-.4,0-.725,0-.725-.593V20.89l.473-.353,1.589,2.522a.87.87,0,0,1,.183.4c0,.132-.233.158-.63.164a.076.076,0,0,0-.076.082v.2a.082.082,0,0,0,.1.095c.271,0,.63-.044,1.173-.044s1.135.044,1.734.044a.076.076,0,0,0,.076-.082v-.2a.076.076,0,0,0-.057-.095Zm-56.513-3.4a1.715,1.715,0,0,0-1.69-1.746,2.73,2.73,0,0,0-2.7,2.522,1.683,1.683,0,0,0,1.633,1.784,2.823,2.823,0,0,0,2.761-2.56Zm-1.8,1.891a1.21,1.21,0,0,1-.939.448.845.845,0,0,1-.769-.99c0-1.053.668-2.906,1.854-2.906a.851.851,0,0,1,.794,1.009,4.211,4.211,0,0,1-.939,2.478Z" transform="translate(-57.025 -6.513)" fill="#7c0040"/>
  <path id="Path_667" data-name="Path 667" d="M150.165,17.224a.416.416,0,0,0,.422-.4.58.58,0,0,0-.675-.467,2.32,2.32,0,0,0-1.488.668,2.679,2.679,0,0,0-.706,1.217h-.668a.277.277,0,0,0-.158.221.069.069,0,0,0,.063.082h.668c-.548,1.822-.687,2.333-1.217,4.306-.12.448-.34,1.261-.706,1.261a.322.322,0,0,1-.246-.277.441.441,0,0,0-.429-.391.378.378,0,0,0-.391.385.694.694,0,0,0,.775.555,1.765,1.765,0,0,0,1.084-.422c.586-.467.693-.769,1.664-4.255l.328-1.179h.876a.233.233,0,0,0,.145-.221.069.069,0,0,0-.063-.082h-.87c.126-.485.422-1.563.832-1.563a.3.3,0,0,1,.221.2.63.63,0,0,0,.536.366Zm-19.7,6.046c-.473,0-.712-.183-.712-.876V17.533h1.053c.511,0,.7.63.857.864a.1.1,0,0,0,.095.063c.214,0,.252,0,.252-.151s-.17-1.116-.214-1.589a.057.057,0,0,0-.063-.063h-.284a.63.63,0,0,1-.586.41h-3.36a.63.63,0,0,1-.593-.41h-.277a.057.057,0,0,0-.063.063c-.044.473-.214,1.519-.214,1.589s.038.151.252.151a.1.1,0,0,0,.095-.063c.158-.258.347-.864.857-.864h1.047v4.9c0,.668-.113.82-.75.82-.063,0-.076.044-.076.12v.2c0,.063.063.076.158.076.252,0,.536-.044,1.065-.044s1.261.044,1.482.044c.069,0,.113,0,.113-.063v-.227c-.013-.057-.057-.082-.132-.082Z" transform="translate(-47.502 -6.164)" fill="#7c0040"/>
  <path id="Path_668" data-name="Path 668" d="M57.106,40.486a1.488,1.488,0,0,0-1.084.429,1.419,1.419,0,0,0-.441,1.015,1.374,1.374,0,0,0,.5,1.065,1.891,1.891,0,0,0,1.1.353,1.475,1.475,0,0,0,1.545-1.437,1.5,1.5,0,0,0-1.62-1.425Zm.132,2.7a.838.838,0,0,1-.693-.523,1.935,1.935,0,0,1-.2-.87c0-.448.177-1.16.738-1.16s.9.864.9,1.387-.189,1.173-.757,1.173Zm6.721-.605c-.177,0-.183.536-.82.536-.315,0-.359-.17-.359-.422V41.161c0-.29,0-.378.277-.429a.107.107,0,0,0,.12-.088c0-.069-.05-.082-.107-.082H61.765c-.063,0-.107,0-.107.082s.088.076.139.088c.277.05.252.164.252.429V42.7c0,.284,0,.353-.277.4a.12.12,0,0,0-.12.107c0,.063.044.076.107.076h2.03c.107,0,.151,0,.164-.088a3.45,3.45,0,0,0,.088-.5c0-.076,0-.113-.082-.113Zm5.252,0c-.177,0-.183.536-.82.536-.315,0-.347-.17-.347-.4V41.161c0-.29,0-.378.277-.429a.107.107,0,0,0,.132-.088c0-.069-.05-.082-.107-.082H67.041c-.063,0-.107,0-.107.082s.088.076.139.088c.277.05.252.164.252.429V42.7c0,.284,0,.353-.277.4a.12.12,0,0,0-.12.107c0,.063.044.076.107.076h1.034l1.015.044c.107,0,.151,0,.164-.088a3.945,3.945,0,0,0,.069-.523c-.025-.095-.038-.132-.107-.132ZM73.5,41.52l-.233-.082a.448.448,0,0,1-.4-.378.454.454,0,0,1,.5-.4.561.561,0,0,1,.5.479.132.132,0,0,0,.12.12c.095,0,.088-.095.088-.164v-.29a.177.177,0,0,0-.069-.2,1.582,1.582,0,0,0-.574-.113,1.047,1.047,0,0,0-1.141.889.971.971,0,0,0,.769.782.757.757,0,0,1,.63.567.536.536,0,0,1-.6.467.63.63,0,0,1-.454-.158.744.744,0,0,1-.177-.366.214.214,0,0,0-.151-.208c-.069-.013-.069.151-.069.227v.24a.221.221,0,0,0,.126.271,2.03,2.03,0,0,0,.738.145,1.261,1.261,0,0,0,.807-.265.933.933,0,0,0,.347-.7A.908.908,0,0,0,73.5,41.52Zm6.525,1a.126.126,0,0,0-.107.095,1.261,1.261,0,0,1-.29.4.731.731,0,0,1-.46.17.889.889,0,0,1-.744-.441A1.62,1.62,0,0,1,78.2,41.9a1.5,1.5,0,0,1,.24-.851.908.908,0,0,1,.731-.391c.593,0,.63.523.807.523a.076.076,0,0,0,.082-.076.63.63,0,0,0,0-.126l-.038-.221c0-.126,0-.139-.139-.177a2.591,2.591,0,0,0-.63-.095,2.15,2.15,0,0,0-1.261.366,1.362,1.362,0,0,0-.567,1.084,1.4,1.4,0,0,0,.555,1.084,1.992,1.992,0,0,0,1.154.322,1.652,1.652,0,0,0,.838-.2.252.252,0,0,0,.139-.277v-.183c0-.063.006-.164-.088-.164Zm4.709-2.036a1.488,1.488,0,0,0-1.078.429,1.425,1.425,0,0,0-.441,1.015A1.374,1.374,0,0,0,83.71,43a1.891,1.891,0,0,0,1.1.353,1.475,1.475,0,0,0,1.538-1.437,1.507,1.507,0,0,0-1.62-1.425Zm.113,2.711a.838.838,0,0,1-.693-.523,1.948,1.948,0,0,1-.2-.87c0-.448.177-1.16.738-1.16s.9.864.9,1.387S85.425,43.2,84.845,43.2Zm5.9-2.465a.107.107,0,0,0,.12-.088c0-.069-.05-.082-.107-.082H89.454c-.063,0-.107,0-.107.082s.088.076.139.088c.284.05.252.164.252.429V42.7c0,.284,0,.359-.277.41a.113.113,0,0,0-.12.1c0,.063.044.082.107.082h1.305a.088.088,0,0,0,.107-.082.126.126,0,0,0-.139-.1c-.277-.044-.258-.151-.258-.41V41.161c.013-.3-.013-.353.284-.429Zm5.371,1.854c-.177,0-.183.536-.82.536-.315,0-.353-.17-.353-.4V41.161c0-.29,0-.378.277-.429a.113.113,0,0,0,.126-.088c0-.069-.05-.082-.107-.082H93.936c-.063,0-.107,0-.107.082s.088.076.139.088c.284.05.252.164.252.429V42.7c0,.284,0,.353-.277.4a.12.12,0,0,0-.12.107c0,.063.044.076.107.076h2.03c.107,0,.151,0,.164-.088a3.788,3.788,0,0,0,.069-.5c0-.076,0-.113-.076-.113Zm9.261,0c-.177,0-.183.536-.82.536-.315,0-.347-.17-.347-.4V41.161c0-.29,0-.378.277-.429a.107.107,0,0,0,.12-.088c0-.069-.05-.082-.107-.082H103.2c-.063,0-.107,0-.107.082s.088.076.139.088c.277.05.252.164.252.429V42.7c0,.284,0,.353-.277.4a.12.12,0,0,0-.12.107c0,.063.044.076.107.076h2.03c.107,0,.151,0,.164-.088a3.946,3.946,0,0,0,.069-.523c.006-.05-.006-.088-.076-.088Zm6-2.024H110.6c-.063,0-.151,0-.151.088s.1.076.17.082a.271.271,0,0,1,.233.126.971.971,0,0,1,.038.353v1.11a.876.876,0,0,1-.132.63.757.757,0,0,1-.63.246.63.63,0,0,1-.63-.353,2.371,2.371,0,0,1-.063-.687v-1c0-.29,0-.378.277-.429a.107.107,0,0,0,.12-.088c0-.069-.05-.082-.107-.082h-1.305c-.063,0-.107,0-.107.082s.088.076.139.088c.284.05.252.164.252.429v1.2a.807.807,0,0,0,.359.8,1.765,1.765,0,0,0,.876.2,1.368,1.368,0,0,0,.87-.252.864.864,0,0,0,.258-.782V41.18a1.482,1.482,0,0,1,0-.309.189.189,0,0,1,.2-.139c.063,0,.158,0,.158-.082a.088.088,0,0,0-.038-.088Zm4.356.17a.107.107,0,0,0,.12-.088c0-.069-.044-.082-.107-.082h-1.305c-.063,0-.107,0-.107.082s.088.076.139.088c.277.05.252.164.252.429V42.7c0,.284,0,.359-.277.41a.113.113,0,0,0-.12.1c0,.063.044.082.107.082h.63l.668.038a.082.082,0,0,0,.107-.082.126.126,0,0,0-.139-.1c-.277-.044-.258-.151-.258-.41V41.161C115.466,40.865,115.447,40.808,115.737,40.732Zm6.506,2.4a.164.164,0,0,1-.164-.095,1,1,0,0,1-.038-.334l-.05-1.639c0-.17,0-.347.183-.359.069,0,.183,0,.183-.082s-.063-.095-.126-.095h-.845a.164.164,0,0,0-.12.151l-.63,1.563-.681-1.6c-.032-.082,0-.12-.12-.12h-.813c-.069,0-.17,0-.17.095s.12.076.189.082c.221,0,.2.107.189.3l-.088,1.759c0,.164,0,.309-.183.334-.063,0-.183,0-.183.1s.05.076.107.076h.794a.107.107,0,0,0,.132-.088c0-.107-.145-.095-.208-.095-.246,0-.246-.2-.24-.391l.057-1.519.813,1.929a.151.151,0,0,0,.139.139c.139,0,.151-.12.183-.221l.775-1.891v1.639c0,.164,0,.284-.2.309-.076,0-.2,0-.2.107s.069.076.126.076h1.185c.063,0,.158,0,.158-.088s-.095-.05-.158-.05Zm6.178-2.566h-.775c-.063,0-.164,0-.164.095s.088.069.164.082a.265.265,0,0,1,.233.151.9.9,0,0,1,.038.309v1.059l-1.261-1.551a.24.24,0,0,0-.271-.145h-.769c-.063,0-.151,0-.151.076s.1.088.17.095c.221,0,.2.208.2.378v1.362a1.835,1.835,0,0,1-.038.517.177.177,0,0,1-.183.132c-.069,0-.183,0-.183.095a.1.1,0,0,0,.12.088h.826a.107.107,0,0,0,.132-.088c0-.095-.12-.088-.183-.095a.24.24,0,0,1-.252-.164,1.892,1.892,0,0,1,0-.422v-1.45l1.727,2.156a.315.315,0,0,0,.227.17c.151,0,.126-.076.126-.2V41.136c0-.17,0-.378.183-.41.076,0,.221,0,.221-.082s-.069-.082-.139-.082Zm4.5.17c.05,0,.12,0,.12-.088s-.044-.082-.107-.082h-1.305c-.063,0-.107,0-.107.082s.088.076.139.088c.277.05.252.164.252.429V42.7c0,.284,0,.359-.277.41a.113.113,0,0,0-.12.1c0,.063.044.082.107.082h1.305a.082.082,0,0,0,.1-.082.126.126,0,0,0-.139-.1c-.277-.044-.258-.151-.258-.41V41.161C132.639,40.865,132.62,40.808,132.916,40.732Zm6.1,1.192H137.8c-.069,0-.177,0-.177.1a.1.1,0,0,0,.12.095.334.334,0,0,1,.284.088.839.839,0,0,1,.05.391v.183a.631.631,0,0,1-.044.3.441.441,0,0,1-.29.082c-.687,0-.946-.693-.946-1.261a1.551,1.551,0,0,1,.221-.838.87.87,0,0,1,.719-.4c.63,0,.567.523.775.523a.088.088,0,0,0,.1-.1,1.183,1.183,0,0,0,0-.214c-.038-.258,0-.246-.24-.3a2.446,2.446,0,0,0-.586-.082,1.614,1.614,0,0,0-1.753,1.488,1.261,1.261,0,0,0,.555,1.065,2.3,2.3,0,0,0,1.948.177.485.485,0,0,0,.29-.265v-.567c0-.2,0-.227.2-.265a.126.126,0,0,0,.132-.107.088.088,0,0,0-.145-.088Zm6.178-1.166a.107.107,0,0,0,.126-.088c0-.069-.05-.082-.107-.082h-1.305c-.063,0-.107,0-.107.082s.082.082.139.088c.277.057.252.164.246.435v.422c0,.164,0,.158-.145.158h-.782c-.151,0-.158,0-.158-.158v-.467c0-.29,0-.378.284-.422a.107.107,0,0,0,.126-.082c0-.069-.044-.082-.107-.088H142.1c-.063,0-.107,0-.107.082s.088.082.139.088c.277.05.252.164.246.435v1.551c0,.284,0,.359-.284.4a.113.113,0,0,0-.12.1.082.082,0,0,0,.1.088h1.305a.082.082,0,0,0,.107-.082.126.126,0,0,0-.139-.1c-.277-.05-.252-.151-.252-.41v-.63c0-.183,0-.164.177-.158h.782c.12,0,.126,0,.132.107V42.7c0,.284,0,.359-.284.4a.113.113,0,0,0-.12.1.082.082,0,0,0,.1.082h1.3a.082.082,0,0,0,.107-.082.126.126,0,0,0-.139-.1c-.277-.05-.252-.151-.252-.41V41.136c.013-.252-.006-.328.29-.378Z" transform="translate(-21.244 -15.211)" fill="#004990"/>
</svg>
