<svg xmlns="http://www.w3.org/2000/svg" width="137.808" height="47.651" viewBox="0 0 137.808 47.651">
  <g id="dfds-vector-logo" transform="translate(-0.02 -0.399)">
    <path id="Path_37" data-name="Path 37" d="M74.537,36.685c-.358,0-.537-.089-.537-.537V15.205c0-.358.09-.537.537-.537H84.65c3.938,0,6.175,2.148,6.175,5.817V30.778c0,3.669-2.237,5.817-6.175,5.817H74.537Zm9.487-4.475c1.521,0,2.058-.626,2.058-2.237V21.291c0-1.611-.626-2.237-2.058-2.237h-5.28V32.12h5.28ZM98.7,36.148c0,.358-.09.537-.537.537H94.405c-.358,0-.537-.089-.537-.537V15.205c0-.358.09-.537.537-.537h13.514c.358,0,.537.089.537.537v3.4c0,.358-.09.537-.537.537H98.7v4.743h8.055c.358,0,.537.09.537.537v3.4c0,.358-.09.537-.537.537H98.7Zm12.8.537c-.358,0-.537-.089-.537-.537V15.205c0-.358.089-.537.537-.537h10.113c3.938,0,6.175,2.148,6.175,5.817V30.778c0,3.669-2.237,5.817-6.175,5.817H111.5Zm9.487-4.475c1.521,0,2.058-.626,2.058-2.237V21.291c0-1.611-.626-2.237-2.058-2.237h-5.28V32.12h5.28Zm9.934,4.475c-.358,0-.537-.089-.537-.537v-3.4c0-.358.09-.537.537-.537,0,0,4.475.089,7.876.089,1.521,0,2.058-.089,2.058-1.7v-.537c0-1.163-.268-1.521-1.342-1.79l-4.833-1.611c-2.148-.626-4.3-1.342-4.3-5.28v-1.7c0-3.669,2.237-5.28,6.175-5.28,3.4,0,7.339.089,7.339.089.358,0,.537.089.537.537v3.4c0,.358-.09.537-.537.537,0,0-3.58-.089-6.712-.089-1.521,0-2.058,0-2.058,1.611v.447c0,1.163.268,1.342,1.342,1.7l4.833,1.611c2.058.626,4.3,1.342,4.3,5.28v1.7c0,3.669-2.237,5.459-6.175,5.459C135.485,36.774,130.92,36.685,130.92,36.685Z" transform="translate(-7.77 -1.47)" fill="#a5afba"/>
    <path id="Exclusion_1" data-name="Exclusion 1" d="M1623.712-6977.95a.3.3,0,0,1-.137-.038h-38.215a.339.339,0,0,1-.3-.171.349.349,0,0,1,.035-.364l27.3-46.9c0-.087.175-.18.27-.18h38.3a.34.34,0,0,1,.3.172.35.35,0,0,1-.035.366l-27.3,46.985A.325.325,0,0,1,1623.712-6977.95Zm-7.417-22c.032,0,.032.065.032.127l-5.371,8.86a.241.241,0,0,0,.032.159.077.077,0,0,0,.058.021h14.141c.09,0,.09-.092.09-.18l-5.281-8.86c-.03-.03-.042-.051-.036-.066s.069-.024.126-.024l8.86,5.281a.121.121,0,0,0,.083.04c.026,0,.044-.013.044-.024s-.014-.016-.036-.016v-14.231c0-.088-.091-.088-.18-.088l-8.77,5.279c-.025.024-.044.037-.058.037s-.023-.013-.028-.039a.564.564,0,0,1,0-.086l5.281-8.862a.236.236,0,0,0-.032-.157.078.078,0,0,0-.058-.021h-14.141c-.09,0-.09.091-.09.178l5.281,8.862c.03.03.042.05.036.064s-.069.023-.126.023l-8.77-5.279h-.01c-.093,0-.17.007-.17.088v14.141c0,.09.091.09.18.09l8.86-5.281C1616.262-6999.94,1616.281-6999.952,1616.295-6999.952Z" transform="translate(-1585 7026)" fill="#a5afba"/>
  </g>
</svg>
