<svg id="svgexport-0" xmlns="http://www.w3.org/2000/svg" width="154.653" height="28.754" viewBox="0 0 154.653 28.754">
  <path id="Path_550" data-name="Path 550" d="M15.881,26.785a.194.194,0,0,0,.175-.106h.263v.275a.2.2,0,1,0,.281.175.194.194,0,0,0-.094-.175v-.275h.275a.194.194,0,1,0,0-.175h-.275v-.288a.194.194,0,1,0-.175,0v.269h-.275a.2.2,0,1,0-.175.3Zm.525-1.875a.55.55,0,0,0-.238.544h.494a.5.5,0,0,0-.256-.544Zm3.532,2.1h.481v.45h-.481Zm1.3-1.031c-.15.106-.313.219-.456.338l.469.331c.15-.106.313-.219.45-.338Z" transform="translate(-5.88 -9.339)" fill="#a5afba"/>
  <path id="Path_551" data-name="Path 551" d="M8.09,12.6c-.056,6.163,3.694,8.932,8.926,11.576,5.238-2.657,8.951-5.419,8.926-11.583V1.13H8.09Zm6.776,8.332h-2.6V19.47h2.607v1.463Zm-2.694-1.756.181-.319h2.432l.175.319Zm1.144-4.432v-.269h.625v.288h.394v-.288h.488v.8l-.238.306H12.771l-.25-.313v-.794H13v.288h.356Zm2.5,1.45c0-.119.038-.238.038-.363a1.876,1.876,0,0,1,.275,0v.363H16.9v-.363h.263v.363h.756v-.363h.225v.363h.794l-.044-.363h.394l-.063.719H14.79l-.069-.719h.331l-.038.363H15.8Zm.763-5.082h.313v-.375c0-.163-.138-.088-.169-.075a.206.206,0,0,1,.169-.206.147.147,0,1,1,.275,0,.206.206,0,0,1,.169.206s-.169-.088-.169.075v.375h.313c.163,0,.088-.138.081-.169a.206.206,0,0,1,.206.169.219.219,0,0,1,.2.138.213.213,0,0,1-.2.138.206.206,0,0,1-.206.169s.088-.169-.075-.169h-.313v.688a1.875,1.875,0,0,1,.5.213H16.328a1.581,1.581,0,0,1,.544-.213V11.4h-.313c-.163,0-.088.138-.081.169a.206.206,0,0,1-.206-.169.219.219,0,0,1-.2-.138.219.219,0,0,1,.2-.138.206.206,0,0,1,.206-.169c-.006.031-.081.169.088.169ZM17.941,12.5a3.35,3.35,0,0,1,.825,2.394H15.228a3.325,3.325,0,0,1,.831-2.394h1.875Zm.844,2.607.063.456h-.219a1.26,1.26,0,0,0,.05.363h-.231v-.363H17.66a2.9,2.9,0,0,1,0,.356,1.288,1.288,0,0,1-.213,0v-.338h-.838v.363h-.219v-.363h-.819a3.125,3.125,0,0,0-.031.363h-.219l.038-.363h-.213l.056-.456h3.569ZM20.1,14.75v-.275h.625v.288h.356v-.288h.475v.794l-.25.313H19.472l-.244-.306v-.8h.488v.288h.394Zm1.5,3.863H19.285l.269-2.788H21.16Zm-8.751-2.788h1.581l.263,2.788H12.409Zm5.088,4.119-.263.256-.269-.244h.163v-.475h-.481v.469h.163l-.263.256-.269-.256h.163v-.469h-.469v.469a.588.588,0,0,0,.163,0l-.269.256c-.088-.081-.175-.181-.263-.256h.163v-.469h-.25a1.763,1.763,0,0,1,0-.2H16.2v-.538h-.156l.05-.194h.119V18.27a1.106,1.106,0,0,1,.331-.381h.344V17.77a.812.812,0,0,1,.206,0v.119h.363a.931.931,0,0,1,.319.375v.288H17.9l.05.2h-.169v.538h.256v.2h-.256v.469h.163Zm.813-.488h.094v1.031h-.625v-1.25a1.875,1.875,0,0,0-.744-1.55,1.138,1.138,0,0,0-1.138.1,1.875,1.875,0,0,0-.531,1.044,4.751,4.751,0,0,0-.063.925v.731h-.625V19.463a.356.356,0,0,0,.206-.075c.05-.044,0-.131,0-.131-.113-.194-.238-.381-.338-.588l-.175-1.813h4.376L19,18.676c-.113.206-.225.406-.356.625.019.069.019.156.106.163Zm2.975,1.463h-2.6V19.47h2.594v1.463Zm-2.7-1.744.181-.319h2.432l.181.319H19.028ZM8.333,1.368H25.7v11.42a12.039,12.039,0,0,1-.719,4.007L17.053,9.237,14.5,11.675,11.159,14.8l-2.125,2a11.251,11.251,0,0,1-.706-4V1.368Z" transform="translate(-3.033 -0.424)" fill="#a5afba"/>
  <path id="Path_552" data-name="Path 552" d="M25.166,26.4a.2.2,0,0,0-.175.106h-.275v-.288a.194.194,0,1,0-.175,0v.269h-.263a.2.2,0,1,0-.181.281.194.194,0,0,0,.175-.106h.269v.275a.2.2,0,1,0,.281.175.194.194,0,0,0-.106-.175v-.256h.275a.2.2,0,1,0,.175-.281ZM20.634,27.66h.475V28.2h-.475Zm0-.65h.475v.45h-.475Zm.675.65h.481V28.2h-.481ZM19.34,26.316l.469.331.45-.338-.469-.331C19.646,26.091,19.484,26.216,19.34,26.316Zm5.282-1.406a.55.55,0,0,0-.238.544h.494A.5.5,0,0,0,24.622,24.91Z" transform="translate(-7.251 -9.339)" fill="#a5afba"/>
  <path id="Path_553" data-name="Path 553" d="M26.24,12.358V0H7V12.358C7,16.49,8.556,20.9,16.614,24.534,22,22.078,24.5,19.277,25.565,16.446a2.287,2.287,0,0,1,.113-.325,11.839,11.839,0,0,0,.563-3.763Zm-9.645,11.8C13.776,22.734,7.288,20,7.325,12.351V.35H25.89v12C25.9,20,19.414,22.734,16.595,24.159Z" transform="translate(-2.624)" fill="#a5afba"/>
  <path id="Path_554" data-name="Path 554" d="M19.4,9.357h3c-.625-1.131-.825-2.244-.819-4.582a8.126,8.126,0,0,1,1.819.538V2.85a6.426,6.426,0,0,1-2.5.544,6.8,6.8,0,0,1-2.5-.544V5.313a8.17,8.17,0,0,1,1.819-.538C20.238,7.113,20.025,8.226,19.4,9.357Zm-.719-6.069a7.426,7.426,0,0,0,2.232.363,7.032,7.032,0,0,0,2.238-.363V4.894a11.07,11.07,0,0,0-1.806-.419c0,2.425.138,3.5.625,4.594H19.875A10.735,10.735,0,0,0,20.5,4.475a11.1,11.1,0,0,0-1.806.419V3.288Zm5.2.738c.088.05.169.113.256.163a3.482,3.482,0,0,0-.35.125,2.15,2.15,0,0,0,.519.294,1.288,1.288,0,0,0-.288.231,3.582,3.582,0,0,0,.569,0,.919.919,0,0,0-.156.319.669.669,0,0,0,.444-.169.213.213,0,0,1,0,.1,1.875,1.875,0,0,1-.094.225c.15,0,.244-.169.4-.169a2.807,2.807,0,0,1,.688,0,.475.475,0,0,0-.338.356v.094a.488.488,0,0,1,.163-.113,1.175,1.175,0,0,1,.363,0,.819.819,0,0,0,.069.475,1.094,1.094,0,0,1,.069-.181l.181.294a.363.363,0,0,1,0-.094,1.569,1.569,0,0,0,.85.094,2.163,2.163,0,0,1,.538.256.063.063,0,0,0,.069,0V6.282A4.732,4.732,0,0,1,27.395,6a.431.431,0,0,1,.3.106l.156.119c.125,0,.313.031.35-.131a1.569,1.569,0,0,0-.556-.65,1.506,1.506,0,0,0-.519-.313l.25-.075a.544.544,0,0,1,.469.169h.088c0-.106-.069-.194-.05-.294a.563.563,0,0,0,.394.15c.038,0,0-.075,0-.106a.413.413,0,0,1-.125-.213,1.306,1.306,0,0,0,.494,0s.05-.038,0-.069a.888.888,0,0,1-.256-.15,1.775,1.775,0,0,0,.494-.306V4.181a.944.944,0,0,1-.3-.044,1.494,1.494,0,0,0,.431-.394,1.525,1.525,0,0,1-.4.094,1.05,1.05,0,0,0,.163-.713s0-.056-.05-.05a.919.919,0,0,1-.231.306.625.625,0,0,0-.244-.513.863.863,0,0,1-.131.519,1.25,1.25,0,0,0-.519-.494H27.52a2.934,2.934,0,0,1,.156.25,1.25,1.25,0,0,1,.063,1.15,1.094,1.094,0,0,1-.625.488.988.988,0,0,0-.213-.313.325.325,0,0,0-.144-.044.513.513,0,0,1,.031.363.219.219,0,0,1-.163.156c-.106,0-.05-.113-.075-.175a.481.481,0,0,0-.275-.331.069.069,0,0,0-.044,0,.469.469,0,0,1,.044.381.344.344,0,0,1-.363.075,1.094,1.094,0,0,1-.888-.7,1.294,1.294,0,0,1,0-.625,5.45,5.45,0,0,1,.25-.625c0-.044-.05,0-.088,0a1.413,1.413,0,0,0-.556.556.944.944,0,0,1-.144-.625.175.175,0,0,0-.119.094,1.338,1.338,0,0,0-.15.475.956.956,0,0,1-.256-.388.325.325,0,0,0-.031.263,1.938,1.938,0,0,0,.156.513,2.9,2.9,0,0,1-.419-.106.625.625,0,0,0,.213.3ZM27.82,5.95a.15.15,0,0,1,.125.113h-.05a.2.2,0,0,1-.075-.1Zm-1.063-.625a.625.625,0,0,1,.456.194h-.219a.444.444,0,0,1-.313-.219h.069Z" transform="translate(-6.899 -1.069)" fill="#a5afba"/>
  <path id="Path_555" data-name="Path 555" d="M29.991,13.553a.094.094,0,0,0,0,.069.1.1,0,0,0,.1,0,1.75,1.75,0,0,0,.513-1.8,3.125,3.125,0,0,0-.694-1.044,6.194,6.194,0,0,1-.625-1.519l.069.044.213.269V9.234c-.181-.213-.45-.563-.45-.563l.45.319c0-.169.069-.294-.081-.375l-.45-.4c.119.05.363.206.488.25a1.619,1.619,0,0,0-.363-.569,1.569,1.569,0,0,1-.544-.044.625.625,0,0,1,0,.194,1.113,1.113,0,0,1-.3-.25.45.45,0,0,1-.05.125,1.013,1.013,0,0,1-.3-.731,5.232,5.232,0,0,0-.625.313.488.488,0,0,0-.088.194.688.688,0,0,1,.206,0l-.281.225a2.088,2.088,0,0,0-.094.306,1.594,1.594,0,0,1,.331-.125,1.993,1.993,0,0,0-.35.338,1.119,1.119,0,0,0,0,.369,3.75,3.75,0,0,1,.356-.269,6.507,6.507,0,0,0-.381.625.713.713,0,0,1-.625,0L25.4,8.721a3.919,3.919,0,0,0-.831-.294.463.463,0,0,0,.169.413,1.675,1.675,0,0,1,.844.375,1.669,1.669,0,0,0,.463.188h-.231l.294.213a2.332,2.332,0,0,1,.513.038l-.369.075.288.194A4.2,4.2,0,0,1,27,9.859c-.069.044-.231.138-.306.175a2.788,2.788,0,0,0,.306.231.281.281,0,0,0,.188-.05,4.907,4.907,0,0,1,.8-.494,4.963,4.963,0,0,0-.425.519l.05.069a8.527,8.527,0,0,0,.856,1.031.838.838,0,0,1,.338.625,1.425,1.425,0,0,0-.906-.625,1.5,1.5,0,0,0-1.081.175.694.694,0,0,0-.181.688,2.982,2.982,0,0,0,.625,1.05.088.088,0,0,1,0,.094c0,.063-.075,0-.113,0A1.506,1.506,0,0,0,26.04,13a.406.406,0,0,0-.225.231.4.4,0,0,0,.325.113H26.2a1.25,1.25,0,0,1,.481.206,2.257,2.257,0,0,0,.906.406.281.281,0,0,0,.231-.106.625.625,0,0,0,0-.294,2.244,2.244,0,0,1-.131-.756.506.506,0,0,1,.425-.288c.144-.038.294-.05.444-.088a2.282,2.282,0,0,0-.5,1.156,1.325,1.325,0,0,0,.95.869.719.719,0,0,1,.55.456,1.4,1.4,0,0,1-.1.913,1.65,1.65,0,0,0-.469.625.506.506,0,0,0,.5.069.475.475,0,0,1,.419-.256.306.306,0,0,0,.063-.3c-.163-.494.344-.988.269-1.463a1.313,1.313,0,0,0-.575-.338.456.456,0,0,1-.15-.456c.106-.35.556-.544.681-.894a1.406,1.406,0,0,0,.075-.513,1.25,1.25,0,0,1,0,.75,1.063,1.063,0,0,1-.281.506ZM24,7.571l-.131.05a.781.781,0,0,0,.375.25,1.25,1.25,0,0,1,.2-.05L24.378,7.7c-.1-.075,0-.325-.181-.288a1.2,1.2,0,0,0-.356,0c.069.038.156.05.238.088A.163.163,0,0,1,24,7.571Z" transform="translate(-8.938 -2.696)" fill="#a5afba"/>
  <path id="Path_556" data-name="Path 556" d="M19.294,6.219a3.269,3.269,0,0,1,1.413.675l.675.5a.288.288,0,0,1,.069.044,6.726,6.726,0,0,1-.031-.806,3.288,3.288,0,0,1-.494-.113l-.85-.35a6.063,6.063,0,0,0-1-.294.538.538,0,0,0,.219.344Zm-.556,1.019a2.188,2.188,0,0,1,.35,0,.55.55,0,0,1-.106-.431,1.175,1.175,0,0,0-.519,0,1.988,1.988,0,0,0,.263.1,1.394,1.394,0,0,0-.256.106A1.038,1.038,0,0,0,18.737,7.238Zm1.981,4.694a.625.625,0,0,1-.363-.088.575.575,0,0,0-.25.469,1.812,1.812,0,0,1,.175-.138,1.531,1.531,0,0,0,0,.25.725.725,0,0,0,.475-.225.494.494,0,0,0,0-.288Zm2.819,3.1a1.169,1.169,0,0,0-.119.431.463.463,0,0,0,.181-.175v.25a.5.5,0,0,0,.381-.188.656.656,0,0,0,.063-.25.756.756,0,0,1-.506-.069ZM9.568,4.213v.056a1.763,1.763,0,0,0,.488.306.881.881,0,0,1-.256.15v.069a1.306,1.306,0,0,0,.494,0,.406.406,0,0,1-.1.2c0,.031-.044.081,0,.106a.563.563,0,0,0,.394-.15c0,.106-.075.194-.05.294h.088a.544.544,0,0,1,.469-.169l.25.075a1.506,1.506,0,0,0-.519.313,1.569,1.569,0,0,0-.563.625c.038.163.225.106.35.131l.156-.119a.438.438,0,0,1,.269-.088,4.813,4.813,0,0,1-.438.281v.044a.063.063,0,0,0,.069,0,2.144,2.144,0,0,1,.575-.25,1.569,1.569,0,0,0,.85-.131.394.394,0,0,1,0,.094l.156-.288a1.088,1.088,0,0,1,.069.181.831.831,0,0,0,.075-.481,1.175,1.175,0,0,0,.363,0,.5.5,0,0,1,.163.113V5.569a.475.475,0,0,0-.338-.356,2.813,2.813,0,0,1,.694,0c.156,0,.244.156.4.169a1.619,1.619,0,0,1-.094-.225.213.213,0,0,1,0-.1.669.669,0,0,0,.438.169.906.906,0,0,0-.156-.319,3.588,3.588,0,0,0,.569,0,1.25,1.25,0,0,0-.269-.269,2.125,2.125,0,0,0,.519-.294,3.375,3.375,0,0,0-.356-.131c.088-.05.169-.113.256-.163a.625.625,0,0,0,.238-.269,2.925,2.925,0,0,1-.419.106,2.006,2.006,0,0,0,.156-.513.325.325,0,0,0-.038-.263.931.931,0,0,1-.256.388,1.35,1.35,0,0,0-.15-.475.175.175,0,0,0-.119-.094.944.944,0,0,1-.144.625,1.413,1.413,0,0,0-.569-.594h-.088a5.569,5.569,0,0,1,.219.581,1.294,1.294,0,0,1,0,.625,1.094,1.094,0,0,1-.856.731.344.344,0,0,1-.356-.063.469.469,0,0,1,0-.388.069.069,0,0,0-.044,0,.481.481,0,0,0-.275.331c0,.056.031.181-.075.175a.219.219,0,0,1-.144-.119.513.513,0,0,1,.031-.363.331.331,0,0,0-.144.044.988.988,0,0,0-.2.338,1.094,1.094,0,0,1-.625-.488,1.213,1.213,0,0,1,.063-1.15c.038-.088.119-.163.156-.25s-.05,0-.081,0a1.25,1.25,0,0,0-.519.494.863.863,0,0,1-.119-.563.625.625,0,0,0-.244.513.931.931,0,0,1-.256-.319c-.038,0-.038,0-.05.05a1.05,1.05,0,0,0,.156.681,1.525,1.525,0,0,1-.4-.094,1.481,1.481,0,0,0,.431.394.944.944,0,0,1-.294.088Zm1.006,1.875h-.05a.15.15,0,0,1,.125-.113A.194.194,0,0,1,10.574,6.088Zm1.131-.769h.069a.444.444,0,0,1-.313.219h-.219a.625.625,0,0,1,.463-.213Z" transform="translate(-3.536 -1.087)" fill="#a5afba"/>
  <path id="Path_557" data-name="Path 557" d="M15.372,8.68l-1.013.444a.719.719,0,0,1-.625,0c-.088-.181-.381-.625-.381-.625a3.682,3.682,0,0,1,.356.269,1.1,1.1,0,0,0,0-.369c-.081-.081-.269-.206-.363-.313a1.569,1.569,0,0,1,.331.125,2.169,2.169,0,0,0-.094-.306L13.3,7.693a.694.694,0,0,1,.206,0,.494.494,0,0,0-.094-.2,5.219,5.219,0,0,0-.625-.313,1.025,1.025,0,0,1-.3.731.431.431,0,0,1-.05-.125,1.1,1.1,0,0,1-.325.238.675.675,0,0,1,0-.194,1.563,1.563,0,0,1-.544.044,1.613,1.613,0,0,0-.356.569c.125-.044.369-.194.488-.25l-.413.419c-.15.081-.056.213-.081.375l.456-.331s-.269.344-.45.563v.338l.219-.256.069-.044a6.2,6.2,0,0,1-.625,1.519,3.088,3.088,0,0,0-.694,1.044,1.744,1.744,0,0,0,.481,1.794.1.1,0,0,0,.1,0,.094.094,0,0,0,0-.069,1.05,1.05,0,0,1-.3-.513,1.25,1.25,0,0,1,0-.75,1.381,1.381,0,0,0,.075.513c.125.35.569.544.675.894a.456.456,0,0,1-.15.456,1.313,1.313,0,0,0-.575.338c-.075.475.425.969.269,1.463a.306.306,0,0,0,.063.3.475.475,0,0,1,.419.256.506.506,0,0,0,.5-.069,1.65,1.65,0,0,0-.45-.613,1.394,1.394,0,0,1-.131-.888.719.719,0,0,1,.55-.456,1.319,1.319,0,0,0,.95-.869,2.269,2.269,0,0,0-.5-1.156c.144.031.3.044.444.088a.506.506,0,0,1,.425.288,2.232,2.232,0,0,1-.113.744.625.625,0,0,0,0,.294.281.281,0,0,0,.25.081,2.263,2.263,0,0,0,.906-.406,1.25,1.25,0,0,1,.5-.219h.063a.4.4,0,0,0,.325-.113.406.406,0,0,0-.225-.231,1.506,1.506,0,0,0-1.113.344c-.038,0-.081.063-.113,0a.094.094,0,0,1,0-.094,2.982,2.982,0,0,0,.625-1.05.694.694,0,0,0-.181-.688,1.5,1.5,0,0,0-1.081-.175,1.431,1.431,0,0,0-.906.625.838.838,0,0,1,.338-.625,8.52,8.52,0,0,0,.863-.981l.05-.069a4.869,4.869,0,0,0-.425-.519,4.938,4.938,0,0,1,.8.494.281.281,0,0,0,.188.05,2.838,2.838,0,0,0,.306-.231c-.069-.038-.238-.131-.306-.175.125,0,.338.069.469.063l.288-.194-.369-.075a2.389,2.389,0,0,0,.513-.038l.294-.213H14.74a1.656,1.656,0,0,0,.463-.188,1.681,1.681,0,0,1,.844-.375.469.469,0,0,0,.169-.413,3.913,3.913,0,0,0-.844.231Zm1.194-1.244c-.188-.038-.075.206-.181.288l-.094.1a1.25,1.25,0,0,1,.2.05.775.775,0,0,0,.425-.25l-.15-.056a.163.163,0,0,1-.075,0c.075-.031.169-.05.238-.088A1.2,1.2,0,0,0,16.565,7.436Z" transform="translate(-3.789 -2.692)" fill="#a5afba"/>
  <path id="Path_558" data-name="Path 558" d="M10.145,8.406a6.994,6.994,0,0,1-.031.806.275.275,0,0,1,.069-.044l.681-.5a3.282,3.282,0,0,1,1.413-.675A.538.538,0,0,0,12.5,7.65a6.063,6.063,0,0,0-1,.294l-.875.35a3.288,3.288,0,0,1-.481.113Zm2.688.613a1.025,1.025,0,0,0,.294-.213A1.388,1.388,0,0,0,12.87,8.7a2.019,2.019,0,0,0,.256-.1,1.169,1.169,0,0,0-.519,0,.538.538,0,0,1-.106.425A2.257,2.257,0,0,1,12.833,9.019ZM11.464,14.12Zm-.25-.488a.625.625,0,0,1-.363.088.506.506,0,0,0,0,.288.725.725,0,0,0,.475.225,1.531,1.531,0,0,0,0-.25,2,2,0,0,1,.169.131A.581.581,0,0,0,11.214,13.632ZM8.126,17.245Zm-.588-.35a.625.625,0,0,0,.063.25.506.506,0,0,0,.381.188v-.25a.563.563,0,0,0,.144.163,1.213,1.213,0,0,0-.119-.406.756.756,0,0,1-.469.056Zm20.4,6.457c0-.856-.913-1.2-1.469-1.556a3.5,3.5,0,0,0,.444-2.05,1.875,1.875,0,0,0-.144-.625,4.469,4.469,0,0,1-1.431-1.594l-.075-.2a2.838,2.838,0,0,0-.625.125,2.794,2.794,0,0,0-1.613,1.506l-.113.325a2.138,2.138,0,0,0-.075.456,1.594,1.594,0,0,1,1.113.275l-.294.356-.981,1.106a6.21,6.21,0,0,0-1.588,2.907,1.638,1.638,0,0,0,.056.625,2.257,2.257,0,0,1,1.044.213,15.539,15.539,0,0,1-3.7,2.163,12.033,12.033,0,0,1-4.519.794,12.089,12.089,0,0,1-4.519-.794,15.546,15.546,0,0,1-3.7-2.163,2.256,2.256,0,0,1,1.044-.213,1.663,1.663,0,0,0,.056-.625,6.21,6.21,0,0,0-1.588-2.907L4.288,20.37l-.319-.331a1.594,1.594,0,0,1,1.113-.294,2.713,2.713,0,0,0-1.806-2.282,2.819,2.819,0,0,0-.625-.125l-.075.2A4.476,4.476,0,0,1,1.169,19.12a1.825,1.825,0,0,0-.144.625,3.5,3.5,0,0,0,.444,2.031C.919,22.158,0,22.5,0,23.352a1.55,1.55,0,0,0,.244.8,12.927,12.927,0,0,0,3,3.513l1.294.969a16.252,16.252,0,0,0,9.432,2.988A15.908,15.908,0,0,0,23.4,28.628l1.294-.969a12.933,12.933,0,0,0,3-3.513,1.563,1.563,0,0,0,.25-.794ZM24.1,18.014a.556.556,0,0,1,.675.244.713.713,0,0,1,0,.575,3.85,3.85,0,0,1-.625-.625,1.988,1.988,0,0,1-.2.106c.169.8-.3.744-.419.7A.463.463,0,0,1,23.4,18.8a2.45,2.45,0,0,1,.706-.788Zm-.888,1.544c0-.038-.044-.063,0-.088a.906.906,0,0,0,.863-.5,2.225,2.225,0,0,0,.144-.363,2.65,2.65,0,0,0,.444.419,2.05,2.05,0,0,1-.444.719,2.163,2.163,0,0,0-1.006-.188Zm-1.038,2.95.675-.888,1.169-1.35A3.163,3.163,0,0,0,25.178,18.4a.663.663,0,0,0-.3-.625l-.131-.044a1.05,1.05,0,0,1,.344-.106,3.288,3.288,0,0,0,1.475,1.706,2.907,2.907,0,0,1-.363,2.238,1.106,1.106,0,0,1-.463-.625.194.194,0,0,0-.113-.175c-.706,0-1.181.594-1.7,1.075a20.358,20.358,0,0,0-1.663,2.088.669.669,0,0,1-.594.288.369.369,0,0,1-.156-.288,3.55,3.55,0,0,1,.656-1.419Zm-.813,2.3V24.64c.875.394,1.156-.625,1.5-1.044a11.314,11.314,0,0,1,1.669-2.031.419.419,0,0,1,.3.319.75.75,0,0,1-.056.331,8.226,8.226,0,0,1-2.207,2.757,4.45,4.45,0,0,0-1.206-.163Zm-14.783,0a4.444,4.444,0,0,0-1.2.163,8.213,8.213,0,0,1-2.207-2.725.75.75,0,0,1-.05-.356.419.419,0,0,1,.3-.319A11.289,11.289,0,0,1,5.094,23.6c.344.406.625,1.438,1.5,1.044ZM4.707,19.464c.044,0,0,.05,0,.088a2.163,2.163,0,0,0-.956.194,2.063,2.063,0,0,1-.475-.7,2.657,2.657,0,0,0,.444-.419H3.75a2.169,2.169,0,0,0,.144.363.906.906,0,0,0,.838.481Zm-.869-1.45a2.444,2.444,0,0,1,.725.788.456.456,0,0,1-.131.213c-.125.044-.588.106-.419-.7a1.913,1.913,0,0,1-.2-.106,3.863,3.863,0,0,1-.625.625.713.713,0,0,1,0-.575.556.556,0,0,1,.65-.244Zm-2.45,1.319A3.294,3.294,0,0,0,2.857,17.62a1.05,1.05,0,0,1,.344.106l-.131.044a.663.663,0,0,0-.3.625A3.169,3.169,0,0,0,3.925,20.27l1.169,1.35.681.906a3.557,3.557,0,0,1,.663,1.425.369.369,0,0,1-.156.288.669.669,0,0,1-.594-.288,20.447,20.447,0,0,0-1.663-2.088c-.519-.488-.994-1.069-1.7-1.075a.194.194,0,0,0-.119.169,1.106,1.106,0,0,1-.463.625,2.907,2.907,0,0,1-.356-2.25Zm26.2,4.376a15.791,15.791,0,0,1-7.332,6.326,15.271,15.271,0,0,1-5.944,1.25h-.675a15.277,15.277,0,0,1-5.944-1.25A15.61,15.61,0,0,1,.363,23.721a1.044,1.044,0,0,1,.113-.85,4.607,4.607,0,0,1,1.313-.925,5.219,5.219,0,0,1-.806,1.063.056.056,0,0,0,.056.031A3.863,3.863,0,0,0,2.469,21.07a3.082,3.082,0,0,1,.463.2.625.625,0,0,0-.288.256.881.881,0,0,0,.113.913,13.753,13.753,0,0,0,9.782,6.007c.5.038.975.056,1.438.056a12.609,12.609,0,0,0,1.438-.056A13.753,13.753,0,0,0,25.2,22.439a.881.881,0,0,0,.113-.913A.625.625,0,0,0,25,21.239a3.081,3.081,0,0,1,.463-.2,3.869,3.869,0,0,0,1.413,1.969.056.056,0,0,0,.056-.031,5.263,5.263,0,0,1-.806-1.063,4.613,4.613,0,0,1,1.338.956,1.044,1.044,0,0,1,.119.85Z" transform="translate(0 -2.868)" fill="#a5afba"/>
  <path id="Path_559" data-name="Path 559" d="M23.75,22.051l.113-.325a2.288,2.288,0,0,0-.113.325ZM12.2,31.727a1.875,1.875,0,0,0-.406-.156,1,1,0,0,0-.625,0,.725.725,0,0,0-.463.519.706.706,0,0,0,.263.713,1.188,1.188,0,0,0,.431.2,1.094,1.094,0,0,0,.588,0l.069-.044a.981.981,0,0,1-.5,0,.75.75,0,0,1-.569-.9.581.581,0,0,1,.731-.431.569.569,0,0,1,.425.35,1.462,1.462,0,0,1,0,.169h.044a5.12,5.12,0,0,1,.194-.625h-.094a2.211,2.211,0,0,1-.088.206Zm1.438.131V31.9l.2.05a4.72,4.72,0,0,1-.038.475v.094c-.081,0-.8-.075-.85-.081v-.1a1.972,1.972,0,0,1,.069-.469h.2v-.044h-.338l-.356-.044v.044l.238.031c0,.069-.038.456-.044.519v.194a5.91,5.91,0,0,1-.075.625h-.231v.044h.363l.331.044v-.038l-.194-.05a3.486,3.486,0,0,1,.038-.55v-.069l.856.044v.119a2.576,2.576,0,0,1-.069.544h-.238v.044h.35l.344.044v-.006l-.206-.05a3.351,3.351,0,0,1,.05-.625v-.144c0-.056.056-.475.069-.519h.213v-.044H13.98Zm1.95.056v.044h.225c0,.069.031.444.038.506v.188a.688.688,0,0,1-.094.538.456.456,0,0,1-.313.113.469.469,0,0,1-.469-.569v-.275a3.582,3.582,0,0,1,0-.469l.213-.038v-.019h-.631v.044h.163a2.195,2.195,0,0,0,0,.463v.319a.625.625,0,0,0,.7.625.694.694,0,0,0,.456-.163.663.663,0,0,0,.163-.575v-.675l.144-.031V31.9h-.594Zm2.338-.256.15-.056v-.044l-.256.056-.3.05v.044h.206a8.033,8.033,0,0,1,.231,1.031c-.075-.044-.469-.375-.531-.419s-.544-.463-.625-.525l-.406.063V31.9h.225c0,.069.2,1.206.181,1.294a1.42,1.42,0,0,1-.163.056v.044l.275-.056.3-.044v-.044h-.225c-.038-.069-.256-1.125-.256-1.169l.581.506a8.221,8.221,0,0,0,.806.625c0-.081-.144-.938-.156-1.031a3.2,3.2,0,0,1-.038-.419ZM3.048,27.514l-.169.075a1.188,1.188,0,0,1-.363-.344L3,26.858h.031a1.156,1.156,0,0,1,.213.338l-.113.081v.044l.331-.2v-.031l-.081.038a2.119,2.119,0,0,1-.294-.313h.031c.094-.075.406-.319.438-.331a1.019,1.019,0,0,1,.219.419L3.66,27v.044l.356-.231H3.979l-.044-.05c-.044-.031-.35-.413-.388-.463L3.31,26v.031c0,.044.094.15.113.188s-.294.256-.438.369l-.075.063c-.225.144-.525.375-.556.394A1.556,1.556,0,0,1,2.2,26.9H2.16l.2.238c.081.1.363.463.388.519l-.094.081v.038c.088-.056.356-.219.413-.244Zm1.613.169.131.094h.038l-.269-.294-.181-.194v.031a1.426,1.426,0,0,1,.094.138c-.094.025-1.163.531-1.313.569l-.144-.106H2.979l.175.188.213.225V28.3a1.25,1.25,0,0,1-.056-.138,5.081,5.081,0,0,1,.513-.3c.063.044.3.269.35.319s-.238.475-.3.556a1.594,1.594,0,0,1-.169-.125H3.666l.269.281.231.25V29.1l-.106-.15a6.97,6.97,0,0,1,.294-.681c.106-.2.256-.506.306-.588Zm-.775.125.588-.269c-.056.106-.225.456-.288.569Zm2.163,2.056-.238-.2-.256-.219v.044l.15.15a1.163,1.163,0,0,1-.094.131l-.069.088-.175.125a.625.625,0,0,1-.238-.125A.775.775,0,0,1,5.042,28.8a.581.581,0,0,1,.838-.069.625.625,0,0,1,.294.494,1.8,1.8,0,0,1-.1.163v.05a5.339,5.339,0,0,1,.419-.475H6.448l-.15.125a1.875,1.875,0,0,0-.306-.356,1.038,1.038,0,0,0-.575-.25.731.731,0,0,0-.625.281.694.694,0,0,0-.069.738,1.306,1.306,0,0,0,.363.419,2.582,2.582,0,0,0,.45.281c.031-.05.1-.131.15-.194l.025-.025c.038-.044.125-.15.15-.169l.156.094Zm1.975.363.15.056v-.031l-.225-.131-.231-.138H7.686l.163.131a8.126,8.126,0,0,1-.519.925c0-.081-.1-.594-.113-.669s-.094-.706-.094-.788l-.388-.225V29.4l.163.144c-.038.056-.656,1.031-.731,1.088A1.144,1.144,0,0,1,6,30.571V30.6l.244.138.256.169v-.038c-.031,0-.156-.119-.175-.144a11.81,11.81,0,0,1,.588-1.044c0,.1.1.713.113.756s.15.931.175,1.019c.056-.063.519-.794.575-.869a3.238,3.238,0,0,1,.244-.363Zm.681.256v.038a1.331,1.331,0,0,1,.138.094c-.056.056-.894.894-1.019.981l-.175-.05v.038l.219.094.281.138v-.044a1.2,1.2,0,0,1-.15-.1,5.044,5.044,0,0,1,.375-.463,2.424,2.424,0,0,1,.444.175c.069.031-.044.525-.056.625l-.2-.063v.038l.319.138.306.15v-.044l-.15-.1a7.019,7.019,0,0,1,.031-.738,4.406,4.406,0,0,1,.069-.663l.156.044v-.038l-.356-.125Zm.094.838-.388-.188.45-.456C8.855,30.8,8.817,31.183,8.8,31.321Zm12.477.238a1.375,1.375,0,0,0-.081-.213l.156-.113-.294.131-.313.125v.038l.2-.063a1.175,1.175,0,0,1,.069.15l.044.1c.038.094.069.163.075.188a.625.625,0,0,1-.219.15.775.775,0,0,1-.969-.419.575.575,0,0,1,.319-.781.656.656,0,0,1,.569,0,1.65,1.65,0,0,1,.094.163h.056a5.751,5.751,0,0,1-.225-.625h-.038a1.383,1.383,0,0,0,.044.188,1.875,1.875,0,0,0-.444.131,1.038,1.038,0,0,0-.494.388.731.731,0,0,0-.056.7.694.694,0,0,0,.625.413,1.331,1.331,0,0,0,.538-.119,2.563,2.563,0,0,0,.469-.231,1.089,1.089,0,0,0-.1-.225Zm2.006-.606c0-.075-.456-.831-.5-.919a3.238,3.238,0,0,1-.188-.394l.094-.1V29.5l-.219.138-.269.15.194-.081a8.026,8.026,0,0,1,.619.9,4.311,4.311,0,0,1-.625-.213c-.056-.025-.669-.25-.744-.288l-.394.25v.031a1.656,1.656,0,0,1,.188-.075,11.341,11.341,0,0,1,.625,1.156,1.188,1.188,0,0,1-.131.113v.044l.238-.15.269-.15V31.3l-.206.088a10.062,10.062,0,0,1-.625-1.006l.694.231c.069.044.9.325.981.344Zm2.738-2.413c-.113-.075-.9-.625-1.081-.788l.106-.138v-.038l-.206.2-.213.181h.038a.981.981,0,0,1,.125-.075c0,.038.338.906.375,1.031-.15-.075-.788-.4-.963-.5a1.476,1.476,0,0,1,.094-.125v-.038l-.225.213-.225.194h.038l.169-.119c.088.144.625,1.05.663,1.175a1.251,1.251,0,0,1-.088.119v.044l.163-.156.231-.2h-.038l-.156.1a8.489,8.489,0,0,1-.625-.963c.069.044,1.05.538,1.175.625-.031-.125-.4-1.131-.444-1.25.088.075.844.625.881.7l-.15.169v.038l.275-.263.219-.188h-.038ZM27.4,26.914c-.063-.056-.338-.244-.513-.4l-.113-.094c-.044-.031-.369-.306-.394-.338l.113-.181v-.038l-.213.269-.231.269h.038l.15-.138a4.638,4.638,0,0,1,.375.288l.075.063c-.038.075-.5.625-.538.663l-.075-.063c-.138-.113-.319-.275-.356-.313q.043-.077.094-.15v-.038l-.206.263-.238.275h.038l.156-.15c.056.038.356.281.406.325l.15.119c.119.1.388.319.456.388a2.025,2.025,0,0,1-.113.181v.038l.225-.288.219-.256h-.038l-.15.138c-.063-.044-.275-.2-.438-.338l-.056-.044s.444-.625.506-.688l.094.075c.169.138.369.306.419.356s-.088.15-.106.175v.038l.219-.275.225-.263h-.038Zm-3.307,3.263a4.509,4.509,0,0,1-.394-.519l-.075-.1a3.739,3.739,0,0,1-.313-.444l.156-.15V28.92l-.25.194-.331.244h.031l.194-.106c.05.05.275.363.313.419l.069.1c.119.163.344.475.388.544l-.156.15V30.5l.256-.194.319-.219h-.031Zm-.781-1.569-.188-.094c-.031.094-.194.531-.206.55l.075.044a4.319,4.319,0,0,1,.319-.5ZM42.577,15.256v-.219a.075.075,0,0,0-.1-.056H40.046a.1.1,0,0,0-.094.106v.231a.144.144,0,0,0,.163.125c.625,0,.831.106.831.838v3.825c0,1.7-.906,2.325-2.425,2.325-1.163,0-1.913-.481-1.913-1.875V16.231c0-.7.225-.819.856-.819.094,0,.15,0,.15-.094v-.263c0-.081,0-.106-.094-.106-.494,0-.813.056-1.338.056s-1.369-.025-1.863-.025a.113.113,0,0,0-.138.119v.263a.106.106,0,0,0,.131.081c.625,0,.863.038.863.681v4.482c0,2.138,1.463,2.669,3.238,2.669a3.557,3.557,0,0,0,2.344-.875,3.071,3.071,0,0,0,.825-2.5V16.45c0-.756.044-1.038.844-1.038C42.565,15.413,42.577,15.394,42.577,15.256Z" transform="translate(-0.81 -5.605)" fill="#a5afba"/>
  <path id="Path_560" data-name="Path 560" d="M73.526,16.542c-.231,0-.456.044-.813.044s-.675-.044-1.113-.044c-.075,0-.131,0-.131.1V16.8a.131.131,0,0,0,.163.113c.625,0,.625.213.625.806v2.844a3.125,3.125,0,0,1-.044.625.256.256,0,0,1-.113-.119l-1.875-2.3q-.478-.581-.919-1.163l-.669-.856a.356.356,0,0,0-.213-.213c-.375,0-.713.044-1.088.044s-.581-.044-.894-.044a.088.088,0,0,0-.094.094v.225a.081.081,0,0,0,.088.081c.869,0,.981.081.981,1.588V21.73c0,.925-.294.956-.8.956a.088.088,0,0,0-.088.1v.156c0,.075.038.113.156.113.4,0,.806-.044,1.131-.044s.463.044.825.044c.094,0,.131,0,.131-.081v-.2c0-.081-.069-.081-.156-.081-.525,0-.688-.056-.688-1.031V18.317a.9.9,0,0,1,.075-.419.625.625,0,0,1,.231.238l3.519,4.344c.138.169.269.331.513.625a.525.525,0,0,0,.469.119c.081,0,.088,0,.088-.075v-5.1c0-.931.113-1.119.538-1.138.231,0,.3,0,.3-.094V16.63a.125.125,0,0,0-.138-.088Zm3.125,6.513a.088.088,0,0,0,.106-.1v-.181a.075.075,0,0,0-.094-.081c-.431,0-.713-.063-.713-.581V17.48a.506.506,0,0,1,.625-.556c.094,0,.169,0,.169-.056V16.6c0-.044-.044-.056-.113-.056-.213,0-.719.044-1.306.044s-1.069-.044-1.206-.044-.069.038-.069.094v.219c0,.044.063.063.131.063.413,0,.625.056.625.556v4.632c0,.5-.256.581-.663.581-.088,0-.119,0-.119.075V23a.056.056,0,0,0,.063.056c.444,0,.9-.044,1.344-.044s.819.044,1.219.044Zm6.895-6.513c-.213,0-.525.044-.738.044-.625,0-.856-.044-1.069-.044a.1.1,0,0,0-.119.094v.188a.075.075,0,0,0,.069.094c.413,0,.688,0,.688.313a2.444,2.444,0,0,1-.181.719l-1.131,3.125a.938.938,0,0,1-.156.325c-.044,0-.062-.038-.119-.194l-1.1-2.932a5.626,5.626,0,0,1-.369-1.125c0-.231.319-.238.625-.238a.075.075,0,0,0,.088-.094v-.163a.088.088,0,0,0-.094-.113c-.625,0-1.038.044-1.5.044s-.825-.044-1.156-.044a.081.081,0,0,0-.1.094v.175a.094.094,0,0,0,.1.1.738.738,0,0,1,.806.469c.231.413,1.913,5.132,2.194,5.738.044.081,0,.069.2.081h.163c.094,0,.113,0,.156-.119.688-1.875,1.381-3.719,2.094-5.563a.694.694,0,0,1,.625-.625.1.1,0,0,0,.113-.1v-.131C83.633,16.6,83.633,16.542,83.546,16.542ZM88.7,21.612a.2.2,0,0,0-.156.138l-.263.431a.625.625,0,0,1-.625.463H86.471c-.575,0-.675-.231-.675-.738V19.78h.825c.363,0,.625,0,.706.25a1.588,1.588,0,0,1,.069.538.063.063,0,0,0,.075.075h.2c.044,0,.069-.056.069-.138V18.649c0-.038,0-.063-.094-.063H87.5a.063.063,0,0,0-.069.063c-.144.756-.425.706-1.056.706H85.79v-1.6c0-.75.106-.794.569-.794h.813c.563,0,.788.113.844.819,0,.138,0,.181.056.181h.175a.1.1,0,0,0,.113-.1V16.648c0-.05,0-.113-.075-.113-.919,0-1.875.044-2.763.044-.438,0-1.113-.044-1.456-.044-.088,0-.163,0-.163.094v.188c0,.094.063.094.144.094.269,0,.625,0,.625.481v4.576c0,.625-.25.7-.5.719s-.294.038-.294.131v.169a.069.069,0,0,0,.069.075c.513,0,1.019-.044,1.538-.044,1.056,0,2.119.044,3.175.044.138-.463.25-.813.35-1.169a.394.394,0,0,0,0-.138A.35.35,0,0,0,88.7,21.612Zm7.07,1.075a1.069,1.069,0,0,1-.963-.675l-.869-1.494a3.551,3.551,0,0,0-.844-1.069,1.444,1.444,0,0,0,1.375-1.35,1.625,1.625,0,0,0-1.719-1.556c-.719,0-.419,0-1.381.044-.625,0-1.25-.044-1.663-.044-.044,0-.063,0-.063.081v.231a.056.056,0,0,0,.05.063h.275c.394,0,.469.256.469,1.194v3.563c0,.856-.069.981-.713,1.025a.119.119,0,0,0-.106.131v.175c0,.056,0,.063.113.063.3,0,1.088-.044,1.45-.044s.688.044,1.031.044c.05,0,.094,0,.094-.075v-.231a.062.062,0,0,0-.069-.075c-.388,0-.663-.144-.663-.925V19.78a.825.825,0,0,1,.956.55l1.125,2.107c.25.463.325.625.513.625s.394-.044.625-.044c.344,0,.688.038,1.031.044v-.313a.056.056,0,0,0-.056-.063Zm-3.838-3.332H91.59V17.711c0-.413,0-.756.569-.756a1.056,1.056,0,0,1,1.075,1.219,1.156,1.156,0,0,1-1.3,1.181Zm4.882-1.538a.963.963,0,0,1,1.05-1.006c.694,0,1.038.5,1.15,1.25H99.4V16.9a2.294,2.294,0,0,0-1.456-.506,1.875,1.875,0,0,0-2.025,1.956c0,2.163,2.95,1.769,2.95,3.375a1.1,1.1,0,0,1-1.25,1.063c-.869,0-1.175-.625-1.388-1.206h-.35c.044.413.094.831.125,1.25a3.244,3.244,0,0,0,1.594.381A2.019,2.019,0,0,0,99.766,21.2c.006-2.275-2.95-1.806-2.95-3.382Zm6.276,5.138v-.181a.075.075,0,0,0-.094-.081c-.431,0-.713-.063-.713-.581V17.48a.506.506,0,0,1,.625-.556c.094,0,.169,0,.169-.056V16.6c0-.044-.044-.056-.113-.056-.213,0-.719.044-1.306.044s-1.088-.044-1.213-.044-.069.038-.069.094v.219c0,.044.063.063.131.063.413,0,.625.056.625.556v4.632c0,.5-.256.581-.663.581-.088,0-.119,0-.119.075V23a.056.056,0,0,0,.063.056c.444,0,.9-.044,1.35-.044s.806.044,1.213.044a.088.088,0,0,0,.113-.1Zm12.733-6.413c-.138,0-.431.044-.925.044-.338,0-.625-.044-.825-.044a.081.081,0,0,0-.075.1v.15a.1.1,0,0,0,.1.119c.275,0,.55,0,.55.169a1.8,1.8,0,0,1-.306.681l-.981,1.594-1.131-1.794a1.619,1.619,0,0,1-.281-.544c0-.119.238-.138.575-.138.081,0,.113,0,.113-.094V16.6c0-.044-.031-.063-.131-.063-.231,0-.625.044-1.038.044-.569,0-.975-.044-1.45-.044a.106.106,0,0,0-.131.094v.156a.106.106,0,0,0,.113.119c.413,0,.625.269.9.731l1.406,2.269a.463.463,0,0,1,.069.25v1.981a.575.575,0,0,1-.706.544.081.081,0,0,0-.094.094v.206a.069.069,0,0,0,.088.075c.394,0,.744-.044,1.25-.044s.938.044,1.363.044a.075.075,0,0,0,.088-.081V22.8c0-.063,0-.113-.069-.113a.625.625,0,0,1-.756-.519V20.08a.888.888,0,0,1,.181-.381l.869-1.456c.119-.194.238-.388.363-.569a1.375,1.375,0,0,1,.85-.756c.087,0,.119,0,.119-.094v-.188c-.025-.081-.05-.094-.094-.094Zm22.19,5.357a4.807,4.807,0,0,0,.113-.575.625.625,0,0,0-.4-.138.175.175,0,0,0-.15.113c-.669,1.194-.781,1.25-2.194,1.25-1.163,0-1.319-.288-1.319-1V16.123c0-.625.425-.713.963-.713a.106.106,0,0,0,.113-.125v-.244a.075.075,0,0,0-.081-.094c-.494,0-1,.056-1.506.056-1.113,0-1.781-.056-1.969-.056a.113.113,0,0,0-.138.119V15.3a.094.094,0,0,0,.113.106c.713,0,.969.3.969,1.194V21.43c0,.963-.175,1.169-.956,1.169a.113.113,0,0,0-.125.125v.256a.081.081,0,0,0,.094.081c.881,0,2.332-.056,3.094-.056s2.031.056,3.069.056a7.891,7.891,0,0,0,.313-1.163Zm3.125.788c-.463,0-.769-.063-.769-.581V17.48a.531.531,0,0,1,.663-.556c.1,0,.188,0,.188-.056V16.6c0-.044-.044-.056-.119-.056-.231,0-.775.044-1.4.044s-1.169-.044-1.3-.044-.075.038-.075.094v.219c0,.044.063.063.138.063.444,0,.681.056.681.556v4.632c0,.5-.275.581-.713.581-.094,0-.131,0-.131.075V23a.062.062,0,0,0,.063.056c.481,0,.969-.044,1.45-.044s.869.044,1.3.044c.075,0,.119,0,.119-.1v-.181c.006-.056-.019-.088-.094-.088Zm8.964.3V22.78c0-.056-.044-.081-.131-.094a1.738,1.738,0,0,1-.419-.081c-.288-.125-.288-.556-.288-1.3V17.436c0-.381.05-.525.581-.525.113,0,.181,0,.181-.081v-.213c0-.063-.063-.075-.175-.075-.238,0-.625.044-.969.044s-.694-.044-1.044-.044c-.044.138-.094.306-.156.45-.575,1.294-1.088,2.619-1.663,3.913l-1.944-4.376c-.406,0-.831.044-1.069.044s-.913-.044-1.025-.044-.056,0-.056.094v.169c0,.081,0,.119.056.119.581,0,.906.138.906.794v.469l-.094,2.5c0,.525-.075,1.044-.1,1.569,0,.381-.094.406-.506.45h-.213c-.075,0-.094.038-.094.081v.219c0,.056.056.063.169.063.35,0,.625-.044.963-.044s.681.044.925.044c.1,0,.156,0,.156-.075v-.188a.094.094,0,0,0-.075-.113c-.519-.075-.85-.144-.85-.731a10.61,10.61,0,0,1,.05-1.25l.15-2.825c.725,1.738,1.569,3.425,2.132,5.232a.125.125,0,0,0,.15.075.131.131,0,0,0,.137-.063,40.951,40.951,0,0,1,2.244-5.626c.038.625.038,1.163.038,4.188,0,.838-.044.975-.856.975-.05,0-.056.038-.056.1v.156c0,.075,0,.113.119.113.5,0,.694-.044,1.506-.044.413,0,.8.044,1.163.044.081.031.156.031.156-.038Zm6.094-1.131a.375.375,0,0,0,0-.138.394.394,0,0,0-.344-.138.213.213,0,0,0-.169.138l-.288.431a.681.681,0,0,1-.681.463h-1.25a.625.625,0,0,1-.731-.738V19.78h.906c.388,0,.625,0,.756.25a1.451,1.451,0,0,1,.075.538.069.069,0,0,0,.081.075h.213c.044,0,.075-.056.075-.138V18.649c0-.038,0-.063-.1-.063h-.156a.069.069,0,0,0-.075.063c-.138.756-.444.719-1.125.719h-.625V17.755c0-.75.113-.794.625-.794h.881c.625,0,.85.113.906.819,0,.138,0,.181.063.181h.181a.1.1,0,0,0,.119-.1V16.648c0-.05,0-.113-.081-.113-.988,0-1.981.044-2.969.044-.469,0-1.2-.044-1.569-.044-.094,0-.175,0-.175.094v.188c0,.094.063.094.156.094.288,0,.625,0,.625.481v4.576c0,.625-.269.7-.538.719s-.313.038-.313.131v.169a.069.069,0,0,0,.075.075c.556,0,1.1-.044,1.65-.044,1.138,0,2.282.044,3.413.044C155.967,22.593,156.086,22.243,156.2,21.855ZM163.13,23.055ZM163.018,23v-.238a.069.069,0,0,1,.069-.069,1.15,1.15,0,0,1-1.031-.675l-.931-1.494a3.594,3.594,0,0,0-.906-1.069c.756-.131,1.475-.538,1.475-1.35,0-1.25-1.25-1.556-1.875-1.556-.775,0-.45,0-1.488.044-.7,0-1.375-.044-1.788-.044-.044,0-.063,0-.063.081v.225a.056.056,0,0,0,.056.063h.294c.425,0,.506.256.506,1.194v3.563c0,.856-.075.981-.763,1.025a.119.119,0,0,0-.113.131v.175c0,.056,0,.063.119.063.325,0,1.175-.044,1.563-.044s.738.044,1.106.044c.056,0,.1,0,.1-.075v-.231a.063.063,0,0,0-.075-.075c-.413,0-.713-.144-.713-.925V19.78a.894.894,0,0,1,1.025.55l1.206,2.107c.269.463.35.625.55.625s.425-.044.625-.044c.35,0,.694.031,1.044.044a.056.056,0,0,1,.006-.063Zm-4.069-3.644h-.369V17.711c0-.413,0-.756.625-.756a1.088,1.088,0,0,1,1.15,1.219,1.213,1.213,0,0,1-1.406,1.181Zm6.9,3.332c-.463,0-.769-.063-.769-.581V17.48a.531.531,0,0,1,.663-.556c.1,0,.188,0,.188-.056V16.6c0-.044-.05-.056-.119-.056-.231,0-.775.044-1.4.044s-1.169-.044-1.3-.044-.075.038-.075.094v.219c0,.044.063.063.138.063.444,0,.681.056.681.556v4.632c0,.5-.275.581-.713.581h-.056a.056.056,0,0,1,.044.05v.313c.463,0,.938-.044,1.4-.044s.869.044,1.3.044c.075,0,.119,0,.119-.1v-.175c.006-.056-.025-.088-.1-.088ZM163.08,23.055Z" transform="translate(-24.876 -5.603)" fill="#a5afba"/>
  <path id="Path_561" data-name="Path 561" d="M194.714,23.572a.069.069,0,0,0-.069.069v.238a.056.056,0,0,0,.05.05h.063v-.313a.056.056,0,0,0-.044-.044Zm9.139-1.425a.4.4,0,0,0-.15.238,1.8,1.8,0,0,1-1.938,1.25,2.8,2.8,0,0,1-2.619-2.988,2.631,2.631,0,0,1,2.5-2.894c1.1,0,1.488.625,1.981,1.494l.288-.075a.05.05,0,0,0,.056-.056c0-.063-.1-.794-.156-1.181a.363.363,0,0,0-.188-.156,4.419,4.419,0,0,0-2.05-.488c-1.875,0-3.85,1.25-3.85,3.288,0,2.307,1.725,3.525,3.9,3.525a5.432,5.432,0,0,0,2.225-.469l.275-1.088a1.35,1.35,0,0,0,.044-.219.5.5,0,0,0-.319-.181Zm7.245,1.419a.963.963,0,0,1-.888-.556c-.381-.625-.781-1.181-1.163-1.769l-1.069-1.631,1.494-1.569a1.113,1.113,0,0,1,.838-.219.081.081,0,0,0,.1-.094V17.5c0-.063-.05-.081-.131-.081-.288,0-.8.044-1.281.044s-.719-.044-.894-.044a.088.088,0,0,0-.1.094v.175c0,.063,0,.1.081.1.413,0,.625,0,.625.231,0,.406-1.769,2-2.15,2.344V18.446c0-.625.181-.625.675-.625.094,0,.138,0,.138-.081v-.225a.081.081,0,0,0-.1-.094c-.413,0-.875.044-1.331.044s-.894-.044-1.313-.044c-.075,0-.119,0-.119.094v.169c0,.075,0,.113.094.113.525,0,.731.05.731.769v4.419c0,.519-.25.588-.694.588-.113,0-.138.044-.138.094v.175a.094.094,0,0,0,.1.1c.288,0,.625-.044,1.25-.044.444,0,.875.044,1.419.044.075,0,.1,0,.1-.056v-.231a.069.069,0,0,0-.081-.081c-.4,0-.719,0-.719-.588V20.859l.469-.35,1.575,2.5a.863.863,0,0,1,.181.394c0,.131-.231.156-.625.163a.075.075,0,0,0-.075.081v.194a.081.081,0,0,0,.1.094c.269,0,.625-.044,1.163-.044s1.125.044,1.719.044a.075.075,0,0,0,.075-.081v-.194a.075.075,0,0,0-.056-.094ZM155.065,20.2a1.7,1.7,0,0,0-1.675-1.731,2.707,2.707,0,0,0-2.682,2.5,1.669,1.669,0,0,0,1.619,1.769,2.8,2.8,0,0,0,2.738-2.538Zm-1.788,1.875a1.2,1.2,0,0,1-.931.444.838.838,0,0,1-.763-.981c0-1.044.663-2.882,1.838-2.882a.844.844,0,0,1,.788,1,4.176,4.176,0,0,1-.931,2.457Z" transform="translate(-56.503 -6.482)" fill="#a5afba"/>
  <path id="Path_562" data-name="Path 562" d="M149.963,17.217a.413.413,0,0,0,.419-.4.575.575,0,0,0-.669-.463,2.3,2.3,0,0,0-1.475.663,2.656,2.656,0,0,0-.7,1.206h-.663a.275.275,0,0,0-.156.219.069.069,0,0,0,.063.081h.663c-.544,1.806-.681,2.313-1.206,4.269-.119.444-.338,1.25-.7,1.25a.319.319,0,0,1-.244-.275.438.438,0,0,0-.425-.388.375.375,0,0,0-.388.381.688.688,0,0,0,.769.55,1.75,1.75,0,0,0,1.075-.419c.581-.463.688-.763,1.65-4.219L148.3,18.5h.869a.231.231,0,0,0,.144-.219.069.069,0,0,0-.062-.081h-.863c.125-.481.419-1.55.825-1.55a.294.294,0,0,1,.219.2.625.625,0,0,0,.531.363Zm-19.527,5.994c-.469,0-.706-.181-.706-.869V17.523h1.044c.506,0,.694.625.85.856a.1.1,0,0,0,.094.063c.213,0,.25,0,.25-.15s-.169-1.106-.213-1.575a.056.056,0,0,0-.062-.063h-.281a.625.625,0,0,1-.581.406H127.5a.625.625,0,0,1-.588-.406h-.275a.056.056,0,0,0-.063.063c-.044.469-.213,1.506-.213,1.575s.038.15.25.15a.1.1,0,0,0,.094-.063c.156-.256.344-.856.85-.856h1.038V22.38c0,.663-.113.813-.744.813-.063,0-.075.044-.075.119v.194c0,.063.063.075.156.075.25,0,.531-.044,1.056-.044s1.25.044,1.469.044c.069,0,.113,0,.113-.063v-.225C130.554,23.236,130.51,23.211,130.435,23.211Z" transform="translate(-47.375 -6.128)" fill="#a5afba"/>
  <path id="Path_563" data-name="Path 563" d="M57.093,40.486a1.475,1.475,0,0,0-1.075.425,1.406,1.406,0,0,0-.438,1.006,1.363,1.363,0,0,0,.494,1.056,1.875,1.875,0,0,0,1.094.35A1.463,1.463,0,0,0,58.7,41.9a1.488,1.488,0,0,0-1.606-1.413Zm.131,2.682a.831.831,0,0,1-.688-.519,1.919,1.919,0,0,1-.194-.863c0-.444.175-1.15.731-1.15s.888.856.888,1.375-.188,1.163-.75,1.163Zm6.663-.6c-.175,0-.181.531-.813.531-.313,0-.356-.169-.356-.419V41.155c0-.288,0-.375.275-.425a.106.106,0,0,0,.119-.088c0-.069-.05-.081-.106-.081H61.712c-.063,0-.106,0-.106.081s.088.075.138.088c.275.05.25.163.25.425V42.68c0,.281,0,.35-.275.4a.119.119,0,0,0-.119.106c0,.063.044.075.106.075h2.013c.106,0,.15,0,.163-.088a3.42,3.42,0,0,0,.088-.494c0-.075,0-.113-.081-.113Zm5.207,0c-.175,0-.181.531-.813.531-.313,0-.344-.169-.344-.4V41.155c0-.288,0-.375.275-.425a.106.106,0,0,0,.131-.088c0-.069-.05-.081-.106-.081H66.944c-.063,0-.106,0-.106.081s.088.075.138.088c.275.05.25.163.25.425V42.68c0,.281,0,.35-.275.4a.119.119,0,0,0-.119.106c0,.063.044.075.106.075h1.025l1.006.044c.106,0,.15,0,.163-.088A3.911,3.911,0,0,0,69.2,42.7c-.025-.094-.038-.131-.106-.131Zm4.251-1.056-.231-.081a.444.444,0,0,1-.4-.375.45.45,0,0,1,.494-.394.556.556,0,0,1,.5.475.131.131,0,0,0,.119.119c.094,0,.088-.094.088-.163v-.288a.175.175,0,0,0-.069-.194,1.569,1.569,0,0,0-.569-.113,1.038,1.038,0,0,0-1.131.881.963.963,0,0,0,.763.775.75.75,0,0,1,.625.563.531.531,0,0,1-.594.463.625.625,0,0,1-.45-.156.738.738,0,0,1-.175-.363.213.213,0,0,0-.15-.206c-.069-.013-.069.15-.069.225v.238a.219.219,0,0,0,.125.269,2.013,2.013,0,0,0,.731.144,1.25,1.25,0,0,0,.8-.263.925.925,0,0,0,.344-.694A.9.9,0,0,0,73.345,41.511Zm6.47.994a.125.125,0,0,0-.106.094,1.25,1.25,0,0,1-.288.4.725.725,0,0,1-.456.169.881.881,0,0,1-.738-.438,1.607,1.607,0,0,1-.219-.838,1.488,1.488,0,0,1,.238-.844.9.9,0,0,1,.725-.388c.588,0,.625.519.8.519a.075.075,0,0,0,.081-.075.625.625,0,0,0,0-.125l-.038-.219c0-.125,0-.138-.138-.175a2.569,2.569,0,0,0-.625-.094,2.132,2.132,0,0,0-1.25.363,1.35,1.35,0,0,0-.563,1.075,1.388,1.388,0,0,0,.55,1.075,1.975,1.975,0,0,0,1.144.319,1.638,1.638,0,0,0,.831-.2.25.25,0,0,0,.138-.275v-.181c0-.063.006-.163-.088-.163Zm4.669-2.019a1.475,1.475,0,0,0-1.069.425,1.413,1.413,0,0,0-.438,1.006,1.363,1.363,0,0,0,.494,1.056,1.875,1.875,0,0,0,1.094.35A1.463,1.463,0,0,0,86.09,41.9a1.494,1.494,0,0,0-1.606-1.413Zm.113,2.688a.831.831,0,0,1-.688-.519,1.932,1.932,0,0,1-.194-.863c0-.444.175-1.15.731-1.15s.888.856.888,1.375-.163,1.156-.738,1.156Zm5.851-2.444a.106.106,0,0,0,.119-.088c0-.069-.05-.081-.106-.081H89.165c-.062,0-.106,0-.106.081s.088.075.138.088c.281.05.25.163.25.425V42.68c0,.281,0,.356-.275.406a.113.113,0,0,0-.119.1c0,.063.044.081.106.081h1.294a.088.088,0,0,0,.106-.081.125.125,0,0,0-.138-.1c-.275-.044-.256-.15-.256-.406V41.155c.013-.294-.012-.35.281-.425Zm5.326,1.838c-.175,0-.181.531-.813.531-.313,0-.35-.169-.35-.4V41.155c0-.288,0-.375.275-.425a.113.113,0,0,0,.125-.088c0-.069-.05-.081-.106-.081H93.61c-.063,0-.106,0-.106.081s.088.075.138.088c.281.05.25.163.25.425V42.68c0,.281,0,.35-.275.4a.119.119,0,0,0-.119.106c0,.063.044.075.106.075h2.013c.106,0,.15,0,.163-.088a3.755,3.755,0,0,0,.069-.494c0-.075,0-.113-.075-.113Zm9.182,0c-.175,0-.181.531-.813.531-.313,0-.344-.169-.344-.4V41.155c0-.288,0-.375.275-.425a.106.106,0,0,0,.119-.088c0-.069-.05-.081-.106-.081h-1.294c-.063,0-.106,0-.106.081s.088.075.138.088c.275.05.25.163.25.425V42.68c0,.281,0,.35-.275.4a.119.119,0,0,0-.119.106c0,.063.044.075.106.075H104.8c.106,0,.15,0,.163-.088a3.912,3.912,0,0,0,.069-.519c.006-.05-.006-.088-.075-.088Zm5.951-2.006h-.775c-.063,0-.15,0-.15.088s.1.075.169.081a.269.269,0,0,1,.231.125.963.963,0,0,1,.037.35v1.1a.869.869,0,0,1-.131.625.75.75,0,0,1-.625.244.625.625,0,0,1-.625-.35,2.35,2.35,0,0,1-.062-.681v-.988c0-.288,0-.375.275-.425a.106.106,0,0,0,.119-.088c0-.069-.05-.081-.106-.081h-1.294c-.063,0-.106,0-.106.081s.088.075.138.088c.281.05.25.163.25.425v1.188a.8.8,0,0,0,.356.794,1.75,1.75,0,0,0,.869.194,1.356,1.356,0,0,0,.863-.25.856.856,0,0,0,.256-.775V41.174a1.469,1.469,0,0,1,0-.306.188.188,0,0,1,.194-.138c.063,0,.156,0,.156-.081a.088.088,0,0,0-.037-.088Zm4.319.169a.106.106,0,0,0,.119-.088c0-.069-.044-.081-.106-.081h-1.294c-.063,0-.106,0-.106.081s.088.075.138.088c.275.05.25.163.25.425V42.68c0,.281,0,.356-.275.406a.113.113,0,0,0-.119.1c0,.063.044.081.106.081h.625l.663.038a.081.081,0,0,0,.106-.081.125.125,0,0,0-.138-.1c-.275-.044-.256-.15-.256-.406V41.155c.019-.294,0-.35.288-.425Zm6.451,2.375a.163.163,0,0,1-.163-.094.994.994,0,0,1-.038-.331l-.05-1.625c0-.169,0-.344.181-.356.069,0,.181,0,.181-.081s-.063-.094-.125-.094h-.838a.163.163,0,0,0-.119.15l-.625,1.55-.675-1.581c-.031-.081,0-.119-.119-.119h-.806c-.069,0-.169,0-.169.094s.119.075.188.081c.219,0,.194.106.188.3l-.088,1.744c0,.163,0,.306-.181.331-.063,0-.181,0-.181.1s.05.075.106.075h.788a.106.106,0,0,0,.131-.088c0-.106-.144-.094-.206-.094-.244,0-.244-.194-.238-.388l.056-1.506.806,1.913a.15.15,0,0,0,.138.138c.138,0,.15-.119.181-.219l.769-1.875v1.625c0,.163,0,.281-.194.306-.075,0-.2,0-.2.106s.069.075.125.075h1.175c.063,0,.156,0,.156-.088s-.094-.05-.156-.05Zm6.126-2.544h-.769c-.063,0-.163,0-.163.094s.088.069.163.081a.263.263,0,0,1,.231.15.894.894,0,0,1,.038.306v1.05l-1.25-1.538a.238.238,0,0,0-.269-.144h-.763c-.063,0-.15,0-.15.075s.1.088.169.094c.219,0,.2.206.2.375v1.35a1.819,1.819,0,0,1-.037.513.175.175,0,0,1-.181.131c-.069,0-.181,0-.181.094a.1.1,0,0,0,.119.088h.819a.106.106,0,0,0,.131-.088c0-.094-.119-.088-.181-.094a.238.238,0,0,1-.25-.163,1.875,1.875,0,0,1,0-.419V41.08l1.713,2.138a.313.313,0,0,0,.225.169c.15,0,.125-.075.125-.2V41.13c0-.169,0-.375.181-.406.075,0,.219,0,.219-.081s-.069-.081-.138-.081Zm4.457.169c.05,0,.119,0,.119-.088s-.044-.081-.106-.081h-1.294c-.063,0-.106,0-.106.081s.088.075.138.088c.275.05.25.163.25.425V42.68c0,.281,0,.356-.275.406a.113.113,0,0,0-.119.1c0,.063.044.081.106.081h1.294a.081.081,0,0,0,.1-.081.125.125,0,0,0-.138-.1c-.275-.044-.256-.15-.256-.406V41.155C131.983,40.861,131.964,40.805,132.258,40.73Zm6.051,1.181H137.1c-.069,0-.175,0-.175.1a.1.1,0,0,0,.119.094.331.331,0,0,1,.281.088.831.831,0,0,1,.05.388v.181a.625.625,0,0,1-.044.294.438.438,0,0,1-.288.081c-.681,0-.938-.688-.938-1.25a1.538,1.538,0,0,1,.219-.831.863.863,0,0,1,.713-.394c.625,0,.563.519.769.519a.088.088,0,0,0,.1-.1,1.174,1.174,0,0,0,0-.213c-.038-.256,0-.244-.238-.3a2.425,2.425,0,0,0-.581-.081,1.6,1.6,0,0,0-1.738,1.475,1.25,1.25,0,0,0,.55,1.056,2.275,2.275,0,0,0,1.931.175.481.481,0,0,0,.288-.263v-.563c0-.194,0-.225.2-.263a.125.125,0,0,0,.131-.106.088.088,0,0,0-.144-.088Zm6.126-1.156a.106.106,0,0,0,.125-.088c0-.069-.05-.081-.106-.081h-1.294c-.062,0-.106,0-.106.081s.081.081.138.088c.275.056.25.163.244.431v.419c0,.163,0,.156-.144.156h-.775c-.15,0-.156,0-.156-.156v-.463c0-.288,0-.375.281-.419a.106.106,0,0,0,.125-.081c0-.069-.044-.081-.106-.088h-1.294c-.063,0-.106,0-.106.081s.088.081.138.088c.275.05.25.163.244.431v1.538c0,.281,0,.356-.281.4a.113.113,0,0,0-.119.1.081.081,0,0,0,.1.088h1.294a.081.081,0,0,0,.106-.081.125.125,0,0,0-.137-.1c-.275-.05-.25-.15-.25-.406v-.625c0-.181,0-.163.175-.156h.775c.119,0,.125,0,.131.106v.663c0,.281,0,.356-.281.4a.113.113,0,0,0-.119.1.081.081,0,0,0,.1.081h1.294a.081.081,0,0,0,.106-.081.125.125,0,0,0-.137-.1c-.275-.05-.25-.15-.25-.406V41.13C144.159,40.88,144.141,40.805,144.435,40.755Z" transform="translate(-20.838 -15.177)" fill="#909ba7"/>
</svg>
